<svg width="32" height="32" viewBox="0 0 32 32" fill="none" xmlns="http://www.w3.org/2000/svg">
  <rect width="32" height="32" rx="8" fill="#0056C1"/>
  <path fill-rule="evenodd" clip-rule="evenodd" d="M9.75502 15.9996C8.63296 14.1851 8.03238 12.0382 8.43592 9.86295C8.57366 9.12097 9.16899 8.54469 9.91443 8.42722C10.5814 8.32213 11.0635 8.2695 12.0082 8.34803C11.6678 8.91314 11.4663 9.47685 11.2545 10.0247C10.7827 10.0076 10.302 10.102 10.1497 10.1489C9.76637 11.5661 10.2611 13.9924 11.7558 15.9996H9.75502Z" fill="white"/>
  <path fill-rule="evenodd" clip-rule="evenodd" d="M11.584 11.5838C12.0735 9.50734 13.167 7.56457 14.9905 6.3119C15.6125 5.88452 16.4411 5.89803 17.0512 6.34211C17.5971 6.73937 17.9752 7.04299 18.5877 7.76658C17.9473 7.92543 17.4063 8.18167 16.8692 8.41924C16.5476 8.07349 16.141 7.80036 16.0001 7.72586C14.727 8.45686 13.3611 10.5224 12.9988 12.9986L11.584 11.5838Z" fill="white"/>
  <path fill-rule="evenodd" clip-rule="evenodd" d="M16 9.7543C17.8145 8.63223 19.9614 8.03164 22.1366 8.43519C22.8786 8.57293 23.4549 9.16826 23.5724 9.91371C23.6774 10.5807 23.7301 11.0628 23.6516 12.0075C23.0864 11.667 22.5228 11.4656 21.9749 11.2538C21.992 10.782 21.8976 10.3013 21.8506 10.149C20.4335 9.76565 18.0073 10.2604 16 11.7551V9.7543Z" fill="white"/>
  <path fill-rule="evenodd" clip-rule="evenodd" d="M20.4163 11.5837C22.4928 12.0733 24.4355 13.1668 25.6882 14.9903C26.1156 15.6123 26.102 16.4408 25.6579 17.051C25.2607 17.5969 24.9571 17.975 24.2335 18.5875C24.0746 17.9471 23.8184 17.4062 23.5809 16.869C23.9266 16.5473 24.1997 16.1408 24.2742 15.9999C23.5432 14.7268 21.4777 13.3609 19.0015 12.9985L20.4163 11.5837Z" fill="white"/>
  <path fill-rule="evenodd" clip-rule="evenodd" d="M22.2449 15.9998C23.367 17.8142 23.9676 19.9611 23.5639 22.1364C23.4263 22.8784 22.8309 23.4547 22.0855 23.5722C21.4185 23.6772 20.9364 23.7298 19.9917 23.6513C20.3322 23.0862 20.5336 22.5225 20.7454 21.9746C21.2173 21.9918 21.6978 21.8974 21.8502 21.8504C22.2336 20.4332 21.7388 18.007 20.2441 15.9998H22.2449Z" fill="white"/>
  <path fill-rule="evenodd" clip-rule="evenodd" d="M20.4159 20.4163C19.9262 22.4928 18.8328 24.4356 17.0093 25.6882C16.3873 26.1155 15.5588 26.1021 14.9486 25.658C14.4027 25.2607 14.0246 24.9571 13.4121 24.2335C14.0525 24.0746 14.5935 23.8184 15.1307 23.5809C15.4522 23.9265 15.8588 24.1996 15.9998 24.2742C17.2729 23.5431 18.6387 21.4778 19.001 19.0015L20.4159 20.4163Z" fill="white"/>
  <path fill-rule="evenodd" clip-rule="evenodd" d="M15.9998 22.2452C14.1853 23.3673 12.0384 23.9679 9.86321 23.5643C9.12124 23.4266 8.54487 22.8312 8.42749 22.0858C8.3224 21.4188 8.26977 20.9368 8.34821 19.9919C8.91341 20.3324 9.47712 20.5338 10.025 20.7457C10.0078 21.2176 10.1023 21.6981 10.1492 21.8504C11.5663 22.2339 13.9926 21.7391 15.9998 20.2444V22.2452Z" fill="white"/>
  <path fill-rule="evenodd" clip-rule="evenodd" d="M11.5838 20.4159C9.50732 19.9263 7.56456 18.8329 6.3119 17.0093C5.88452 16.3873 5.89803 15.5589 6.34211 14.9486C6.73937 14.4028 7.04299 14.0246 7.76657 13.4121C7.92542 14.0524 8.18166 14.5935 8.41922 15.1306C8.07348 15.4522 7.80035 15.8588 7.72585 15.9997C8.45685 17.2728 10.5223 18.6387 12.9986 19.0012L11.5838 20.4159Z" fill="white"/>
</svg>
