<svg width="32" height="32" viewBox="0 0 32 32" fill="none" xmlns="http://www.w3.org/2000/svg">
  <rect width="32" height="32" rx="8" fill="#5C2483"/>
  <path d="M19.754 17.5857C19.754 17.5857 19.4379 20.7606 19.3716 21.3131H20.4299C20.4299 21.3131 20.5541 20.453 20.844 18.0133C20.8963 17.5702 20.969 16.6833 20.969 16.6833L19.754 17.5857Z" fill="url(#paint0_linear_akart)"/>
  <path d="M16.8765 9.42308C18.2339 9.08654 19.2111 9.71517 19.6556 12.4386C19.7844 13.3027 19.8469 14.1754 19.8426 15.049C20.2532 14.7266 20.6455 14.4141 21.0173 14.1072C20.9867 13.0603 20.8593 12.0185 20.637 10.995C20.1636 8.89392 18.8231 8 17.462 8C17.2669 8.00183 17.0723 8.01952 16.88 8.05292L16.8765 9.42308Z" fill="url(#paint1_linear_akart)"/>
  <path d="M17.4587 8.00244C15.879 8.00244 12.9976 9.36132 10.0816 12.5348C6.79161 16.1155 6 18.9263 6 20.4031C6 21.8798 6.98141 23.0446 8.76361 23.0446C10.5458 23.0446 13.4018 21.92 17.6478 19.0625C21.8937 16.205 26 12.6308 26 12.6308L25.1138 10.5932C24.2009 11.3241 20.1913 15.187 14.8355 18.6371C9.69422 21.9489 8.0623 21.4014 7.83582 20.9774C7.64603 20.6197 7.26292 19.3497 9.34638 15.9892C11.4298 12.6287 14.6746 10.2482 16.3214 9.60332C16.7299 9.44316 17.1101 9.34721 17.4587 9.34086V8.00244Z" fill="white"/>
  <defs>
    <linearGradient id="paint0_linear_akart" x1="19.3476" y1="17.7762" x2="21.3253" y2="20.7084" gradientUnits="userSpaceOnUse">
      <stop offset="0.07" stop-color="white" stop-opacity="0.5"/>
      <stop offset="0.7" stop-color="white"/>
    </linearGradient>
    <linearGradient id="paint1_linear_akart" x1="21.2783" y1="13.899" x2="16.6768" y2="8.2166" gradientUnits="userSpaceOnUse">
      <stop offset="0.07" stop-color="white" stop-opacity="0.5"/>
      <stop offset="0.6" stop-color="white"/>
    </linearGradient>
  </defs>
</svg>
