<svg width="26" height="18" viewBox="0 0 26 18" fill="none" xmlns="http://www.w3.org/2000/svg">
<rect x="0.5" y="0.5" width="25" height="17" rx="3.5" fill="#006FCF" stroke="#F3F3F3"/>
<path fill-rule="evenodd" clip-rule="evenodd" d="M5.31801 13.002V9.29643H9.49759L9.94601 9.84519L10.4093 9.29643H25.5801V12.7464C25.5801 12.7464 25.1833 12.9983 24.7245 13.002H16.3241L15.8185 12.4178V13.002H14.1618V12.0049C14.1618 12.0049 13.9355 12.144 13.4462 12.144H12.8823V13.002H10.3738L9.92603 12.4414L9.47137 13.002H5.31801ZM0.448242 6.50361L1.38861 4.44092H3.01489L3.54856 5.59635V4.44092H5.57018L5.88787 5.27603L6.19587 4.44092H15.2708V4.86076C15.2708 4.86076 15.7479 4.44092 16.5319 4.44092L19.4764 4.4506L20.0008 5.59091V4.44092H21.6926L22.1583 5.09594V4.44092H23.8656V8.14645H22.1583L21.712 7.48931V8.14645H19.2264L18.9764 7.56233H18.3082L18.0623 8.14645H16.3767C15.7021 8.14645 15.2708 7.73519 15.2708 7.73519V8.14645H12.7292L12.2248 7.56233V8.14645H2.77397L2.52418 7.56233H1.85809L1.61006 8.14645H0.448242V6.50361ZM0.453146 7.67229L1.7215 4.8977H2.68308L3.95022 7.67229H3.10627L2.87345 7.11669H1.51294L1.27891 7.67229H0.453146ZM2.60552 6.51433L2.19082 5.54345L1.7749 6.51433H2.60552ZM4.0375 7.67186V4.89727L5.21096 4.90137L5.89348 6.69025L6.55966 4.89727H7.72374V7.67186H6.98649V5.62743L6.20499 7.67186H5.55842L4.77475 5.62743V7.67186H4.0375ZM8.22817 7.67186V4.89727H10.6339V5.5179H8.97318V5.9925H10.5951V6.57663H8.97318V7.06948H10.6339V7.67186H8.22817ZM11.0607 7.67229V4.8977H12.7013C13.2449 4.8977 13.732 5.21397 13.732 5.79784C13.732 6.29697 13.3213 6.61846 12.9232 6.65007L13.8933 7.67229H12.9923L12.1084 6.68658H11.7979V7.67229H11.0607ZM12.6408 5.51831H11.798V6.10243H12.6517C12.7994 6.10243 12.99 5.9947 12.99 5.81037C12.99 5.66709 12.8429 5.51831 12.6408 5.51831ZM14.7858 7.67186H14.033V4.89727H14.7858V7.67186ZM16.5707 7.67186H16.4082C15.622 7.67186 15.1447 7.08911 15.1447 6.29598C15.1447 5.48325 15.6167 4.89727 16.6095 4.89727H17.4243V5.55441H16.5797C16.1767 5.55441 15.8916 5.85033 15.8916 6.30282C15.8916 6.84015 16.2175 7.06583 16.6871 7.06583H16.8811L16.5707 7.67186ZM16.9066 7.67229L18.175 4.8977H19.1366L20.4037 7.67229H19.5598L19.3269 7.11669H17.9664L17.7324 7.67229H16.9066ZM19.059 6.51433L18.6443 5.54345L18.2284 6.51433H19.059ZM20.4898 7.67186V4.89727H21.4271L22.6239 6.64052V4.89727H23.3612V7.67186H22.4541L21.227 5.88298V7.67186H20.4898ZM5.82241 12.5274V9.7528H8.22817V10.3734H6.56742V10.848H8.18936V11.4322H6.56742V11.925H8.22817V12.5274H5.82241ZM17.6106 12.5274V9.7528H20.0164V10.3734H18.3556V10.848H19.9698V11.4322H18.3556V11.925H20.0164V12.5274H17.6106ZM8.32149 12.5274L9.49284 11.1572L8.2936 9.7528H9.22244L9.93665 10.621L10.6533 9.7528H11.5457L10.3623 11.1401L11.5358 12.5274H10.6071L9.91361 11.6729L9.23699 12.5274H8.32149ZM11.6234 12.5278V9.75323H13.2519C13.9201 9.75323 14.3105 10.1584 14.3105 10.6865C14.3105 11.3239 13.8128 11.6516 13.1561 11.6516H12.3801V12.5278H11.6234ZM13.1973 10.3807H12.38V11.0196H13.1949C13.4102 11.0196 13.5611 10.8853 13.5611 10.7002C13.5611 10.503 13.4094 10.3807 13.1973 10.3807ZM14.6306 12.5274V9.7528H16.2713C16.8149 9.7528 17.3019 10.0691 17.3019 10.6529C17.3019 11.1521 16.8913 11.4736 16.4932 11.5052L17.4632 12.5274H16.5623L15.6783 11.5417H15.3679V12.5274H14.6306ZM16.2107 10.3734H15.3679V10.9575H16.2216C16.3693 10.9575 16.5599 10.8498 16.5599 10.6655C16.5599 10.5222 16.4128 10.3734 16.2107 10.3734ZM20.3578 12.5274V11.925H21.8333C22.0516 11.925 22.1461 11.814 22.1461 11.6923C22.1461 11.5756 22.0519 11.4577 21.8333 11.4577H21.1665C20.587 11.4577 20.2642 11.1255 20.2642 10.6267C20.2642 10.1818 20.5598 9.7528 21.421 9.7528H22.8567L22.5463 10.3771H21.3046C21.0672 10.3771 20.9942 10.4943 20.9942 10.6062C20.9942 10.7212 21.0844 10.848 21.2658 10.848H21.9642C22.6103 10.848 22.8906 11.1928 22.8906 11.6444C22.8906 12.1298 22.5782 12.5274 21.929 12.5274H20.3578ZM22.9557 12.5274V11.925H24.4312C24.6495 11.925 24.744 11.814 24.744 11.6923C24.744 11.5756 24.6498 11.4577 24.4312 11.4577H23.7644C23.1848 11.4577 22.8621 11.1255 22.8621 10.6267C22.8621 10.1818 23.1577 9.7528 24.0189 9.7528H25.4546L25.1442 10.3771H23.9025C23.6651 10.3771 23.5921 10.4943 23.5921 10.6062C23.5921 10.7212 23.6823 10.848 23.8637 10.848H24.5621C25.2082 10.848 25.4885 11.1928 25.4885 11.6444C25.4885 12.1298 25.1761 12.5274 24.5269 12.5274H22.9557Z" fill="white"/>
</svg>
