<svg width="41" height="18" viewBox="0 0 41 18" fill="none" xmlns="http://www.w3.org/2000/svg">
  <path fill-rule="evenodd" clip-rule="evenodd" d="M7.33235 2.20825C6.86204 2.78679 6.10954 3.24311 5.35704 3.17792C5.26298 2.39567 5.63139 1.56452 6.06251 1.05116C6.53282 0.456317 7.35587 0.0325941 8.02214 0C8.10053 0.814852 7.79483 1.61341 7.33235 2.20825ZM8.01423 3.3327C7.35129 3.29304 6.74639 3.53996 6.25779 3.7394C5.94337 3.86775 5.67711 3.97643 5.47454 3.97643C5.24722 3.97643 4.96997 3.86194 4.65868 3.73338C4.25079 3.56493 3.78446 3.37235 3.29543 3.38159C2.17452 3.39789 1.13199 4.05792 0.559777 5.10908C-0.616004 7.21139 0.254074 10.3241 1.39066 12.0353C1.9472 12.8828 2.61348 13.8117 3.49139 13.7791C3.87762 13.7639 4.15545 13.6414 4.44299 13.5146C4.77401 13.3685 5.11789 13.2168 5.65483 13.2168C6.17316 13.2168 6.502 13.3646 6.81766 13.5064C7.11781 13.6412 7.40605 13.7707 7.83395 13.7628C8.74322 13.7465 9.31543 12.9154 9.87197 12.0679C10.4726 11.1584 10.7365 10.2707 10.7765 10.136L10.7812 10.1204C10.7803 10.1194 10.7729 10.1159 10.7598 10.1097L10.7598 10.1097C10.559 10.0141 9.02444 9.2838 9.00973 7.32547C8.99495 5.68173 10.2269 4.84891 10.4208 4.71781C10.4326 4.70984 10.4406 4.70446 10.4442 4.70165C9.66033 3.49567 8.43751 3.36529 8.01423 3.3327ZM14.3086 13.6732V0.969644H18.8942C21.2614 0.969644 22.9154 2.66453 22.9154 5.14168C22.9154 7.61883 21.2301 9.33002 18.8315 9.33002H16.2056V13.6732H14.3086ZM16.2054 2.63203H18.3923C20.0384 2.63203 20.9791 3.54466 20.9791 5.14992C20.9791 6.75518 20.0384 7.67596 18.3845 7.67596H16.2054V2.63203ZM29.1785 12.1494C28.6768 13.1435 27.5716 13.7709 26.3801 13.7709C24.6164 13.7709 23.3858 12.679 23.3858 11.033C23.3858 9.40332 24.5772 8.46624 26.7799 8.32772L29.1471 8.18105V7.48027C29.1471 6.44541 28.4965 5.88317 27.3364 5.88317C26.3801 5.88317 25.6825 6.39652 25.5414 7.17878H23.8326C23.8874 5.53278 25.3768 4.33495 27.3913 4.33495C29.5625 4.33495 30.9735 5.51648 30.9735 7.3499V13.6731H29.2176V12.1494H29.1785ZM26.8895 12.2635C25.8783 12.2635 25.2356 11.7583 25.2356 10.9842C25.2356 10.1857 25.8548 9.72121 27.0384 9.64787L29.147 9.50935V10.2264C29.147 11.4161 28.175 12.2635 26.8895 12.2635ZM36.7974 14.1702C36.0371 16.3948 35.167 17.1282 33.3171 17.1282C33.176 17.1282 32.7057 17.1119 32.596 17.0793V15.5555C32.7136 15.5718 33.0036 15.5881 33.1525 15.5881C33.9912 15.5881 34.4616 15.2214 34.7516 14.268L34.924 13.7058L31.7102 4.45722H33.6934L35.9274 11.962H35.9666L38.2005 4.45722H40.1288L36.7974 14.1702Z" fill="white"/>
</svg>
