<svg width="33" height="14" viewBox="0 0 33 14" fill="none" xmlns="http://www.w3.org/2000/svg">
<path fill-rule="evenodd" clip-rule="evenodd" d="M6.02977 1.80495C5.64301 2.27783 5.02419 2.65081 4.40537 2.59753C4.32802 1.95814 4.63098 1.27878 4.98551 0.859183C5.37227 0.372979 6.04911 0.0266413 6.59702 0C6.66148 0.666034 6.41009 1.31875 6.02977 1.80495ZM6.59052 2.72404C6.04535 2.69162 5.5479 2.89345 5.1461 3.05646C4.88754 3.16137 4.66858 3.25021 4.502 3.25021C4.31506 3.25021 4.08706 3.15662 3.83107 3.05154C3.49564 2.91386 3.11215 2.75645 2.71 2.764C1.78822 2.77732 0.930894 3.31681 0.460334 4.17599C-0.506572 5.89436 0.208938 8.4386 1.14361 9.83727C1.60128 10.5299 2.1492 11.2892 2.87115 11.2626C3.18877 11.2502 3.41724 11.15 3.6537 11.0464C3.92591 10.927 4.2087 10.803 4.65026 10.803C5.07651 10.803 5.34693 10.9238 5.60652 11.0397C5.85334 11.1499 6.09037 11.2558 6.44226 11.2493C7.19 11.2359 7.66056 10.5566 8.11823 9.86391C8.61213 9.12048 8.82917 8.39493 8.86211 8.28483L8.86597 8.2721C8.86518 8.27128 8.85907 8.26839 8.84831 8.2633C8.6832 8.1852 7.42127 7.58828 7.40916 5.9876C7.39701 4.64406 8.4101 3.96334 8.56958 3.85619L8.5696 3.85617L8.56964 3.85615L8.56965 3.85614L8.56966 3.85613C8.57932 3.84964 8.58584 3.84526 8.58879 3.84298C7.94418 2.85725 6.9386 2.75068 6.59052 2.72404ZM11.7667 11.176V0.792555H15.5377C17.4844 0.792555 18.8445 2.1779 18.8445 4.20264C18.8445 6.22738 17.4586 7.62605 15.4861 7.62605H13.3267V11.176H11.7667ZM13.3265 2.15133H15.125C16.4786 2.15133 17.2522 2.89729 17.2522 4.20938C17.2522 5.52146 16.4786 6.27408 15.1185 6.27408H13.3265V2.15133ZM23.9949 9.9305C23.5824 10.7431 22.6735 11.2559 21.6937 11.2559C20.2433 11.2559 19.2313 10.3634 19.2313 9.01804C19.2313 7.68597 20.2111 6.92003 22.0225 6.80681L23.9692 6.68692V6.11413C23.9692 5.26827 23.4341 4.80871 22.4801 4.80871C21.6937 4.80871 21.12 5.22831 21.004 5.8677H19.5987C19.6439 4.52232 20.8686 3.54325 22.5252 3.54325C24.3108 3.54325 25.4711 4.50899 25.4711 6.00757V11.176H24.0272V9.9305H23.9949ZM22.1126 10.0238C21.2811 10.0238 20.7525 9.61088 20.7525 8.97815C20.7525 8.32544 21.2617 7.9458 22.2351 7.88586L23.9691 7.77263V8.35874C23.9691 9.33115 23.1698 10.0238 22.1126 10.0238ZM30.2604 11.5823C29.6352 13.4006 28.9197 14 27.3984 14C27.2824 14 26.8956 13.9867 26.8054 13.96V12.7146C26.902 12.7279 27.1405 12.7412 27.263 12.7412C27.9527 12.7412 28.3395 12.4415 28.578 11.6622L28.7198 11.2027L26.077 3.64319H27.7078L29.5449 9.77735H29.5772L31.4143 3.64319H33L30.2604 11.5823Z" fill="black"/>
</svg>
