<svg width="24" height="18" viewBox="0 0 24 18" fill="none" xmlns="http://www.w3.org/2000/svg">
<g clip-path="url(#clip0_4763_29332)">
<rect width="24" height="5.88462" fill="#00B5E2"/>
<rect y="12.1155" width="24" height="5.88462" fill="#509E2F"/>
<path d="M24 5.88452H0V12.1153H24V5.88452Z" fill="#EF3340"/>
<path d="M11.6319 11.4479C11.2289 11.4479 10.8323 11.3492 10.4782 11.1607C10.124 10.9722 9.82355 10.6999 9.60401 10.3685C9.38447 10.0371 9.25284 9.65714 9.2211 9.26318C9.18935 8.86921 9.25849 8.47371 9.42224 8.11261C9.58598 7.75152 9.83913 7.43628 10.1587 7.19555C10.4782 6.95482 10.8541 6.79623 11.252 6.73419C11.65 6.67215 12.0574 6.70862 12.4373 6.8403C12.8173 6.97198 13.1576 7.19469 13.4274 7.48818C13.0803 6.98215 12.5767 6.59885 11.9907 6.39478C11.4047 6.1907 10.7673 6.17664 10.1726 6.35466C9.57779 6.53269 9.05707 6.89339 8.68711 7.3836C8.31715 7.87381 8.11754 8.46762 8.11768 9.0775C8.11782 9.68739 8.3177 10.2811 8.68788 10.7712C9.05806 11.2612 9.57896 11.6217 10.1738 11.7994C10.7686 11.9772 11.406 11.9629 11.9919 11.7585C12.5778 11.5542 13.0813 11.1707 13.4282 10.6645C13.2016 10.9114 12.9246 11.1088 12.6151 11.2438C12.3056 11.3788 11.9706 11.4483 11.6319 11.4479Z" fill="white"/>
<path d="M15.8562 9.07498L14.9885 8.77328L15.3831 7.95786L14.5517 8.34565L14.2427 7.49536L13.9351 8.34636L13.9329 8.34494L13.1029 7.95928L13.499 8.77471L12.6313 9.07782L13.499 9.37952L13.1044 10.1949L13.9322 9.80857L13.9358 9.80715L14.2448 10.6574L14.5524 9.80644L15.3846 10.1935L14.9885 9.37809L15.8562 9.07498Z" fill="white"/>
</g>
<defs>
<clipPath id="clip0_4763_29332">
<rect width="24" height="18" rx="4" fill="white"/>
</clipPath>
</defs>
</svg>
