<svg width="20" height="20" viewBox="0 0 20 20" fill="none" xmlns="http://www.w3.org/2000/svg">
  <path d="M15.1738 9.0005C15.5197 9.00063 15.8008 9.24706 15.8008 9.55129V14.1421H16.8281C17.3257 14.1421 17.5745 14.142 17.7646 14.2329C17.9318 14.3129 18.0681 14.4402 18.1533 14.5972C18.2502 14.7757 18.25 15.0097 18.25 15.4771V16.1441C18.25 16.6113 18.2501 16.8455 18.1533 17.0239C18.0681 17.1809 17.9318 17.3082 17.7646 17.3882C17.5745 17.4791 17.3257 17.48 16.8281 17.48H3.67188C3.17428 17.48 2.92545 17.4791 2.73535 17.3882C2.56817 17.3082 2.43187 17.1809 2.34668 17.0239C2.24986 16.8455 2.25 16.6113 2.25 16.1441V15.4771C2.25 15.0097 2.2498 14.7757 2.34668 14.5972C2.43189 14.4402 2.56815 14.3129 2.73535 14.2329C2.92545 14.142 3.17428 14.1421 3.67188 14.1421H4.80078V9.55129C4.80078 9.24698 5.08169 9.0005 5.42773 9.0005C5.7736 9.00069 6.05371 9.24709 6.05371 9.55129V14.1421H7.93359V9.55129C7.93359 9.24698 8.2145 9.0005 8.56055 9.0005C8.90642 9.00068 9.18652 9.24708 9.18652 9.55129V14.1421H11.415V9.55129C11.415 9.24708 11.6951 9.00068 12.041 9.0005C12.3869 9.00063 12.668 9.24706 12.668 9.55129V14.1421H14.5479V9.55129C14.5479 9.24709 14.828 9.00069 15.1738 9.0005ZM10.5586 3.04445L17.1367 4.41652C17.5338 4.49936 17.7326 4.54086 17.8809 4.64113C18.0116 4.72959 18.1141 4.84978 18.1777 4.98879C18.2498 5.1464 18.25 5.3374 18.25 5.71925V6.65187C18.25 7.11873 18.2501 7.35236 18.1533 7.53078C18.0681 7.68779 17.9319 7.81601 17.7646 7.89601C17.5746 7.98686 17.3256 7.98683 16.8281 7.98683H3.67188C3.17443 7.98683 2.92543 7.98686 2.73535 7.89601C2.5681 7.81601 2.4319 7.68779 2.34668 7.53078C2.24993 7.35236 2.25 7.11873 2.25 6.65187V5.71925C2.25 5.33739 2.25016 5.1464 2.32227 4.98879C2.38587 4.84978 2.48841 4.72959 2.61914 4.64113C2.7674 4.54086 2.96618 4.49936 3.36328 4.41652L9.94141 3.04445C10.0562 3.0205 10.1139 3.00825 10.1719 3.00343C10.2235 2.99918 10.2765 2.99918 10.3281 3.00343C10.3861 3.00825 10.4438 3.0205 10.5586 3.04445Z" fill="#FACC15"/>
</svg>
