<svg width="69" height="16" viewBox="0 0 69 16" fill="none" xmlns="http://www.w3.org/2000/svg">
  <path d="M11.2913 0C11.4288 0.026322 11.4288 0.026322 11.5477 0.146651C11.5599 0.303092 11.5645 0.453179 11.564 0.609725C11.5643 0.658092 11.5647 0.706458 11.565 0.75629C11.5659 0.919282 11.5659 1.08226 11.5659 1.24526C11.5664 1.36176 11.5669 1.47826 11.5674 1.59477C11.5688 1.91202 11.5693 2.22926 11.5696 2.54652C11.5698 2.74472 11.5702 2.94292 11.5706 3.14112C11.572 3.83261 11.5728 4.5241 11.573 5.21559C11.5733 5.86 11.575 6.5044 11.5775 7.14881C11.5796 7.70198 11.5805 8.25513 11.5805 8.8083C11.5806 9.13871 11.5811 9.4691 11.5828 9.7995C11.5844 10.1106 11.5845 10.4216 11.5835 10.7327C11.5834 10.8466 11.5838 10.9606 11.5848 11.0746C11.5935 12.1877 11.5935 12.1877 11.2504 12.6007C11.2241 12.6335 11.1978 12.6662 11.1708 12.7C11.0893 12.7949 11.0041 12.8832 10.9157 12.9715C10.8836 13.0044 10.8516 13.0373 10.8186 13.0713C10.7141 13.1783 10.6088 13.2845 10.5034 13.3906C10.4298 13.4653 10.3563 13.5401 10.2828 13.6149C10.1294 13.7707 9.97565 13.926 9.82155 14.081C9.62407 14.2798 9.42784 14.4798 9.23192 14.6801C9.08073 14.8344 8.92885 14.988 8.77676 15.1414C8.70408 15.2148 8.63162 15.2886 8.55941 15.3625C8.45866 15.4655 8.35701 15.5675 8.25507 15.6692C8.22547 15.6999 8.19586 15.7305 8.16536 15.7621C8.03353 15.8919 7.94477 15.9653 7.76191 16C7.58952 15.9627 7.54634 15.9353 7.44462 15.7894C7.42697 15.6294 7.4203 15.4834 7.42157 15.3233C7.42125 15.2753 7.42093 15.2274 7.4206 15.1779C7.41974 15.0166 7.42017 14.8554 7.42059 14.6941C7.42025 14.5787 7.41984 14.4632 7.41936 14.3478C7.41829 14.0338 7.41836 13.7198 7.4187 13.4058C7.41888 13.1437 7.41852 12.8816 7.41816 12.6195C7.41733 12.001 7.41742 11.3826 7.4181 10.7641C7.41878 10.1262 7.41794 9.4883 7.41635 8.85041C7.41503 8.30282 7.41464 7.75523 7.41499 7.20763C7.41519 6.88056 7.41504 6.5535 7.41402 6.22643C7.4131 5.91862 7.41334 5.61084 7.41445 5.30303C7.41467 5.19021 7.41449 5.07738 7.41387 4.96456C7.41308 4.81019 7.41377 4.65589 7.41482 4.50153C7.41425 4.45717 7.41367 4.41281 7.41309 4.36711C7.42179 3.74193 7.80461 3.34033 8.21767 2.91422C8.32173 2.81717 8.42654 2.72094 8.53195 2.62538C9.00718 2.18946 9.45662 1.7274 9.90872 1.26722C9.99461 1.18001 10.0805 1.09282 10.1664 1.00564C10.3234 0.846357 10.4803 0.686993 10.637 0.527527C10.6708 0.493403 10.7045 0.45928 10.7392 0.424123C10.8004 0.361651 10.8609 0.298556 10.9207 0.23472C11.1149 0.029055 11.1149 0.029055 11.2913 0Z" fill="#E83444"/>
  <path d="M22.08 12.394C21.64 12.394 21.248 12.298 20.904 12.106C20.568 11.906 20.308 11.634 20.124 11.29L20.088 12.25H18.9V3.73H20.172V6.766C20.34 6.486 20.588 6.242 20.916 6.034C21.252 5.826 21.64 5.722 22.08 5.722C22.632 5.722 23.112 5.858 23.52 6.13C23.928 6.402 24.24 6.79 24.456 7.294C24.68 7.79 24.792 8.378 24.792 9.058C24.792 9.738 24.68 10.33 24.456 10.834C24.24 11.33 23.928 11.714 23.52 11.986C23.112 12.258 22.632 12.394 22.08 12.394ZM21.876 11.29C22.364 11.29 22.752 11.094 23.04 10.702C23.328 10.302 23.472 9.754 23.472 9.058C23.472 8.362 23.328 7.818 23.04 7.426C22.752 7.026 22.368 6.826 21.888 6.826C21.528 6.826 21.22 6.914 20.964 7.09C20.708 7.266 20.512 7.522 20.376 7.858C20.24 8.186 20.172 8.586 20.172 9.058C20.172 9.514 20.24 9.91 20.376 10.246C20.512 10.582 20.708 10.842 20.964 11.026C21.22 11.202 21.524 11.29 21.876 11.29ZM25.9636 12.25V5.866H27.2356V12.25H25.9636ZM25.9396 4.942V3.67H27.2596V4.942H25.9396ZM28.9842 12.25V5.866H30.1482L30.1962 7.558L30.0882 7.522C30.1762 6.946 30.3522 6.526 30.6162 6.262C30.8882 5.998 31.2522 5.866 31.7082 5.866H32.3202V7.006H31.7082C31.3882 7.006 31.1202 7.058 30.9042 7.162C30.6882 7.266 30.5242 7.426 30.4122 7.642C30.3082 7.858 30.2562 8.138 30.2562 8.482V12.25H28.9842ZM36.427 12.394C35.987 12.394 35.595 12.298 35.251 12.106C34.915 11.906 34.655 11.634 34.471 11.29L34.435 12.25H33.247V3.73H34.519V6.766C34.687 6.486 34.935 6.242 35.263 6.034C35.599 5.826 35.987 5.722 36.427 5.722C36.979 5.722 37.459 5.858 37.867 6.13C38.275 6.402 38.587 6.79 38.803 7.294C39.027 7.79 39.139 8.378 39.139 9.058C39.139 9.738 39.027 10.33 38.803 10.834C38.587 11.33 38.275 11.714 37.867 11.986C37.459 12.258 36.979 12.394 36.427 12.394ZM36.223 11.29C36.711 11.29 37.099 11.094 37.387 10.702C37.675 10.302 37.819 9.754 37.819 9.058C37.819 8.362 37.675 7.818 37.387 7.426C37.099 7.026 36.715 6.826 36.235 6.826C35.875 6.826 35.567 6.914 35.311 7.09C35.055 7.266 34.859 7.522 34.723 7.858C34.587 8.186 34.519 8.586 34.519 9.058C34.519 9.514 34.587 9.91 34.723 10.246C34.859 10.582 35.055 10.842 35.311 11.026C35.567 11.202 35.871 11.29 36.223 11.29ZM42.2275 12.394C41.5635 12.394 41.0315 12.242 40.6315 11.938C40.2395 11.634 40.0435 11.206 40.0435 10.654C40.0435 10.102 40.2075 9.674 40.5355 9.37C40.8715 9.058 41.3875 8.834 42.0835 8.698L44.2795 8.278C44.2795 7.782 44.1635 7.414 43.9315 7.174C43.6995 6.926 43.3555 6.802 42.8995 6.802C42.4915 6.802 42.1715 6.894 41.9395 7.078C41.7075 7.254 41.5475 7.518 41.4595 7.87L40.1515 7.786C40.2715 7.146 40.5675 6.642 41.0395 6.274C41.5195 5.906 42.1395 5.722 42.8995 5.722C43.7635 5.722 44.4195 5.954 44.8675 6.418C45.3235 6.874 45.5515 7.518 45.5515 8.35V10.834C45.5515 10.986 45.5755 11.094 45.6235 11.158C45.6795 11.214 45.7675 11.242 45.8875 11.242H46.1155V12.25C46.0755 12.258 46.0115 12.266 45.9235 12.274C45.8355 12.282 45.7435 12.286 45.6475 12.286C45.3755 12.286 45.1395 12.242 44.9395 12.154C44.7475 12.066 44.6035 11.922 44.5075 11.722C44.4115 11.514 44.3635 11.238 44.3635 10.894L44.4955 10.954C44.4315 11.234 44.2915 11.482 44.0755 11.698C43.8675 11.914 43.5995 12.086 43.2715 12.214C42.9515 12.334 42.6035 12.394 42.2275 12.394ZM42.4315 11.386C42.8155 11.386 43.1435 11.314 43.4155 11.17C43.6875 11.018 43.8995 10.81 44.0515 10.546C44.2035 10.282 44.2795 9.982 44.2795 9.646V9.238L42.4075 9.598C42.0235 9.67 41.7515 9.786 41.5915 9.946C41.4395 10.098 41.3635 10.294 41.3635 10.534C41.3635 10.806 41.4555 11.018 41.6395 11.17C41.8315 11.314 42.0955 11.386 42.4315 11.386ZM47.0695 12.25V5.866H48.2335L48.2815 7.57L48.1255 7.486C48.1975 7.07 48.3335 6.734 48.5335 6.478C48.7335 6.222 48.9775 6.034 49.2655 5.914C49.5535 5.786 49.8655 5.722 50.2015 5.722C50.6815 5.722 51.0775 5.83 51.3895 6.046C51.7095 6.254 51.9495 6.542 52.1095 6.91C52.2775 7.27 52.3615 7.682 52.3615 8.146V12.25H51.0895V8.53C51.0895 8.154 51.0495 7.838 50.9695 7.582C50.8895 7.326 50.7575 7.13 50.5735 6.994C50.3895 6.858 50.1495 6.79 49.8535 6.79C49.4055 6.79 49.0415 6.938 48.7615 7.234C48.4815 7.53 48.3415 7.962 48.3415 8.53V12.25H47.0695ZM53.9691 12.25V3.73H55.2411V9.022L58.1091 5.866H59.7171L57.2211 8.554L59.8131 12.25H58.3491L56.3691 9.346L55.2411 10.546V12.25H53.9691Z" fill="#1E1E1E"/>
</svg>
