<svg width="32" height="32" viewBox="0 0 32 32" fill="none" xmlns="http://www.w3.org/2000/svg">
  <rect width="32" height="32" rx="8" fill="black"/>
  <path fill-rule="evenodd" clip-rule="evenodd" d="M15.7356 7.5797C15.6305 7.4047 15.3694 7.4047 15.2641 7.5797L13.4575 10.5775C13.4334 10.6177 13.4206 10.6634 13.4205 10.7099C13.4204 10.7564 13.433 10.8022 13.457 10.8425L15.2628 13.8705C15.2867 13.9106 15.3212 13.9439 15.3627 13.9671C15.4042 13.9903 15.4512 14.0024 15.4991 14.0024C15.547 14.0024 15.594 13.9903 15.6355 13.9671C15.677 13.9439 15.7114 13.9106 15.7354 13.8705L17.5422 10.8415C17.5912 10.7592 17.591 10.658 17.5417 10.5762L15.7356 7.5797ZM11.0149 15.4197C10.9669 15.4198 10.9197 15.4075 10.8781 15.3842C10.8365 15.3609 10.802 15.3274 10.7781 15.2871C10.7542 15.2468 10.7417 15.201 10.7419 15.1545C10.7421 15.108 10.7549 15.0624 10.7791 15.0222L12.4542 12.2425C12.4783 12.2025 12.5128 12.1693 12.5543 12.1462C12.5958 12.1232 12.6428 12.1111 12.6907 12.1112C12.7385 12.1113 12.7855 12.1236 12.8269 12.1468C12.8683 12.17 12.9027 12.2034 12.9266 12.2435L14.5846 15.0235C14.6085 15.0637 14.6211 15.1092 14.6211 15.1556C14.6211 15.202 14.6084 15.2476 14.5845 15.2877C14.5605 15.3279 14.526 15.3612 14.4845 15.3844C14.443 15.4076 14.3959 15.4198 14.348 15.4197H11.0149ZM11.0056 16.5648C10.7949 16.5648 10.6637 16.786 10.7698 16.9623L12.4545 19.758C12.4785 19.798 12.5131 19.8312 12.5546 19.8543C12.5961 19.8773 12.6431 19.8894 12.6909 19.8893C12.7388 19.8892 12.7857 19.8769 12.8271 19.8537C12.8685 19.8305 12.9029 19.7971 12.9268 19.757L14.5941 16.9613C14.6181 16.9211 14.6308 16.8755 14.6308 16.8291C14.6308 16.7827 14.6182 16.7371 14.5943 16.697C14.5703 16.6568 14.5358 16.6234 14.4943 16.6002C14.4528 16.577 14.4058 16.5648 14.3578 16.5648H11.0056ZM16.6414 16.5648C16.4314 16.5648 16.2999 16.785 16.4051 16.9613L18.0729 19.7575C18.1775 19.9333 18.4396 19.9338 18.545 19.7585L20.2301 16.9623C20.2544 16.9221 20.2672 16.8765 20.2674 16.83C20.2676 16.7835 20.2551 16.7377 20.2311 16.6974C20.2072 16.6571 20.1727 16.6236 20.1312 16.6003C20.0896 16.577 20.0424 16.5647 19.9944 16.5648H16.6414ZM19.9851 15.4197C20.1955 15.4197 20.327 15.1985 20.2208 15.0222L18.5447 12.2412C18.5206 12.2013 18.4861 12.1681 18.4447 12.1451C18.4032 12.1221 18.3562 12.1101 18.3084 12.1102C18.2606 12.1103 18.2137 12.1225 18.1723 12.1457C18.1309 12.1689 18.0966 12.2022 18.0726 12.2422L16.4138 15.0235C16.3899 15.0637 16.3773 15.1092 16.3773 15.1556C16.3774 15.202 16.39 15.2476 16.414 15.2877C16.4379 15.3279 16.4724 15.3612 16.5139 15.3844C16.5554 15.4076 16.6025 15.4198 16.6504 15.4197H19.9851ZM15.7354 24.4203C15.6303 24.5953 15.3692 24.5953 15.2638 24.4203L13.4575 21.4228C13.4334 21.3826 13.4206 21.3369 13.4205 21.2903C13.4204 21.2438 13.433 21.1981 13.457 21.1578L15.263 18.1295C15.287 18.0894 15.3215 18.0561 15.3629 18.0329C15.4044 18.0097 15.4515 17.9976 15.4993 17.9976C15.5472 17.9976 15.5943 18.0097 15.6357 18.0329C15.6772 18.0561 15.7117 18.0894 15.7356 18.1295L17.5422 21.158C17.5912 21.2403 17.5907 21.3415 17.5414 21.4233L15.7354 24.4203ZM14.5174 6.54619C14.9565 5.81794 16.0435 5.81794 16.4823 6.54619L21.845 15.445C22.0517 15.7877 22.0517 16.2118 21.845 16.5545L16.4823 25.4538C16.0435 26.1821 14.9565 26.1821 14.5174 25.4538L9.15493 16.555C9.05346 16.3866 9 16.1952 9 16.0002C9 15.8053 9.05346 15.6139 9.15493 15.4455L14.5174 6.54619Z" fill="white"/>
</svg>
