<svg width="53" height="16" viewBox="0 0 53 16" fill="none" xmlns="http://www.w3.org/2000/svg">
<path d="M7.60598 0.690513V4.87092C7.60598 4.87714 7.60598 4.88336 7.60598 4.88958C7.59973 5.18196 7.40599 5.43079 7.1435 5.52411L2.9812 7.24106C2.93746 7.25972 2.88746 7.27838 2.83121 7.2846C2.83121 7.2846 2.83121 7.2846 2.82496 7.2846C2.81246 7.2846 2.80621 7.29082 2.79371 7.29082C2.78746 7.29082 2.78746 7.29082 2.78121 7.29082C2.77496 7.29082 2.76871 7.29082 2.75621 7.29082C2.74996 7.29082 2.74371 7.29082 2.73746 7.29082C2.73122 7.29082 2.72497 7.29082 2.71872 7.29082C2.71247 7.29082 2.70622 7.29082 2.69997 7.29082C2.69372 7.29082 2.69372 7.29082 2.68747 7.29082C2.68122 7.29082 2.67497 7.29082 2.66872 7.29082C2.66247 7.29082 2.65622 7.29082 2.64997 7.29082C2.48748 7.27838 2.33748 7.21617 2.22499 7.11664C2.21874 7.11042 2.21249 7.1042 2.19999 7.09798C2.19374 7.09176 2.18749 7.08554 2.18124 7.0731C2.0875 6.97356 2.025 6.84292 2.00625 6.69985V6.69362C2.00625 6.6874 2.00625 6.67496 2 6.66874C2 6.66252 2 6.66252 2 6.6563C2 6.65008 2 6.64386 2 6.63764C2 6.63142 2 6.6252 2 6.61897C2 6.61275 2 6.61275 2 6.60653V2.42613C2 2.41991 2 2.41369 2 2.40747C2.00625 2.10886 2.19999 1.86003 2.46248 1.76672L6.62478 0.0497667C6.66853 0.0311042 6.71852 0.0124417 6.77477 0.00622084C6.77477 0.00622084 6.77477 0.00622084 6.78102 0.00622084C6.79352 0.00622084 6.79977 0 6.81227 0C6.81852 0 6.81852 0 6.82477 0C6.83102 0 6.83727 0 6.84977 0C6.85602 0 6.86227 0 6.86852 0C6.87477 0 6.88102 0 6.88727 0C6.89352 0 6.89977 0 6.90602 0C6.91227 0 6.91227 0 6.91852 0C6.92476 0 6.93101 0 6.93726 0C6.94351 0 6.94976 0 6.95601 0C7.11851 0.0124417 7.2685 0.0746501 7.38099 0.174184C7.38724 0.180404 7.39349 0.186625 7.40599 0.192846C7.41224 0.199067 7.41849 0.205288 7.42474 0.217729C7.51849 0.317263 7.58098 0.447901 7.59973 0.59098V0.597201C7.59973 0.603421 7.59973 0.615863 7.60598 0.622084C7.60598 0.628305 7.60598 0.628305 7.60598 0.634526C7.60598 0.640747 7.60598 0.646967 7.60598 0.653188C7.60598 0.659409 7.60598 0.66563 7.60598 0.671851C7.60598 0.684292 7.60598 0.684292 7.60598 0.690513ZM7.60598 11.1104C7.59973 10.818 7.40599 10.5692 7.1435 10.4759L2.9812 8.75894C2.93746 8.74028 2.88746 8.72162 2.83121 8.7154C2.83121 8.7154 2.83121 8.7154 2.82496 8.7154C2.81246 8.7154 2.80621 8.70918 2.79371 8.70918C2.78746 8.70918 2.78746 8.70918 2.78121 8.70918C2.77496 8.70918 2.76871 8.70918 2.75621 8.70918C2.74996 8.70918 2.74371 8.70918 2.73746 8.70918C2.73122 8.70918 2.72497 8.70918 2.71872 8.70918C2.71247 8.70918 2.70622 8.70918 2.69997 8.70918C2.69372 8.70918 2.69372 8.70918 2.68747 8.70918C2.68122 8.70918 2.67497 8.70918 2.66872 8.70918C2.66247 8.70918 2.65622 8.70918 2.64997 8.70918C2.48748 8.72162 2.33748 8.78383 2.22499 8.88336C2.21874 8.88958 2.21249 8.8958 2.19999 8.90202C2.19374 8.90824 2.18749 8.91446 2.18124 8.92691C2.0875 9.02644 2.025 9.15708 2.00625 9.30016V9.30638C2.00625 9.3126 2.00625 9.32504 2 9.33126C2 9.33748 2 9.33748 2 9.3437C2 9.34992 2 9.35614 2 9.36236C2 9.36859 2 9.37481 2 9.38103C2 9.38725 2 9.38725 2 9.39347V13.5739C2 13.5801 2 13.5863 2 13.5925C2.00625 13.8849 2.19999 14.1337 2.46248 14.2271L6.62478 15.9502C6.66853 15.9689 6.71852 15.9876 6.77477 15.9938C6.77477 15.9938 6.77477 15.9938 6.78102 15.9938C6.79352 15.9938 6.79977 16 6.81227 16C6.81852 16 6.81852 16 6.82477 16C6.83102 16 6.83727 16 6.84977 16C6.85602 16 6.86227 16 6.86852 16C6.87477 16 6.88102 16 6.88727 16C6.89352 16 6.89977 16 6.90602 16C6.91227 16 6.91227 16 6.91852 16C6.92476 16 6.93101 16 6.93726 16C6.94351 16 6.94976 16 6.95601 16C7.11851 15.9876 7.2685 15.9254 7.38099 15.8258C7.38724 15.8196 7.39349 15.8134 7.40599 15.8072C7.41224 15.8009 7.41849 15.7947 7.42474 15.7823C7.51849 15.6827 7.58098 15.5521 7.59973 15.409V15.4028C7.59973 15.3966 7.59973 15.3841 7.60598 15.3779C7.60598 15.3717 7.60598 15.3717 7.60598 15.3655C7.60598 15.3593 7.60598 15.353 7.60598 15.3468C7.60598 15.3406 7.60598 15.3344 7.60598 15.3281C7.60598 15.3219 7.60598 15.3219 7.60598 15.3157V11.1291C7.60598 11.1229 7.60598 11.1166 7.60598 11.1104Z" fill="#09A6E0"/>
<path d="M17.5745 6.23647C17.1557 5.95653 16.6745 5.81967 16.1308 5.81967C15.8246 5.81967 15.5496 5.86322 15.2996 5.95031C15.0496 6.0374 14.8371 6.16804 14.6496 6.32978C14.4621 6.49152 14.3309 6.68437 14.2059 6.9021H14.1809V3.3811H12.606V12.4386H14.1371V11.4806H14.1621C14.2871 11.7108 14.4434 11.9099 14.6309 12.0778C14.8184 12.2458 15.0371 12.3764 15.2871 12.4698C15.5371 12.5631 15.8121 12.6066 16.112 12.6066C16.6683 12.6066 17.1557 12.4698 17.5745 12.1898C17.9932 11.9099 18.3182 11.518 18.5557 11.0079C18.7869 10.504 18.9057 9.86322 18.9057 9.17893C18.9057 8.50085 18.7869 7.90987 18.5494 7.40599C18.3182 6.90832 17.9932 6.51641 17.5745 6.23647ZM17.137 10.336C17.0057 10.647 16.8183 10.8897 16.587 11.0576C16.3495 11.2256 16.0683 11.3065 15.7371 11.3065C15.4058 11.3065 15.1183 11.2194 14.8683 11.0452C14.6184 10.871 14.4309 10.6284 14.2996 10.3111C14.1684 10.0001 14.0996 9.63305 14.0996 9.21003C14.0996 8.78701 14.1684 8.41998 14.2996 8.10272C14.4309 7.79168 14.6246 7.54907 14.8683 7.37488C15.1121 7.2007 15.4058 7.11983 15.7371 7.11983C16.062 7.11983 16.3495 7.2007 16.587 7.36866C16.8245 7.53662 17.0057 7.77302 17.137 8.08406C17.2682 8.3951 17.337 8.76835 17.337 9.21003C17.3307 9.65171 17.2682 10.025 17.137 10.336ZM24.1992 6.24891C23.7179 5.96275 23.1492 5.81967 22.4992 5.81967C21.8555 5.81967 21.293 5.96275 20.8056 6.24891C20.3181 6.53507 19.9369 6.9332 19.6681 7.44331C19.3994 7.95342 19.2619 8.5444 19.2619 9.22247C19.2619 9.89432 19.3994 10.4853 19.6681 10.9954C19.9369 11.5055 20.3181 11.9037 20.8056 12.1836C21.293 12.4698 21.8618 12.6128 22.4992 12.6128C23.1492 12.6128 23.7179 12.4698 24.1992 12.1836C24.6804 11.8974 25.0616 11.5055 25.3303 10.9954C25.5991 10.4853 25.7366 9.89432 25.7366 9.22247C25.7366 8.55062 25.5991 7.95342 25.3303 7.44331C25.0616 6.9332 24.6804 6.53507 24.1992 6.24891ZM23.9367 10.3173C23.8054 10.6284 23.6179 10.871 23.3742 11.0452C23.1305 11.2194 22.8367 11.3065 22.493 11.3065C22.1493 11.3065 21.8618 11.2194 21.618 11.0452C21.3743 10.871 21.1868 10.6284 21.0556 10.3173C20.9243 10.0063 20.8556 9.63927 20.8556 9.21625C20.8556 8.79323 20.9181 8.42621 21.0556 8.11516C21.1868 7.80412 21.3743 7.55529 21.6243 7.3811C21.868 7.20692 22.1618 7.11983 22.4992 7.11983C22.843 7.11983 23.1367 7.20692 23.3804 7.3811C23.6242 7.55529 23.8117 7.7979 23.9429 8.11516C24.0742 8.42621 24.1429 8.79323 24.1429 9.21625C24.1367 9.63927 24.0679 10.0063 23.9367 10.3173ZM26.2616 3.3811H27.8365V12.4386H26.2616V3.3811ZM31.88 8.71858L34.6612 12.4386H32.8112L30.6988 9.65171L30.1114 10.2614V12.4386H28.5364V3.3811H30.1114V8.53818H30.1489L32.655 5.90676H34.5049L31.88 8.71858ZM39.4734 6.89588H39.4422C39.3172 6.67815 39.1359 6.49152 38.9485 6.32978C38.761 6.16804 38.5422 6.04362 38.2922 5.95653C38.0422 5.86944 37.761 5.81967 37.461 5.81967C36.9173 5.81967 36.4298 5.96275 36.0111 6.24269C35.5924 6.52263 35.2611 6.92076 35.0236 7.42465C34.7861 7.93476 34.6674 8.52574 34.6674 9.21625C34.6674 9.90676 34.7861 10.4977 35.0236 11.0079C35.2611 11.518 35.5861 11.9099 36.0048 12.196C36.4236 12.476 36.911 12.6191 37.4673 12.6191C37.7798 12.6191 38.0547 12.5755 38.2985 12.4822C38.5422 12.3889 38.761 12.2582 38.9547 12.0903C39.1422 11.9223 39.3297 11.7232 39.4547 11.4931H39.4859V12.4449H40.9734V5.91299H39.4859V6.89588H39.4734ZM39.2734 10.3236C39.1422 10.6408 38.9485 10.8834 38.7047 11.0576C38.461 11.2318 38.1672 11.3189 37.836 11.3189C37.511 11.3189 37.2298 11.2318 36.9923 11.0638C36.7548 10.8959 36.5673 10.6533 36.4361 10.3422C36.3048 10.0312 36.2361 9.65171 36.2361 9.21003C36.2361 8.76835 36.3048 8.38888 36.4361 8.07784C36.5673 7.7668 36.7548 7.52418 36.9923 7.35622C37.2298 7.18826 37.511 7.10739 37.836 7.10739C38.1735 7.10739 38.461 7.19448 38.711 7.36866C38.9609 7.54285 39.1484 7.78546 39.2797 8.0965C39.4109 8.40754 39.4797 8.78079 39.4797 9.21003C39.4734 9.63305 39.4047 10.0063 39.2734 10.3236ZM45.0732 5.82589C45.1669 5.83211 45.2731 5.83834 45.3356 5.84456V7.26291C45.2794 7.25047 45.1482 7.23802 45.0044 7.22558C44.8607 7.21314 44.7232 7.20692 44.5732 7.20692C44.3169 7.20692 44.0857 7.26291 43.8795 7.37488C43.6732 7.48686 43.5107 7.65482 43.392 7.87877C43.2732 8.10272 43.2295 8.37644 43.2295 8.70614V12.4324H41.6546V5.90054H43.142V6.96431H43.1732C43.292 6.59106 43.4982 6.3049 43.767 6.11205C44.0295 5.91299 44.3732 5.81967 44.7857 5.81967C44.8857 5.81967 44.9857 5.81967 45.0732 5.82589ZM50.0604 12.4262C49.9354 12.4386 49.7854 12.4449 49.6104 12.4511C49.4354 12.4573 49.2605 12.4573 49.0917 12.4573C48.423 12.4573 47.923 12.3204 47.598 12.0405C47.2731 11.7606 47.0918 11.3438 47.0918 10.7839V7.12605H46.0419V5.90676H47.0918V4.25202H48.6667V5.90676H49.9792V7.12605H48.6667V10.5848C48.6667 10.815 48.7167 10.9767 48.8105 11.0701C48.9105 11.1634 49.0855 11.2069 49.3354 11.2069C49.4292 11.2069 49.5417 11.2069 49.6729 11.2007C49.8042 11.1945 49.9042 11.1945 49.9917 11.1945L50.0604 12.4262Z" fill="#1C3664"/>
</svg>
