<svg width="20" height="20" viewBox="0 0 20 20" fill="none" xmlns="http://www.w3.org/2000/svg">
  <path fill-rule="evenodd" clip-rule="evenodd" d="M18.3331 10C18.3331 13.1426 18.3337 14.7141 17.3575 15.6904C16.3812 16.6667 14.8097 16.667 11.6671 16.667H8.33312C5.191 16.667 3.61995 16.6664 2.64367 15.6904C1.66735 14.7141 1.6671 13.1427 1.6671 10C1.6671 9.63172 1.66651 9.2847 1.66808 8.95801H18.3321C18.3337 9.2847 18.3331 9.63172 18.3331 10ZM5.00011 12.708C4.65509 12.7081 4.37529 12.988 4.37511 13.333C4.37511 13.6781 4.65498 13.9579 5.00011 13.958H8.33312C8.6783 13.958 8.95812 13.6782 8.95812 13.333C8.95794 12.988 8.67819 12.708 8.33312 12.708H5.00011ZM10.4171 12.708C10.072 12.708 9.79228 12.988 9.7921 13.333C9.7921 13.6782 10.0719 13.958 10.4171 13.958H11.6671C12.0122 13.9579 12.2921 13.6781 12.2921 13.333C12.2919 12.9881 12.0121 12.7081 11.6671 12.708H10.4171ZM11.6671 3.33301C14.8097 3.33301 16.3812 3.33328 17.3575 4.30957C18.0604 5.01247 18.2575 6.02396 18.3126 7.70801H1.68859C1.74371 6.02389 1.94076 5.01247 2.64367 4.30957C3.61995 3.33358 5.191 3.33301 8.33312 3.33301H11.6671Z" fill="#FACC15"/>
</svg>
