<svg width="34" height="14" viewBox="0 0 34 14" fill="none" xmlns="http://www.w3.org/2000/svg">
<path fill-rule="evenodd" clip-rule="evenodd" d="M30.5957 8.99326H30.6201L32.6045 4.01182H34L29.7109 14.0001H28.3877L29.9824 10.506L27.168 4.01182H28.5635L30.5957 8.99326ZM23.8838 3.78525C24.8324 3.78525 25.5818 4.04428 26.1318 4.55381C26.6817 5.06324 26.953 5.77453 26.9531 6.67197V10.9503H25.7256V9.98838H25.6699C25.1358 10.781 24.4337 11.1769 23.5488 11.1769C22.7998 11.1768 22.1623 10.9508 21.6602 10.4981C21.166 10.0777 20.8865 9.45483 20.9023 8.7999C20.9023 8.0801 21.1739 7.5137 21.708 7.08506C22.242 6.65656 22.959 6.44645 23.8516 6.44639C24.6168 6.44639 25.2392 6.59133 25.7334 6.86631V6.56748C25.7334 6.12266 25.5418 5.70141 25.207 5.41025C24.8643 5.10311 24.4259 4.93373 23.9717 4.93369C23.2542 4.93369 22.688 5.2409 22.2734 5.85557L21.1416 5.13584C21.7474 4.23812 22.6641 3.78526 23.8838 3.78525ZM17.8018 0.80869C18.6227 0.792619 19.4201 1.1083 20.002 1.69053C21.1655 2.79036 21.2372 4.64232 20.1455 5.83115L20.002 5.97666C19.4042 6.5508 18.6705 6.84181 17.8018 6.84189H15.6807V10.9513H14.3975V0.80869H17.8018ZM24.0518 7.49717C23.5336 7.49717 23.0949 7.62643 22.7441 7.87705C22.4014 8.12768 22.2257 8.44339 22.2256 8.82334C22.2256 9.16302 22.3853 9.47884 22.6484 9.67295C22.9355 9.8994 23.2867 10.0209 23.6455 10.0128C24.1874 10.0127 24.7053 9.79426 25.0879 9.40635C25.5104 9.00201 25.7255 8.52459 25.7256 7.97471C25.327 7.6513 24.7692 7.48909 24.0518 7.49717ZM15.6807 5.59678H17.834C18.3122 5.61289 18.7747 5.419 19.1016 5.07139C19.7713 4.36776 19.7552 3.23513 19.0615 2.55576C18.7347 2.23232 18.2963 2.05386 17.834 2.05381H15.6807V5.59678Z" fill="#3C4043"/>
<path d="M11.2497 5.95277C11.2497 5.55648 11.2178 5.16018 11.154 4.77197H5.74121V7.01226H8.84221C8.71466 7.73206 8.30013 8.37908 7.69428 8.78346V10.2392H9.54372C10.6279 9.22828 11.2497 7.73206 11.2497 5.95277Z" fill="#4285F4"/>
<path d="M5.74202 11.6465C7.28854 11.6465 8.5959 11.1289 9.54453 10.2392L7.69509 8.78344C7.17693 9.1393 6.51528 9.34149 5.74202 9.34149C4.24334 9.34149 2.97584 8.31436 2.52145 6.93945H0.616211V8.44376C1.58876 10.4091 3.57372 11.6465 5.74202 11.6465Z" fill="#34A853"/>
<path d="M2.52146 6.93936C2.28227 6.21955 2.28227 5.43505 2.52146 4.70716V3.21094H0.615913C-0.205304 4.85274 -0.205304 6.79378 0.615913 8.43558L2.52146 6.93936Z" fill="#FBBC04"/>
<path d="M5.74202 2.30534C6.56311 2.28917 7.35231 2.60458 7.94222 3.17881L9.58439 1.51275C8.54009 0.526051 7.16896 -0.0158234 5.74202 0.000351984C3.57372 0.000351984 1.58876 1.24585 0.616211 3.21116L2.52145 4.71547C2.97584 3.33248 4.24334 2.30534 5.74202 2.30534Z" fill="#EA4335"/>
</svg>
