<svg width="87" height="18" viewBox="0 0 87 18" fill="none" xmlns="http://www.w3.org/2000/svg">
<path d="M7.54236 4L3.41064 14H5.83253L9.96424 4H7.54236Z" fill="#FFD531"/>
<path d="M4.16494 4L0.0327148 14H2.4546L6.58631 4H4.16494Z" fill="#FFD531"/>
<path d="M3.20955 4H0V11.7687L3.20955 4Z" fill="#FFD531"/>
<path d="M6.78711 13.9999H9.99768V6.23071L6.78711 13.9999Z" fill="#FFD531"/>
<path d="M17.2876 9.73083L19.7562 6.55371H18.1311L15.8488 9.40845V6.55371H13.9385V13.9995H15.8488V11.0341L17.8586 13.9995H20.0663L17.2876 9.73083Z" fill="#272424"/>
<path d="M26.0961 14H28.3663L25.3643 6.55371H23.8503L20.6621 14H21.9649L22.7338 12.1012H25.3765L26.0961 14ZM24.9796 11.0838H23.1561L24.0985 8.73779L24.9796 11.0838Z" fill="#272424"/>
<path d="M32.9241 8.92411C32.9241 9.92934 32.1426 10.5624 31.262 10.5624H31.026V7.4975H31.262C32.1426 7.4975 32.9241 7.91889 32.9241 8.92411ZM32.242 6.55371H29.103V14H31.026V11.5179H32.242C33.7555 11.5179 35.0948 10.5873 35.0948 8.94899C35.0948 7.29849 33.7428 6.55371 32.242 6.55371Z" fill="#272424"/>
<path d="M35.9634 13.9992H37.8864V6.55396H35.9634V13.9992Z" fill="#272424"/>
<path d="M44.6958 6.55396H39.0015V7.57136H40.8996V13.9997H42.8226V7.57136H44.6958V6.55396Z" fill="#272424"/>
<path d="M49.6977 14H51.9678L48.9658 6.55371H47.4524L44.2642 14H45.567L46.3359 12.1012H48.9785L49.6977 14ZM48.5816 11.0838H46.7576L47.7006 8.73779L48.5816 11.0838Z" fill="#272424"/>
<path d="M54.6295 6.55396H52.7065V13.9997H57.6315V12.9818H54.6295V6.55396Z" fill="#272424"/>
<path d="M62.7936 9.87983C63.4386 9.61887 63.8477 9.14723 63.8477 8.31614C63.8477 6.77683 62.4581 6.55396 61.2304 6.55396H58.501V13.9992H61.6517C63.0042 13.9992 64.4679 13.3296 64.4679 11.8278C64.4679 10.7977 63.7609 10.0413 62.7936 9.87983ZM60.9325 13.0564H60.424V10.351H60.9325C61.5897 10.351 62.4459 10.7734 62.4459 11.6791C62.4459 12.5848 61.5897 13.0564 60.9325 13.0564ZM60.424 7.52161H60.5848C61.3045 7.52161 62.1358 7.64599 62.1358 8.42784C62.1358 9.19698 61.3045 9.38331 60.5848 9.38331H60.424V7.52161Z" fill="#272424"/>
<path d="M70.0224 14H72.2925L69.29 6.55371H67.7766L64.5889 14H65.8912L66.6601 12.1012H69.3027L70.0224 14ZM68.9058 11.0838H67.0818L68.0248 8.73779L68.9058 11.0838Z" fill="#272424"/>
<path d="M78.3533 11.1455L75.0163 6.55396H73.1558V13.9997H74.3342V8.73753L78.0685 13.9997H79.5317V6.55396H78.3533V11.1455Z" fill="#272424"/>
<path d="M84.1216 9.73083L86.5907 6.55371H84.9651L82.6828 9.40794V6.55371H80.7725V13.9995H82.6828V11.0341L84.6925 13.9995H86.9008L84.1216 9.73083Z" fill="#272424"/>
</svg>
