<svg width="24" height="18" viewBox="0 0 24 18" fill="none" xmlns="http://www.w3.org/2000/svg">
<rect width="24" height="18" rx="4" fill="#00AFCA"/>
<path d="M13.4916 9.9571C14.6123 9.9571 15.5207 9.06608 15.5207 7.96696C15.5207 6.86783 14.6123 5.97681 13.4916 5.97681C12.3709 5.97681 11.4624 6.86783 11.4624 7.96696C11.4624 9.06608 12.3709 9.9571 13.4916 9.9571Z" fill="#FFCC4D"/>
<path d="M13.4931 5.82665C13.6135 5.82527 13.6574 5.75094 13.6574 5.66272C13.6574 5.54463 13.4931 4.62354 13.4931 4.62354C13.4931 4.62354 13.3259 5.54463 13.3259 5.66272C13.3259 5.75094 13.3712 5.82665 13.4931 5.82665ZM13.4931 10.1182C13.3712 10.1188 13.3259 10.1932 13.3259 10.2814C13.3259 10.4002 13.4931 11.3088 13.4931 11.3088C13.4931 11.3088 13.6574 10.3995 13.6574 10.2814C13.6581 10.1939 13.6135 10.1182 13.4931 10.1182ZM12.9258 10.0341C12.8089 10.0049 12.7473 10.0654 12.7239 10.1508C12.6927 10.2647 12.6085 11.1969 12.6085 11.1969C12.6085 11.1969 13.0129 10.3488 13.044 10.2349C13.0681 10.1494 13.0433 10.0647 12.9258 10.0341ZM14.059 5.88848C14.1765 5.91904 14.2403 5.85791 14.2637 5.77317C14.2948 5.65855 14.3727 4.73815 14.3727 4.73815C14.3727 4.73815 13.9747 5.57381 13.9428 5.68912C13.9194 5.77386 13.9421 5.85791 14.059 5.88848ZM12.3995 9.81876C12.294 9.76111 12.2182 9.80348 12.1736 9.88058C12.1134 9.9827 11.7862 10.8614 11.7862 10.8614C11.7862 10.8614 12.4002 10.1452 12.4604 10.0431C12.5058 9.96602 12.505 9.8785 12.3995 9.81876ZM14.5873 6.10173C14.6929 6.16147 14.7708 6.1184 14.8154 6.04199C14.8763 5.93919 15.1943 5.07088 15.1943 5.07088C15.1943 5.07088 14.588 5.77734 14.5271 5.87945C14.4832 5.95586 14.4832 6.04269 14.5873 6.10173ZM11.9476 9.47908C11.8612 9.39642 11.777 9.41795 11.7132 9.48047C11.6282 9.56452 11.08 10.33 11.08 10.33C11.08 10.33 11.8627 9.79375 11.9476 9.71109C12.0114 9.64857 12.034 9.56244 11.9476 9.47908ZM15.042 6.4435C15.1284 6.52755 15.2141 6.50601 15.2779 6.4435C15.3636 6.36014 15.9005 5.6009 15.9005 5.6009C15.9005 5.6009 15.1292 6.13021 15.0442 6.21426C14.9804 6.27678 14.957 6.36014 15.042 6.4435ZM11.602 9.0352C11.5404 8.93379 11.4533 8.93379 11.3747 8.97755C11.2698 9.03659 10.5389 9.63676 10.5389 9.63676C10.5389 9.63676 11.4363 9.31862 11.5404 9.25957C11.619 9.21512 11.6629 9.13871 11.602 9.0352ZM15.3912 6.88946C15.4528 6.99296 15.5421 6.99365 15.6193 6.94989C15.7241 6.89015 16.443 6.29415 16.443 6.29415C16.443 6.29415 15.5584 6.60882 15.4535 6.66787C15.3756 6.71232 15.3317 6.78665 15.3912 6.88946ZM11.3846 8.51909C11.352 8.40516 11.267 8.38294 11.1799 8.40516C11.0637 8.43573 10.1989 8.83029 10.1989 8.83029C10.1989 8.83029 11.1494 8.7504 11.2656 8.71984C11.3527 8.69622 11.4157 8.6344 11.3846 8.51909ZM15.6101 7.40766C15.6426 7.52297 15.7276 7.54659 15.8148 7.52366C15.9316 7.4931 16.7837 7.09993 16.7837 7.09993C16.7837 7.09993 15.8459 7.17912 15.7283 7.20969C15.6419 7.23191 15.5789 7.29374 15.6101 7.40766ZM11.3102 7.96546C11.3088 7.84737 11.233 7.8043 11.1431 7.8043C11.0227 7.8043 10.0835 7.96546 10.0835 7.96546C10.0835 7.96546 11.0227 8.12939 11.1431 8.12939C11.233 8.12939 11.3102 8.08493 11.3102 7.96546ZM15.6858 7.96546C15.6866 8.08493 15.7623 8.12939 15.8523 8.12939C15.9734 8.12939 16.8998 7.96546 16.8998 7.96546C16.8998 7.96546 15.9727 7.8043 15.8523 7.8043C15.7623 7.8036 15.6858 7.84737 15.6858 7.96546ZM11.3846 7.41183C11.4143 7.29721 11.3527 7.23678 11.2656 7.21385C11.1494 7.18329 10.1989 7.10063 10.1989 7.10063C10.1989 7.10063 11.0637 7.49727 11.1799 7.52783C11.267 7.55075 11.3534 7.52714 11.3846 7.41183ZM15.6108 8.52256C15.5796 8.63787 15.6419 8.70039 15.7283 8.72331C15.8452 8.75387 16.7837 8.83029 16.7837 8.83029C16.7837 8.83029 15.9316 8.4392 15.814 8.40864C15.7276 8.38641 15.6419 8.40794 15.6108 8.52256ZM11.6027 6.89571C11.6615 6.7929 11.6183 6.71788 11.5397 6.67412C11.4356 6.61507 10.5396 6.29415 10.5396 6.29415C10.5396 6.29415 11.2698 6.8964 11.3739 6.95545C11.4526 6.9999 11.5418 6.99851 11.6027 6.89571ZM15.3926 9.04146C15.3317 9.14496 15.3756 9.22137 15.4535 9.26513C15.5577 9.32487 16.4437 9.63676 16.4437 9.63676C16.4437 9.63676 15.7234 9.04285 15.6193 8.98311C15.5414 8.93934 15.4528 8.93934 15.3926 9.04146ZM11.9491 6.45253C12.0333 6.36778 12.0114 6.28512 11.9476 6.2226C11.8619 6.13924 11.0814 5.60159 11.0814 5.60159C11.0814 5.60159 11.6282 6.36917 11.7125 6.45253C11.7762 6.51504 11.8634 6.53727 11.9491 6.45253ZM15.0442 9.48742C14.9585 9.57216 14.9804 9.65691 15.0442 9.71873C15.1292 9.80278 15.9033 10.3293 15.9033 10.3293C15.9033 10.3293 15.3636 9.57286 15.2779 9.48881C15.2141 9.42629 15.1292 9.40336 15.0442 9.48742ZM12.4023 6.11285C12.505 6.05241 12.5058 5.96697 12.4611 5.88987C12.4009 5.78775 11.789 5.07019 11.789 5.07019C11.789 5.07019 12.1134 5.9503 12.1736 6.05241C12.2182 6.12952 12.2968 6.17259 12.4023 6.11285ZM14.5902 9.82987C14.4853 9.88961 14.4839 9.97644 14.5285 10.0529C14.5895 10.1557 15.1971 10.8607 15.1971 10.8607C15.1971 10.8607 14.8763 9.99242 14.8161 9.88961C14.7708 9.8139 14.6943 9.77013 14.5902 9.82987ZM12.9279 5.89959C13.044 5.86764 13.0667 5.78428 13.044 5.69884C13.0129 5.58492 12.6106 4.73676 12.6106 4.73676C12.6106 4.73676 12.692 5.66897 12.7232 5.78289C12.7466 5.86833 12.8103 5.93016 12.9279 5.89959ZM14.0611 10.0445C13.9435 10.0765 13.9194 10.1598 13.9428 10.2453C13.974 10.3599 14.3749 11.1955 14.3749 11.1955C14.3749 11.1955 14.2941 10.2751 14.263 10.1612C14.2403 10.0758 14.1773 10.014 14.0611 10.0445Z" fill="#FFCC4D"/>
<path d="M15.4835 12.9214L15.4573 12.9325L15.4283 12.9366L15.4063 12.9408L15.3659 12.9325L15.3482 12.9255L15.3319 12.9179L15.3128 12.9061L15.2809 12.8838L15.2519 12.8609L15.2356 12.8498L15.2151 12.8415L15.2009 12.838H15.1804L15.1003 13.0012L15.084 13.0242L15.0685 13.0429L15.0522 13.0547L15.038 13.0665L15.0175 13.0742H14.9983L14.9806 13.0665L14.9558 13.0547L14.9488 13.0429L14.9403 13.0311L14.9318 13.0158L14.9233 12.9978L14.9119 12.9401L14.8886 12.9589L14.8666 12.986L14.8227 13.0513L14.7965 13.0853L14.7689 13.1117L14.754 13.1277L14.7349 13.1395L14.7157 13.1478L14.6924 13.1548H14.681L14.6605 13.1589L14.6414 13.1548L14.6265 13.1478L14.5812 13.0943L14.5302 13.0408L14.4955 13.0943L14.4551 13.1395L14.436 13.1582L14.4183 13.177L14.3991 13.1923L14.363 13.2117L14.3439 13.2159H14.3248L14.3085 13.2117L14.2929 13.2034L14.2816 13.1916L14.2667 13.1735C14.2568 13.1452 14.2462 13.1172 14.2348 13.0895L14.2306 13.07L14.2235 13.0554L14.215 13.0478H14.2065L14.1017 13.2159L14.0868 13.2305L14.0592 13.2423L13.9983 13.2569H13.9622L13.9345 13.2492L13.926 13.2451L13.9147 13.2333L13.9119 13.2263V13.211L13.926 13.0429L13.9147 13.0471L13.8842 13.0617C13.8564 13.0902 13.8292 13.1194 13.8028 13.1492L13.7681 13.1916L13.7249 13.227L13.6845 13.2569L13.6618 13.2694L13.6151 13.2763L13.596 13.2722L13.5875 13.2694L13.5797 13.261L13.5754 13.2492V13.2374L13.5797 13.1888L13.5917 13.1117L13.5839 13.0665L13.5676 13.0401L13.5443 13.0742L13.506 13.1235C13.4742 13.1575 13.4416 13.1909 13.4083 13.2235C13.3897 13.2356 13.3715 13.2484 13.3538 13.2617L13.3113 13.2763L13.3028 13.2722H13.2907L13.2822 13.2652L13.2794 13.261L13.2709 13.2492L13.2681 13.2374V13.2228L13.2638 13.2034L13.2681 13.0589C13.1972 13.1061 13.1257 13.152 13.0535 13.1957L13.0265 13.2076L12.9961 13.2228C12.967 13.2298 12.9387 13.2367 12.9104 13.2451H12.8821L12.8558 13.2416L12.8318 13.2333L12.8438 13.2027L12.8672 13.1492L12.8821 13.127L12.899 13.1041L12.9139 13.0811L12.9536 13.0429L12.9968 13.0131L13.0464 12.9818L13.0974 12.9589L13.1561 12.9401L13.2142 12.9255L13.3467 12.9026L13.4125 12.8943C13.608 12.8832 13.8042 12.8818 13.9997 12.8832L14.2143 12.8713L14.2809 12.8637L14.4041 12.8408L14.4636 12.8248L14.5188 12.8026L14.5698 12.7797C14.5968 12.7588 14.6244 12.738 14.6527 12.7185L14.6902 12.6755L14.6499 12.5997L14.6817 12.5956L14.7122 12.5886L14.7441 12.5733L14.7703 12.5539L14.7816 12.5469L14.7944 12.5351L14.8029 12.5199L14.8114 12.5087L14.8142 12.4935V12.4671L14.8057 12.4518L14.8723 12.44L14.9431 12.4323L15.0175 12.4282H15.0947C15.203 12.4323 15.3107 12.4386 15.4183 12.4469C15.5812 12.4664 15.7448 12.4817 15.9085 12.4969L16.0551 12.5046V12.5574L16.0522 12.581L16.0437 12.6032L16.0366 12.6261L16.0282 12.6449L16.0168 12.6602C16.0034 12.6755 15.9885 12.6907 15.9736 12.7053L15.9389 12.7276L15.9014 12.7428L15.8638 12.7512L15.8206 12.7588L15.7378 12.7512L15.6946 12.7394L15.657 12.7199L15.6167 12.7012L15.5862 12.6741L15.5557 12.6442V12.7095C15.5501 12.7519 15.543 12.7935 15.5366 12.8359L15.5217 12.8755L15.5132 12.8915L15.5019 12.9026L15.4934 12.9144L15.4835 12.9214ZM12.3544 12.5622L12.4429 12.6004C12.4606 12.5859 12.4788 12.572 12.4975 12.5588L12.5322 12.5407L12.5633 12.5212L12.6802 12.4754L12.7808 12.4296L12.8318 12.4108L12.9182 12.3656L12.9529 12.342C13.0407 12.2858 13.1292 12.2302 13.2178 12.1753L13.295 12.1218L13.3538 12.076C13.4118 12.0246 13.4685 11.9725 13.5252 11.9197L13.5485 11.9044L13.5754 11.8891C13.6077 11.8731 13.6403 11.8579 13.6732 11.8433L13.739 11.821C13.8708 11.7856 14.0046 11.7578 14.1392 11.737C14.2766 11.721 14.414 11.703 14.5514 11.6877L14.7342 11.6571C14.7795 11.6446 14.8248 11.6335 14.8709 11.6231L14.9176 11.5654L14.9927 11.4855L15.0437 11.4362L15.1003 11.3897L15.1669 11.3404L15.2441 11.2903L15.3617 11.2223C15.446 11.1806 15.5295 11.1389 15.6131 11.0958C15.7618 11.0278 15.9085 10.9555 16.0544 10.8819L16.1238 10.836L16.1429 10.7784L16.1705 10.7221L16.2052 10.6645L16.2952 10.5464C16.3362 10.5033 16.3759 10.4602 16.4156 10.4158C16.4637 10.3699 16.5133 10.3255 16.5636 10.2824L16.6387 10.222L16.6762 10.1949L16.7166 10.1685C16.7449 10.1525 16.7732 10.1372 16.8023 10.1226L16.8455 10.1032L16.8873 10.0886L16.9786 10.065L17.024 10.0622L17.0672 10.058L17.1125 10.0622L17.1557 10.0692L17.1529 10.115L17.1415 10.1602L17.1068 10.256L17.0778 10.3053L17.0431 10.3554L17.0006 10.4081L16.9496 10.4616L16.99 10.4575L17.0247 10.4498L17.0523 10.4415L17.0785 10.4304L17.1295 10.4151L17.2024 10.4075L17.2067 10.4345V10.4609L17.2024 10.4873L17.1954 10.5103L17.184 10.5332L17.1677 10.5561L17.1529 10.5742L17.1337 10.5936C17.0802 10.6442 17.0257 10.6938 16.9701 10.7423L17.0162 10.7464C17.0502 10.7569 17.0842 10.7673 17.1189 10.7763L17.1564 10.7846L17.1111 10.8194C17.0752 10.8429 17.0388 10.8659 17.002 10.8881L16.8774 10.9569L16.815 10.9951L16.7527 11.0375L16.6946 11.0833L16.7208 11.0868L16.757 11.1021L16.7725 11.1063L16.7874 11.1139L16.8002 11.1174L16.8115 11.1139L16.7343 11.1563C16.686 11.1785 16.6381 11.2014 16.5905 11.225L16.531 11.2598L16.5197 11.2716L16.5126 11.2834L16.5041 11.2945L16.5069 11.3098L16.5154 11.3216L16.5303 11.3327L16.5445 11.3452L16.5388 11.3598L16.5303 11.3723L16.5154 11.3834L16.5013 11.3952L16.4637 11.4133L16.4184 11.4327L16.3299 11.4633L16.2746 11.4904L16.3518 11.5661L16.3242 11.5925L16.298 11.612L16.2746 11.6238L16.247 11.6349L16.1932 11.6425H16.1167L16.1252 11.6773L16.1365 11.7113L16.1528 11.7884C16.1045 11.8252 16.0552 11.8607 16.0048 11.8947L15.9148 11.9516L15.815 12.0086L15.7555 12.0357L15.6974 12.0621C15.6318 12.0871 15.5654 12.11 15.4984 12.1309L15.3475 12.1621L15.2646 12.1739C15.3546 12.1767 15.4445 12.1781 15.5345 12.1774L15.7555 12.1545L15.8525 12.1357L15.9382 12.1128C15.9949 12.094 16.0501 12.0732 16.1054 12.0517L16.213 12.003L16.3192 11.9454L16.4191 11.8836L16.5253 11.8231L16.4616 11.7926L16.4007 11.7738L16.3717 11.7606C16.3497 11.7502 16.3277 11.7398 16.3051 11.7307L16.269 11.7113L16.2994 11.6891L16.337 11.6738L16.3773 11.6592C16.4241 11.6481 16.4715 11.6377 16.5183 11.6279C16.5792 11.6217 16.6401 11.614 16.701 11.6057L16.7782 11.5981L16.8377 11.5835L16.8533 11.5751L16.8646 11.5633L16.8618 11.5592L16.8533 11.5515L16.8419 11.5474L16.8271 11.5404L16.7839 11.5321L16.7286 11.5244L16.6748 11.5203L16.621 11.5126L16.5728 11.5008L16.5438 11.489L16.9241 11.4057L16.9907 11.3862C17.0197 11.3758 17.048 11.364 17.0764 11.3522L17.1139 11.3285L17.1302 11.314L17.126 11.3105L17.1189 11.3021L17.0828 11.2945L17.0332 11.2903H16.9737C16.9333 11.2876 16.8936 11.2848 16.8533 11.2834L16.8037 11.2751L16.7718 11.2674L16.8271 11.2452C16.9092 11.2202 16.9928 11.1973 17.0764 11.1757C17.1238 11.1597 17.172 11.1438 17.2202 11.1299L17.2938 11.0993L17.3285 11.0806L17.3604 11.0618L17.3717 11.05L17.3838 11.0347L17.3951 11.0236L17.3993 11.0118L17.3951 11L17.3838 10.9916L17.3717 10.9889H17.2641L17.2131 10.9916H17.1437L17.1231 10.9889L17.1097 10.9805L17.0927 10.9729C17.2343 10.8812 17.3774 10.7902 17.5212 10.7013L17.6331 10.6249C17.6632 10.6004 17.6928 10.5751 17.7216 10.5492L17.7563 10.511L17.7882 10.4727L17.8116 10.4311L17.8307 10.3894L17.842 10.3428V10.2935H17.8158L17.7882 10.2977L17.7273 10.3199C17.6733 10.3532 17.6185 10.3852 17.563 10.4158L17.5325 10.4352L17.4964 10.4498L17.4617 10.4616L17.4298 10.4693L17.3993 10.4734H17.3632L17.3328 10.4616L17.427 10.3929C17.5028 10.3297 17.5778 10.2657 17.6522 10.2018C17.7344 10.1248 17.8147 10.0458 17.893 9.96496L18.0049 9.84271C18.0382 9.79964 18.0722 9.75796 18.1069 9.71628C18.1345 9.67738 18.1621 9.63779 18.1883 9.59819L18.1968 9.58361L18.1997 9.5718L18.1968 9.55582L18.1926 9.54471L18.1883 9.5322L18.177 9.52456L18.165 9.51275L18.1536 9.50859L18.1388 9.50164L18.1218 9.49747H18.0913L18.0764 9.50164L18.0559 9.50442L18.0446 9.51692L18.0283 9.52873C17.949 9.60653 17.8703 9.68572 17.7931 9.7656L17.6989 9.85313C17.6371 9.906 17.5748 9.95833 17.512 10.0101C17.4824 10.0297 17.4524 10.0487 17.422 10.0671L17.3363 10.1094L17.3625 10.0865C17.3908 10.0601 17.4185 10.0337 17.4454 10.0066C17.5452 9.89411 17.6409 9.77741 17.7329 9.65932L17.9128 9.41133L17.961 9.32798L18.0092 9.25157L18.0481 9.1821L18.0786 9.11681L18.0977 9.06401L18.1019 9.04526V9.01469L18.0977 9.00289L18.0835 8.97996L18.075 8.97232L18.0623 8.96885L18.0403 8.95634L18.0113 8.9487H17.9582L17.9433 8.95287L17.932 8.95634L17.9157 8.96468L17.9043 8.97579L17.8725 9.00289C17.8375 9.04412 17.8038 9.08627 17.7712 9.12931C17.6933 9.24879 17.6111 9.36549 17.5261 9.4801L17.4277 9.59472L17.3781 9.64473L17.3243 9.69058L17.3937 9.56346L17.5028 9.33909L17.5736 9.17516L17.604 9.09111L17.6579 8.91883C17.6713 8.86326 17.6834 8.80769 17.694 8.75143C17.6989 8.69933 17.7032 8.64723 17.7067 8.59444L17.7011 8.55623L17.6982 8.52219L17.694 8.48677L17.6827 8.44231L17.6742 8.42981L17.655 8.41105L17.6288 8.39994L17.5998 8.3916H17.5736L17.5488 8.39577L17.5417 8.39994L17.5304 8.40272L17.5261 8.41105C17.456 8.62778 17.4029 8.84868 17.342 9.06749C17.3193 9.12862 17.2966 9.18974 17.2726 9.25087L17.2145 9.36132L17.1784 9.41064L17.2017 9.30089C17.2131 9.23698 17.223 9.17377 17.2322 9.10986L17.2485 8.95287L17.2527 8.88757C17.2506 8.85441 17.2478 8.82129 17.2442 8.78824L17.2372 8.75004L17.2258 8.71947L17.2095 8.69655L17.201 8.68891L17.1777 8.68127L17.1663 8.6771H17.1536L17.1422 8.68127L17.1104 8.68891L17.0799 8.70419C17.0558 8.82228 17.0268 8.93967 16.9942 9.05568C16.9478 9.202 16.8935 9.34577 16.8313 9.48636C16.7893 9.57275 16.7449 9.65799 16.6982 9.74198L16.6125 9.88716L16.5197 10.024C16.4574 10.1094 16.393 10.1933 16.3263 10.2755C16.2612 10.3477 16.1946 10.4186 16.1273 10.4894C16.0572 10.5568 15.9857 10.6235 15.9127 10.6888C15.8376 10.7499 15.7618 10.809 15.6846 10.8673C15.5905 10.9341 15.4941 10.9978 15.3957 11.0583L15.2243 11.157L14.9516 11.2799L14.6711 11.3786L14.4388 11.448L14.198 11.5008L14.0776 11.5203L13.8311 11.5508L13.7065 11.5585L13.6944 11.5626L13.6824 11.5661L13.659 11.5786L13.6328 11.5967C13.6023 11.6227 13.5723 11.6494 13.5429 11.6766L13.4805 11.7384L13.2546 11.9857L13.1689 12.0697L13.0683 12.1454L13.0287 12.1718L12.9897 12.1955L12.9047 12.2337C12.773 12.2865 12.6391 12.3344 12.5067 12.3865L12.472 12.4052L12.4408 12.4212L12.4181 12.4358L12.3749 12.4782L12.3629 12.4969L12.3544 12.5157L12.3516 12.5428V12.5622" fill="#FFCC4D"/>
<path d="M13.78 12.7336L13.8452 12.742L13.8771 12.7538L13.8842 12.7572V12.7614H13.8771L13.8686 12.7649L13.8062 12.7767H13.7567L13.5938 12.7649L13.1809 12.7572C13.0718 12.7586 12.9627 12.7614 12.8536 12.7649C12.7573 12.7718 12.6617 12.7795 12.5654 12.7878L12.491 12.7996L12.4251 12.8142C12.4096 12.8198 12.3947 12.8253 12.3791 12.8295L12.3593 12.8378L12.3437 12.8496L12.3508 12.8107L12.3678 12.7718L12.3132 12.7871L12.2665 12.81L12.2481 12.8218L12.2318 12.8371L12.2197 12.8552L12.2169 12.8746L12.2056 12.8482L12.1971 12.8246C12.195 12.8081 12.1922 12.7916 12.1886 12.7753C12.1928 12.7552 12.1971 12.735 12.1999 12.7149L12.2127 12.6954L12.2197 12.6801L12.236 12.6621L12.2672 12.6315L12.3097 12.6044L12.3579 12.578C12.3832 12.5926 12.4103 12.604 12.4386 12.6121C12.4665 12.6145 12.4945 12.6119 12.5215 12.6044C12.5647 12.6419 12.6766 12.6343 12.6922 12.5662C12.6982 12.5411 12.6982 12.5149 12.6922 12.4898L12.7389 12.4863L12.7934 12.478L12.9138 12.4474L12.9769 12.4356L13.0349 12.421L13.0895 12.4134L13.1355 12.4092L13.1164 12.4252L13.0151 12.5009L12.9769 12.5273L13.0265 12.5398L13.0697 12.5475L12.9776 12.6503L12.9535 12.6808L12.984 12.6926L13.0151 12.701L13.0505 12.7086H13.1206L13.1901 12.6933L13.2177 12.6774L13.2496 12.6933L13.2807 12.7051C13.3005 12.7107 13.3211 12.7163 13.3416 12.7204C13.3898 12.7253 13.438 12.7308 13.4868 12.735H13.78M13.4252 11.5736L13.3905 11.6423L13.3508 11.7306C13.3305 11.7665 13.3113 11.8031 13.2935 11.8403L13.2736 11.8598L13.2276 11.8216L13.1766 11.7868L13.1221 11.7597L13.0647 11.7375L12.9393 11.7062L12.8777 11.6951C12.8103 11.6875 12.7428 11.6812 12.6752 11.6764C12.5856 11.675 12.496 11.6708 12.4067 11.6639L12.2821 11.6493L12.2119 11.6375L12.1461 11.6229L12.0767 11.5993L12.0179 11.5694L11.9747 11.5416L11.8854 11.477C11.7551 11.3568 11.6262 11.2353 11.4924 11.1179L11.4152 11.0651L11.3797 11.0498L11.3429 11.0387L11.277 11.0241C11.2386 11.0106 11.1999 10.9979 11.1609 10.9859C11.1246 10.9688 11.088 10.9523 11.0511 10.9366C10.9869 10.8976 10.9247 10.8554 10.8648 10.8102L10.8259 10.7747L10.7487 10.699L10.6743 10.6191C10.5518 10.4726 10.4363 10.3211 10.3166 10.1725C10.2594 10.1129 10.2011 10.0543 10.1417 9.99673L10.0914 9.95158L10.0404 9.9099L9.92851 9.83002L9.91718 9.83349L9.90443 9.8453L9.89239 9.86058C9.88531 9.87795 9.87964 9.89601 9.87398 9.91407L9.86973 9.92935L9.8414 9.91685L9.81802 9.90504L9.78969 9.89323L9.76632 9.88559H9.71603L9.68841 9.89323L9.6615 9.90504C9.68274 9.93144 9.70328 9.95783 9.72312 9.98492L9.75782 10.0384L9.82086 10.1565L9.84352 10.2142L9.85202 10.2447L9.86052 10.2676L9.86406 10.294V10.3163H9.65441L9.68487 10.3621C9.70824 10.3934 9.73303 10.4239 9.75782 10.4538L9.88672 10.5802L9.92993 10.6143L9.96959 10.6414C9.93589 10.6448 9.90213 10.6476 9.86831 10.6497L9.76632 10.6608L9.80102 10.6921C9.83148 10.7129 9.86123 10.7344 9.89097 10.7567L9.94126 10.7907L9.99226 10.8213L10.0425 10.8484L10.0893 10.8636L10.1325 10.8748L10.1672 10.8824L10.1785 10.8866L10.187 10.8949L10.1899 10.8984V10.913L10.1785 10.9442L10.1757 10.9665L10.1707 10.9817V10.9928L10.1757 11.0123L10.1785 11.0276L10.187 11.0345L10.1984 11.0429L10.2132 11.0505L10.2331 11.0547L10.2727 11.07L10.2918 11.0769L10.3074 11.0887L10.311 11.0929V11.1005L10.3074 11.1047L10.2763 11.1269L10.2607 11.1422L10.2451 11.161V11.1769L10.2416 11.1922L10.2494 11.2332L10.3853 11.279L10.4165 11.286L10.4477 11.2985L10.471 11.3103L10.4909 11.3221L10.362 11.4214L10.3967 11.452L10.4399 11.4749L10.4944 11.5013C10.5334 11.5152 10.5723 11.5277 10.612 11.5402L10.6701 11.5513L10.7211 11.5631H10.7671L10.7239 11.5937L10.6694 11.6278L10.6113 11.659L10.5681 11.6896L10.607 11.716C10.7253 11.7757 10.8464 11.8313 10.9697 11.8806C11.185 11.9667 11.4052 12.0418 11.6269 12.1091C11.6765 12.1209 11.7254 12.1334 11.7742 12.1473L11.8366 12.1592L11.7112 12.1473C11.6333 12.1375 11.5556 12.1259 11.4782 12.1126L11.3691 12.0897L11.1545 12.0293L11.0539 11.9945C10.7848 11.8917 10.522 11.7736 10.2522 11.6736L10.272 11.6625L10.3266 11.643L10.3613 11.6354C10.4087 11.6215 10.4548 11.6062 10.5015 11.5895C10.4088 11.5758 10.3164 11.5595 10.2246 11.5409C10.177 11.5257 10.129 11.5116 10.0808 11.4985L10.0532 11.4867L10.0298 11.4749L10.0107 11.4624L9.99792 11.4513V11.4478L10.0022 11.4437L10.0142 11.4395L10.0255 11.4319L10.0567 11.4201L10.1927 11.3812L10.2713 11.3548C10.1587 11.3339 10.0454 11.3152 9.93205 11.2978L9.87752 11.2853L9.83431 11.2707L9.81873 11.2624L9.80386 11.2506L9.79111 11.2436L9.78332 11.2311L9.79536 11.2235L9.83006 11.2158C9.86618 11.2103 9.90301 11.204 9.93914 11.1971L10.0015 11.1894C10.0369 11.1797 10.0716 11.1693 10.1063 11.1582L10.1226 11.1471L10.1382 11.1346L10.0765 11.1116L10.0369 11.1047L9.99792 11.0963L9.81944 11.0734L9.77269 11.0623L9.72949 11.054L9.64379 11.0241L9.60413 11.0047L9.57226 10.9824L9.54109 10.9553L9.51772 10.9213L9.52622 10.9171L9.54109 10.913H9.56092L9.59209 10.9171L9.74011 10.9248L9.82652 10.9331H9.93489L9.96534 10.9289L9.98942 10.9213L10.005 10.913C9.93173 10.8837 9.859 10.8531 9.78686 10.8213C9.73911 10.7975 9.69094 10.7746 9.64237 10.7525L9.49505 10.6768L9.42494 10.6344C9.38175 10.6045 9.33901 10.5739 9.29674 10.5427L9.24221 10.4969L9.21812 10.4705L9.19404 10.4476L9.17917 10.4246L9.16288 10.3975L9.1473 10.3753L9.1388 10.3489L9.13242 10.2996H9.15863L9.18979 10.3031L9.22096 10.3156L9.25212 10.3267L9.31374 10.3649L9.38386 10.4031L9.41502 10.4225L9.44973 10.4406L9.48443 10.4559L9.51559 10.4677L9.5503 10.476L9.58146 10.4795H9.61688L9.64733 10.4677L9.55526 10.3982C9.47898 10.3361 9.40366 10.2729 9.32932 10.2086C9.20605 10.0935 9.08767 9.97344 8.97448 9.84877L8.9249 9.78417L8.87391 9.72304C8.84595 9.68383 8.81856 9.64423 8.79175 9.60426L8.78467 9.58898V9.56258L8.78821 9.55077L8.79175 9.53966L8.80379 9.53202L8.81512 9.52021L8.82787 9.51187L8.84275 9.50771L8.85833 9.50493H8.88949L8.90861 9.50771L8.92561 9.51187L8.94049 9.52368C9.02477 9.60565 9.10764 9.68831 9.18909 9.77236C9.27903 9.85711 9.37253 9.93908 9.46956 10.0169L9.5588 10.0731L9.60484 10.0968L9.64804 10.1113L9.61758 10.0926L9.53613 10.0127C9.43627 9.90018 9.34136 9.78348 9.24787 9.66539C9.2067 9.60992 9.16632 9.55388 9.12676 9.49728C9.09147 9.44196 9.05511 9.38731 9.01769 9.33335C8.98802 9.28559 8.95945 9.23718 8.93199 9.18817C8.91619 9.14851 8.89966 9.10915 8.88241 9.07008L8.87745 9.05132V9.02007L8.88241 9.00895L8.89728 8.98603L8.90578 8.97769L8.91782 8.97075L8.96811 8.95477H9.02264L9.03823 8.95824L9.04956 8.96241L9.06514 8.97075L9.10834 9.00895L9.20963 9.13538C9.28895 9.25485 9.37253 9.37156 9.45893 9.48617L9.55101 9.60079L9.602 9.65011L9.65654 9.69595C9.5945 9.58052 9.53499 9.46379 9.47806 9.34585C9.45396 9.29151 9.43058 9.23686 9.40794 9.18192L9.37678 9.09787C9.36032 9.03993 9.34213 8.98248 9.32224 8.92559L9.30312 8.84154L9.28895 8.7561L9.28045 8.67622L9.27691 8.6005L9.28045 8.5623L9.28541 8.52757L9.28895 8.49283L9.29674 8.4588L9.30453 8.44629L9.30878 8.43518L9.32011 8.42267L9.32791 8.41573L9.35482 8.40392L9.38244 8.39697H9.40936L9.43273 8.40114L9.44406 8.40392L9.45256 8.40809L9.45681 8.41642L9.46106 8.42754C9.52764 8.64079 9.58217 8.85752 9.63954 9.07355C9.66221 9.13399 9.68558 9.19373 9.71037 9.25277L9.73728 9.30973L9.76844 9.36322L9.80315 9.41671L9.78048 9.30556C9.77159 9.24212 9.7612 9.17889 9.74932 9.11593C9.74154 9.04219 9.73517 8.96831 9.7302 8.89434L9.73799 8.795L9.74578 8.7561L9.75782 8.72623L9.7734 8.70331L9.78119 8.69497L9.79253 8.68733L9.80386 8.68386H9.83927L9.87114 8.69497L9.9016 8.71026L9.95613 8.9506C9.97596 9.02354 9.99792 9.09648 10.022 9.16803C10.0617 9.27708 10.1049 9.38545 10.1509 9.49242L10.2054 9.60287L10.2834 9.74874L10.3683 9.89323L10.4625 10.0308L10.5631 10.1676L10.6573 10.2822C10.7225 10.3545 10.7883 10.426 10.8556 10.4962C10.9257 10.5636 10.9973 10.6296 11.0702 10.6942L11.1828 10.7865C11.2862 10.8657 11.3925 10.9408 11.5023 11.0116C11.588 11.0616 11.6751 11.1102 11.7629 11.1568L12.0306 11.2832C12.1666 11.336 12.304 11.3846 12.4428 11.4277C12.5788 11.4631 12.7169 11.4937 12.8558 11.5194C13.042 11.5486 13.2333 11.5659 13.4252 11.5736Z" fill="#FFCC4D"/>
<path d="M2.45872 16.3089C2.45872 16.3089 2.29086 16.4457 2.2342 16.377C2.14283 16.2658 2.51538 15.7108 2.51538 15.5149C2.51538 15.1947 2.29653 15.1058 2.02739 15.0606C1.84607 15.0301 1.55214 15.0738 1.55214 15.0738C1.60739 15.1468 1.64351 15.1697 1.737 15.1738C1.67258 15.2071 1.61886 15.2572 1.58184 15.3187C1.54481 15.3801 1.52595 15.4505 1.52735 15.5219C1.52735 15.7969 1.64351 15.9109 1.64351 16.2228C1.64351 16.3957 1.49902 16.6152 1.49902 16.6152C1.754 16.5902 1.88148 16.3589 1.80924 16.1727C1.82876 16.1692 1.84887 16.1703 1.86786 16.1759C1.88685 16.1816 1.90416 16.1917 1.91831 16.2054C1.93673 16.1547 1.90769 16.0942 1.86803 16.0435C1.8999 16.0276 1.92327 16.0373 1.97356 16.047C1.9686 15.9942 1.93602 15.9386 1.8574 15.8859C2.08688 15.9435 2.22783 15.7872 2.22783 15.6233C2.22783 15.4982 2.13929 15.4093 2.05218 15.4093C2.01918 15.4104 1.9871 15.4202 1.95939 15.4378C1.9431 15.4045 1.9516 15.3586 1.96789 15.3246C1.90486 15.3406 1.86449 15.3774 1.89353 15.4552C1.87192 15.4555 1.85063 15.4603 1.831 15.4691C1.81137 15.478 1.79383 15.4907 1.7795 15.5066C1.79304 15.5232 1.81047 15.5365 1.83031 15.5452C1.85015 15.5539 1.87183 15.5578 1.89353 15.5566C1.85811 15.6288 1.89777 15.6698 1.95514 15.7018C1.95514 15.7018 1.91831 15.5566 2.01251 15.5566C2.05501 15.5566 2.09326 15.5712 2.09326 15.6316C2.09326 15.6837 2.0458 15.7573 1.93673 15.7532C1.82695 15.7483 1.73842 15.6789 1.73842 15.5087C1.73842 15.3496 1.86803 15.2711 2.03872 15.2662C2.19312 15.2614 2.30928 15.3433 2.30928 15.4996C2.30928 15.7066 2.00331 16.1804 2.00331 16.3652C2.00331 16.5041 2.13008 16.5812 2.25474 16.5812C2.41622 16.5812 2.55221 16.4242 2.55221 16.4242L2.45872 16.3089ZM2.42331 12.5564C2.42331 12.2105 2.74061 12.032 2.98991 12.032C3.32563 12.032 3.50482 12.2293 3.50482 12.4863C3.50482 12.6335 3.4772 12.7252 3.4085 12.8649L2.63862 14.4327C2.61044 14.4985 2.59808 14.5698 2.6025 14.6411C2.6025 14.7814 2.74202 14.8967 2.88793 14.9002C3.02037 14.9036 3.16556 14.7786 3.16556 14.6362C3.16556 14.4632 3.07491 14.3868 2.98071 14.3868C2.86526 14.3868 2.81922 14.4327 2.81922 14.5125C2.81922 14.5688 2.84685 14.5924 2.8858 14.5924C2.98496 14.5924 2.95733 14.4618 2.95733 14.4618C2.97053 14.4645 2.98296 14.47 2.99375 14.478C3.00454 14.4859 3.01342 14.496 3.01977 14.5077C3.02612 14.5194 3.02978 14.5322 3.0305 14.5454C3.03121 14.5586 3.02896 14.5718 3.02391 14.5841C3.061 14.5917 3.09456 14.611 3.11953 14.639C3.09402 14.6656 3.06054 14.6836 3.02391 14.6904C3.04728 14.7654 3.01612 14.8022 2.94954 14.8182C2.96102 14.7929 2.96424 14.7648 2.95875 14.7376C2.85322 14.7668 2.69174 14.7209 2.69174 14.5417C2.69174 14.3639 2.8171 14.2145 3.05295 14.2514C2.99629 14.2264 2.96867 14.1729 2.963 14.1117C3.0055 14.1291 3.05295 14.1312 3.05295 14.1312C3.02533 14.084 2.98708 14.043 2.9885 13.9485C3.03241 13.9686 3.07278 14.0041 3.12873 13.9811C3.04091 13.8123 3.14857 13.5803 3.42337 13.5241C3.33008 13.6235 3.27696 13.7529 3.27393 13.8881C3.27393 14.291 3.38867 14.3576 3.38867 14.6369C3.38677 14.702 3.36923 14.7658 3.33748 14.823C3.30572 14.8802 3.26066 14.9292 3.20594 14.9661V14.9613C3.28526 14.9821 3.33696 15.0217 3.36671 15.0738C3.18327 15.1245 2.91626 15.1238 2.7739 15.069C2.70936 15.0598 2.64773 15.0366 2.59345 15.0012C2.53918 14.9657 2.49364 14.9189 2.46014 14.864C2.42551 14.7858 2.40765 14.7014 2.40765 14.616C2.40765 14.5307 2.42551 14.4463 2.46014 14.3681C2.56921 14.1451 3.08341 13.076 3.24347 12.7391C3.27878 12.6676 3.29741 12.5893 3.29801 12.5099C3.29801 12.305 3.10607 12.2327 2.997 12.2327C2.86597 12.2327 2.73282 12.3314 2.73282 12.4522C2.73282 12.53 2.77602 12.5759 2.83693 12.5759C2.98496 12.5759 2.97575 12.4529 2.946 12.3751C3.03737 12.4168 3.0912 12.4877 3.07632 12.5641C3.12873 12.571 3.17831 12.5953 3.22364 12.6454C3.18752 12.6912 3.14361 12.7245 3.07632 12.7252C3.10607 12.8433 3.02533 12.8933 2.946 12.9204C2.97079 12.8343 2.98708 12.7336 2.83693 12.7336C2.72715 12.7336 2.64074 12.7148 2.59046 12.6447C2.58691 12.7384 2.57771 13.1066 2.57771 13.1066C2.57204 13.2455 2.76681 13.2414 2.89076 13.2004C2.8433 13.3601 2.74769 13.447 2.52459 13.4247C2.55876 13.4376 2.58794 13.4607 2.60801 13.4908C2.62809 13.5208 2.63805 13.5563 2.63649 13.5921C2.63649 13.7227 2.52884 13.8665 2.45872 13.9096L2.42331 12.5564Z" fill="#FFCC4D"/>
<path d="M2.49314 12.5567C2.49314 12.2107 2.17584 12.0322 1.92653 12.0322C1.59081 12.0322 1.41162 12.2295 1.41162 12.4865C1.41162 12.6338 1.43924 12.7255 1.50794 12.8651L2.27783 14.4329C2.30576 14.4988 2.31788 14.5701 2.31324 14.6413C2.31324 14.7816 2.17371 14.8969 2.02852 14.9004C1.89536 14.9038 1.75088 14.7788 1.75088 14.6364C1.75088 14.4634 1.84154 14.387 1.93574 14.387C2.05118 14.387 2.09722 14.4329 2.09722 14.5128C2.09722 14.569 2.0696 14.5926 2.03064 14.5926C1.93149 14.5926 1.95911 14.4621 1.95911 14.4621C1.94591 14.4648 1.93348 14.4703 1.92269 14.4782C1.91191 14.4861 1.90302 14.4963 1.89667 14.5079C1.89032 14.5196 1.88666 14.5325 1.88595 14.5457C1.88523 14.5589 1.88748 14.5721 1.89253 14.5843C1.85544 14.592 1.82188 14.6112 1.79692 14.6392C1.82242 14.6658 1.85591 14.6838 1.89253 14.6906C1.86987 14.7656 1.90103 14.8024 1.96761 14.8177C1.95613 14.7924 1.95291 14.7643 1.9584 14.7371C2.06393 14.7663 2.22541 14.7205 2.22541 14.5412C2.22541 14.3634 2.10005 14.2141 1.86491 14.2509C1.92086 14.2259 1.94919 14.1724 1.95415 14.1113C1.92559 14.1222 1.8955 14.1287 1.86491 14.1307C1.89182 14.0835 1.93007 14.0425 1.92865 13.948C1.88474 13.9682 1.84508 14.0036 1.78842 13.9807C1.87624 13.8119 1.76859 13.5799 1.49378 13.5236C1.58707 13.6231 1.6402 13.7525 1.64322 13.8876C1.64322 14.2905 1.52919 14.3572 1.52919 14.6364C1.52919 14.7531 1.59081 14.8802 1.71192 14.9657V14.9608C1.67858 14.9675 1.64705 14.9809 1.61935 15.0003C1.59165 15.0197 1.56842 15.0446 1.55115 15.0733C1.73459 15.124 2.0009 15.1234 2.14396 15.0685C2.20849 15.0593 2.27013 15.0362 2.3244 15.0007C2.37868 14.9653 2.42422 14.9184 2.45772 14.8636C2.49234 14.7853 2.51021 14.7009 2.51021 14.6156C2.51021 14.5303 2.49234 14.4458 2.45772 14.3676C2.34865 14.1446 1.83445 13.0756 1.67439 12.7386C1.63908 12.6672 1.62045 12.5889 1.61985 12.5094C1.61985 12.3045 1.81179 12.2323 1.92086 12.2323C2.05189 12.2323 2.18504 12.3309 2.18504 12.4518C2.18504 12.5296 2.14184 12.5754 2.08093 12.5754C1.9329 12.5754 1.94211 12.4525 1.97115 12.3747C1.87978 12.4163 1.82595 12.4872 1.84083 12.5636C1.78326 12.5722 1.73086 12.6011 1.69351 12.6449C1.72963 12.6907 1.77354 12.7241 1.84083 12.7248C1.81108 12.8428 1.89182 12.8929 1.97115 12.92C1.94636 12.8338 1.93007 12.7331 2.08093 12.7331C2.19071 12.7331 2.27712 12.7143 2.3274 12.6442L2.34015 13.1061C2.34582 13.245 2.15034 13.2409 2.02639 13.1999C2.07314 13.359 2.16946 13.4458 2.39186 13.4236C2.35769 13.4365 2.32851 13.4596 2.30843 13.4896C2.28835 13.5196 2.27839 13.5551 2.27995 13.591C2.27995 13.7216 2.3869 13.8654 2.45772 13.9084L2.49314 12.5567ZM2.45843 16.3091C2.45843 16.3091 2.62629 16.446 2.68295 16.3772C2.77432 16.266 2.40177 15.711 2.40177 15.5151C2.40177 15.1949 2.62062 15.106 2.88976 15.0608C3.07108 15.0303 3.36572 15.074 3.36572 15.074C3.30976 15.147 3.27435 15.1699 3.18086 15.1741C3.24522 15.2074 3.2989 15.2575 3.33592 15.319C3.37293 15.3804 3.39183 15.4507 3.39051 15.5221C3.39051 15.7972 3.27435 15.9111 3.27435 16.223C3.27435 16.3959 3.41884 16.6154 3.41884 16.6154C3.16386 16.5904 3.03637 16.3591 3.10862 16.173C3.0891 16.1695 3.06902 16.1707 3.05005 16.1763C3.03108 16.182 3.01377 16.192 2.99954 16.2056C2.98113 16.1549 3.01088 16.0945 3.04983 16.0438C3.01796 16.0278 2.99459 16.0375 2.9443 16.0472C2.94926 15.9944 2.98113 15.9389 3.06046 15.8861C2.83098 15.9437 2.69003 15.7874 2.69003 15.6235C2.69003 15.4985 2.77857 15.4095 2.86568 15.4095C2.89401 15.4095 2.93509 15.4214 2.95847 15.438C2.97476 15.4047 2.96626 15.3588 2.94926 15.3248C3.013 15.3408 3.05266 15.3776 3.02433 15.4554C3.04593 15.4558 3.06721 15.4605 3.08683 15.4694C3.10646 15.4782 3.124 15.491 3.13836 15.5068C3.12482 15.5235 3.10739 15.5367 3.08755 15.5454C3.06771 15.5541 3.04603 15.558 3.02433 15.5568C3.05975 15.6291 3.02008 15.67 2.96272 15.702C2.96272 15.702 2.99954 15.5568 2.90535 15.5568C2.86285 15.5568 2.8246 15.5714 2.8246 15.6318C2.8246 15.6839 2.87206 15.7576 2.98113 15.7534C3.0902 15.7485 3.17873 15.6791 3.17873 15.5089C3.17873 15.3498 3.04912 15.2713 2.87843 15.2664C2.72403 15.2616 2.60788 15.3436 2.60788 15.4998C2.60788 15.7069 2.91384 16.1806 2.91384 16.3654C2.91384 16.5043 2.78707 16.5814 2.66241 16.5814C2.50093 16.5814 2.36494 16.4244 2.36494 16.4244L2.45843 16.3091ZM2.42302 6.4834C2.42302 6.13608 2.74032 5.95825 2.98963 5.95825C3.32535 5.95825 3.50454 6.15553 3.50454 6.41324C3.50454 6.55981 3.47691 6.6515 3.40821 6.79113L2.63833 8.35963C2.61011 8.4252 2.59775 8.49629 2.60221 8.56733C2.60221 8.70834 2.74174 8.82295 2.88764 8.82712C3.02008 8.8299 3.16528 8.70486 3.16528 8.56316C3.16528 8.39089 3.07462 8.31378 2.98042 8.31378C2.86497 8.31378 2.81894 8.36032 2.81894 8.44021C2.81894 8.49508 2.84656 8.5194 2.88551 8.5194C2.98467 8.5194 2.95705 8.3888 2.95705 8.3888C2.97013 8.39143 2.98247 8.39684 2.99319 8.40465C3.00391 8.41246 3.01275 8.42247 3.0191 8.434C3.02545 8.44552 3.02914 8.45827 3.02992 8.47134C3.0307 8.48442 3.02856 8.4975 3.02363 8.50967C3.06075 8.51765 3.09428 8.53713 3.11924 8.56524C3.09363 8.59188 3.06022 8.61008 3.02363 8.61734C3.047 8.69236 3.01583 8.72848 2.94926 8.74446C2.96078 8.71919 2.964 8.69103 2.95847 8.66388C2.85293 8.69306 2.69145 8.64721 2.69145 8.46799C2.69145 8.29086 2.81681 8.14151 3.05266 8.17833C2.996 8.15193 2.96838 8.09844 2.96272 8.0387C3.00521 8.05537 3.05266 8.05676 3.05266 8.05676C3.02504 8.00953 2.9868 7.96854 2.98821 7.87477C3.03212 7.89422 3.0725 7.93034 3.12845 7.90742C3.04062 7.73792 3.14828 7.50522 3.42309 7.45034C3.33002 7.54995 3.27693 7.67927 3.27364 7.81433C3.27364 8.21653 3.38838 8.28391 3.38838 8.56385C3.38838 8.68055 3.32676 8.80698 3.20565 8.89311V8.88825C3.28356 8.90909 3.33455 8.94729 3.36501 9.00009C3.18157 9.05149 2.91455 9.0501 2.77219 8.99522C2.70771 8.98592 2.64613 8.96271 2.59188 8.92728C2.53763 8.89185 2.49205 8.84507 2.45843 8.79031C2.42381 8.71228 2.40594 8.6281 2.40594 8.54301C2.40594 8.45792 2.42381 8.37374 2.45843 8.29572C2.5675 8.07205 3.0817 7.00299 3.24177 6.66609C3.27671 6.59447 3.29532 6.51625 3.29631 6.43686C3.29631 6.23125 3.10437 6.159 2.9953 6.159C2.86427 6.159 2.73111 6.25695 2.73111 6.37782C2.73111 6.45562 2.77432 6.50216 2.83523 6.50216C2.98325 6.50216 2.97405 6.37851 2.9443 6.3014C3.03567 6.34169 3.08949 6.41394 3.07462 6.49035C3.12703 6.49729 3.17661 6.52091 3.22194 6.57232C3.18582 6.61677 3.14191 6.65012 3.07462 6.6515C3.10437 6.77029 3.02363 6.8203 2.9443 6.84739C2.96909 6.76126 2.98538 6.66123 2.83523 6.66123C2.72545 6.66123 2.63904 6.64247 2.58875 6.57301C2.58521 6.66609 2.576 7.03495 2.576 7.03495C2.57034 7.17318 2.76511 7.16971 2.88906 7.12803C2.84302 7.2878 2.7474 7.37393 2.5243 7.3517C2.55853 7.36474 2.58773 7.38796 2.6078 7.41811C2.62787 7.44827 2.63781 7.48383 2.63621 7.51981C2.63621 7.6497 2.52855 7.79419 2.45843 7.83656L2.42302 6.4834Z" fill="#FFCC4D"/>
<path d="M2.49314 6.4834C2.49314 6.13608 2.17584 5.95825 1.92653 5.95825C1.59081 5.95825 1.41162 6.15553 1.41162 6.41324C1.41162 6.55981 1.43924 6.6515 1.50794 6.79113L2.27783 8.35963C2.30474 8.4145 2.31324 8.47633 2.31324 8.56733C2.31324 8.70834 2.17371 8.82295 2.02852 8.82712C1.89536 8.8299 1.75088 8.70486 1.75088 8.56316C1.75088 8.39089 1.84154 8.31378 1.93574 8.31378C2.05118 8.31378 2.09722 8.36032 2.09722 8.44021C2.09722 8.49508 2.0696 8.5194 2.03064 8.5194C1.93149 8.5194 1.95911 8.3888 1.95911 8.3888C1.94596 8.39132 1.93355 8.39666 1.92276 8.40444C1.91197 8.41222 1.90307 8.42225 1.8967 8.43381C1.89034 8.44537 1.88666 8.45816 1.88594 8.47128C1.88522 8.4844 1.88747 8.49751 1.89253 8.50967C1.8554 8.51765 1.82188 8.53713 1.79692 8.56524C1.82253 8.59188 1.85593 8.61008 1.89253 8.61734C1.86987 8.69236 1.90032 8.72848 1.9669 8.74446C1.95538 8.71919 1.95216 8.69103 1.95769 8.66388C2.06322 8.69306 2.22471 8.64721 2.22471 8.46799C2.22471 8.29086 2.09934 8.14151 1.8642 8.17833C1.92015 8.15193 1.94848 8.09844 1.95344 8.0387C1.91095 8.05537 1.8642 8.05676 1.8642 8.05676C1.89111 8.00953 1.92936 7.96854 1.92794 7.87477C1.88403 7.89422 1.84437 7.93034 1.78771 7.90742C1.87553 7.73792 1.76788 7.50522 1.49307 7.45034C1.58614 7.54995 1.63923 7.67927 1.64251 7.81433C1.64251 8.21653 1.52848 8.28391 1.52848 8.56385C1.52848 8.68055 1.5901 8.80698 1.71122 8.89311V8.88825C1.6326 8.90909 1.5809 8.94729 1.55186 9.00009C1.7353 9.05149 2.0016 9.0501 2.14467 8.99522C2.20916 8.98592 2.27074 8.96271 2.32499 8.92728C2.37924 8.89185 2.42481 8.84507 2.45843 8.79031C2.49306 8.71228 2.51093 8.6281 2.51093 8.54301C2.51093 8.45792 2.49306 8.37374 2.45843 8.29572C2.34936 8.07205 1.83516 7.00299 1.67509 6.66609C1.63984 6.59483 1.62121 6.51676 1.62056 6.43755C1.62056 6.23194 1.8125 6.1597 1.92157 6.1597C2.0526 6.1597 2.18575 6.25764 2.18575 6.37851C2.18575 6.45631 2.14255 6.50285 2.08164 6.50285C1.93361 6.50285 1.94282 6.3792 1.97186 6.3021C1.88049 6.34239 1.82666 6.41463 1.84154 6.49104C1.78371 6.49934 1.73115 6.52858 1.69422 6.57301C1.73034 6.61747 1.77425 6.65081 1.84154 6.6522C1.81179 6.77098 1.89253 6.821 1.97186 6.84809C1.94707 6.76195 1.93078 6.66192 2.08164 6.66192C2.19142 6.66192 2.27783 6.64317 2.32811 6.5737L2.34015 7.03425C2.34582 7.17249 2.15034 7.16901 2.02639 7.12733C2.07314 7.2871 2.16946 7.37324 2.39186 7.3517C2.35763 7.36474 2.32843 7.38796 2.30836 7.41811C2.28828 7.44827 2.27835 7.48383 2.27995 7.51981C2.27995 7.6497 2.3869 7.79419 2.45772 7.83656L2.49314 6.4834Z" fill="#FFCC4D"/>
<path d="M2.4932 5.44247C2.4932 5.7891 2.1759 5.96762 1.92659 5.96762C1.59087 5.96762 1.41168 5.77034 1.41168 5.51193C1.41168 5.36606 1.43931 5.27437 1.50801 5.13405L2.27789 3.56555C2.30582 3.49991 2.31793 3.42883 2.3133 3.35785C2.3133 3.21753 2.17377 3.10222 2.02858 3.09875C1.89543 3.09597 1.75094 3.22031 1.75094 3.36271C1.75094 3.53568 1.8416 3.61209 1.9358 3.61209C2.05125 3.61209 2.09728 3.56555 2.09728 3.48566C2.09728 3.43009 2.06966 3.40647 2.03071 3.40647C1.93155 3.40647 1.95917 3.53707 1.95917 3.53707C1.946 3.53446 1.93358 3.52904 1.92279 3.52118C1.912 3.51333 1.90311 3.50324 1.89675 3.49163C1.8904 3.48002 1.88673 3.46718 1.88601 3.45402C1.88529 3.44087 1.88754 3.42771 1.89259 3.41551C1.85531 3.40835 1.8216 3.38901 1.79698 3.36063C1.82283 3.33442 1.85616 3.3165 1.89259 3.30922C1.86993 3.2342 1.90109 3.19808 1.96767 3.18211C1.95615 3.20738 1.95293 3.23554 1.95846 3.26268C2.06399 3.23351 2.22548 3.28074 2.22548 3.45857C2.22548 3.63571 2.10012 3.78505 1.86497 3.74824C1.92092 3.77463 1.94926 3.82812 1.95421 3.88786C1.92548 3.87777 1.89543 3.87169 1.86497 3.8698C1.89189 3.91704 1.93013 3.95802 1.92872 4.0518C1.8848 4.03235 1.84514 3.99623 1.78848 4.01915C1.8763 4.18864 1.76865 4.42135 1.49384 4.47692C1.5869 4.37703 1.63998 4.2475 1.64329 4.11223C1.64329 3.71073 1.52926 3.64265 1.52926 3.36341C1.52926 3.24671 1.59087 3.12028 1.71199 3.03415V3.03901C1.67873 3.03213 1.64731 3.0185 1.61974 2.999C1.59217 2.9795 1.56907 2.95456 1.55192 2.92578C1.73536 2.87507 2.00167 2.87577 2.14474 2.93134C2.20933 2.94059 2.27101 2.96384 2.32528 2.99941C2.37956 3.03498 2.42507 3.08196 2.4585 3.13695C2.49316 3.21496 2.51106 3.29915 2.51106 3.38425C2.51106 3.46934 2.49316 3.55353 2.4585 3.63154C2.34942 3.85521 1.83523 4.92427 1.67516 5.26047C1.63984 5.33171 1.62121 5.4098 1.62062 5.48901C1.62062 5.69532 1.81256 5.76687 1.92163 5.76687C2.05266 5.76687 2.18581 5.66892 2.18581 5.54736C2.18581 5.47025 2.14261 5.42302 2.0817 5.42302C1.93367 5.42302 1.94288 5.54597 1.97192 5.62377C1.88055 5.58348 1.82673 5.51124 1.8416 5.43483C1.78386 5.42627 1.73139 5.39708 1.69428 5.35286C1.7304 5.3084 1.77431 5.27437 1.8416 5.27367C1.81185 5.15558 1.89259 5.10487 1.97192 5.07709C1.94713 5.16392 1.93084 5.26464 2.0817 5.26464C2.19148 5.26464 2.27789 5.2827 2.32818 5.35286L2.34092 4.89023C2.34659 4.752 2.15111 4.75616 2.02716 4.79715C2.07391 4.63738 2.17023 4.55124 2.39263 4.57278C2.3584 4.55974 2.3292 4.53652 2.30913 4.50637C2.28905 4.47621 2.27912 4.44065 2.28072 4.40467C2.28072 4.27478 2.38767 4.13029 2.4585 4.08792L2.4932 5.44247ZM2.4932 11.5164C2.4932 11.863 2.1759 12.0409 1.92659 12.0409C1.59087 12.0409 1.41168 11.8443 1.41168 11.5866C1.40997 11.4546 1.44315 11.3244 1.50801 11.2087L2.27789 9.64019C2.30582 9.57455 2.31793 9.50347 2.3133 9.43249C2.3133 9.29148 2.17377 9.17686 2.02858 9.17339C1.89543 9.16992 1.75094 9.29495 1.75094 9.43666C1.75094 9.60893 1.8416 9.68604 1.9358 9.68604C2.05125 9.68604 2.09728 9.63949 2.09728 9.55961C2.09728 9.50473 2.06966 9.48112 2.03071 9.48112C1.93155 9.48112 1.95917 9.61171 1.95917 9.61171C1.94606 9.60899 1.93372 9.6035 1.923 9.59562C1.91228 9.58774 1.90344 9.57766 1.8971 9.56609C1.89076 9.55451 1.88708 9.54172 1.8863 9.5286C1.88552 9.51549 1.88767 9.50236 1.89259 9.49015C1.85523 9.48276 1.82153 9.46317 1.79698 9.43457C1.82266 9.40815 1.85607 9.39019 1.89259 9.38317C1.86993 9.30746 1.90039 9.27133 1.96696 9.25536C1.95544 9.28063 1.95222 9.30879 1.95775 9.33593C2.06329 9.30676 2.22477 9.3533 2.22477 9.53182C2.22477 9.70896 2.09941 9.85761 1.86426 9.82149C1.92022 9.84858 1.94855 9.90137 1.9535 9.96181C1.91101 9.94583 1.86426 9.94305 1.86426 9.94305C1.89118 9.99029 1.92942 10.032 1.92801 10.125C1.8841 10.1056 1.84443 10.0695 1.78777 10.0924C1.8756 10.2612 1.76794 10.4953 1.49313 10.5495C1.58631 10.4499 1.63942 10.3206 1.64258 10.1855C1.64258 9.78467 1.52855 9.7159 1.52855 9.43666C1.52855 9.31926 1.59017 9.19284 1.71128 9.1074V9.11157C1.63266 9.09142 1.58096 9.05322 1.55192 8.99973C1.73536 8.94902 2.00167 8.94971 2.14474 9.00529C2.20922 9.01459 2.2708 9.0378 2.32505 9.07323C2.3793 9.10866 2.42488 9.15544 2.4585 9.21021C2.49312 9.28823 2.51099 9.37241 2.51099 9.4575C2.51099 9.54259 2.49312 9.62677 2.4585 9.70479C2.34942 9.92846 1.83523 10.9975 1.67516 11.3344C1.63975 11.4056 1.62111 11.4837 1.62062 11.563C1.62062 11.7686 1.81256 11.8401 1.92163 11.8401C2.05266 11.8401 2.18581 11.7422 2.18581 11.6206C2.18581 11.5449 2.14261 11.4977 2.0817 11.4977C1.93367 11.4977 1.94288 11.6206 1.97192 11.6977C1.88055 11.6574 1.82673 11.5845 1.8416 11.5088C1.78381 11.5009 1.73119 11.4718 1.69428 11.4275C1.71107 11.4041 1.73305 11.3848 1.75857 11.3709C1.78409 11.3571 1.81248 11.3491 1.8416 11.3476C1.81185 11.2295 1.89259 11.1802 1.97192 11.1524C1.94713 11.2393 1.93084 11.3393 2.0817 11.3393C2.19148 11.3393 2.27789 11.3573 2.32818 11.4282L2.34092 10.9656C2.34659 10.828 2.15111 10.8315 2.02716 10.8725C2.07391 10.7134 2.17023 10.6273 2.39263 10.6488C2.3584 10.6358 2.3292 10.6125 2.30913 10.5824C2.28905 10.5522 2.27912 10.5167 2.28072 10.4807C2.28072 10.3508 2.38767 10.207 2.4585 10.1639L2.4932 11.5164Z" fill="#FFCC4D"/>
<path d="M2.42304 11.5166C2.42304 11.8632 2.74034 12.041 2.98965 12.041C3.32537 12.041 3.50456 11.8444 3.50456 11.5867C3.50628 11.4547 3.47309 11.3245 3.40824 11.2088L2.63836 9.64034C2.61014 9.57477 2.59777 9.50368 2.60223 9.43264C2.60223 9.29163 2.74176 9.17701 2.88766 9.17354C3.02011 9.17006 3.1653 9.2951 3.1653 9.43681C3.1653 9.60908 3.07464 9.68618 2.98045 9.68618C2.865 9.68618 2.81896 9.63964 2.81896 9.55976C2.81896 9.50488 2.84658 9.48127 2.88554 9.48127C2.9847 9.48127 2.95707 9.61186 2.95707 9.61186C2.97018 9.60914 2.98252 9.60365 2.99324 9.59577C3.00396 9.58789 3.0128 9.57781 3.01914 9.56624C3.02548 9.55466 3.02917 9.54187 3.02995 9.52875C3.03073 9.51564 3.02858 9.50251 3.02365 9.49029C3.06101 9.4829 3.09472 9.46332 3.11927 9.43472C3.09358 9.4083 3.06018 9.39034 3.02365 9.38332C3.04702 9.3076 3.01586 9.27148 2.94928 9.25551C2.96274 9.28468 2.96274 9.31108 2.95849 9.33608C2.85296 9.30691 2.69147 9.35345 2.69147 9.53197C2.69147 9.70911 2.81684 9.85776 3.05269 9.82164C2.99603 9.84873 2.96841 9.90152 2.96274 9.96196C3.00524 9.94598 3.05269 9.9432 3.05269 9.9432C3.02507 9.99044 2.98682 10.0321 2.98824 10.1252C3.03215 10.1057 3.07252 10.0696 3.12847 10.0925C3.04065 10.2613 3.1483 10.4954 3.42311 10.5496C3.32993 10.4501 3.27682 10.3207 3.27367 10.1856C3.27367 9.78482 3.3884 9.71605 3.3884 9.43681C3.38662 9.37167 3.36913 9.30788 3.33737 9.25065C3.3056 9.19342 3.26048 9.14438 3.20567 9.10755V9.11171C3.23904 9.10513 3.27062 9.0917 3.29833 9.07231C3.32603 9.05291 3.34925 9.02799 3.36645 8.99918C3.18301 8.94847 2.91599 8.94917 2.77363 9.00474C2.70915 9.01405 2.64757 9.03725 2.59332 9.07268C2.53907 9.10812 2.49349 9.15489 2.45987 9.20966C2.42525 9.28768 2.40738 9.37186 2.40738 9.45695C2.40738 9.54204 2.42525 9.62622 2.45987 9.70424C2.56895 9.92792 3.08314 10.997 3.24321 11.3339C3.27721 11.4047 3.29775 11.4797 3.29775 11.5624C3.29775 11.768 3.10581 11.8396 2.99674 11.8396C2.86571 11.8396 2.73255 11.7416 2.73255 11.6201C2.73255 11.5443 2.77576 11.4971 2.83667 11.4971C2.9847 11.4971 2.97549 11.6201 2.94574 11.6972C3.03711 11.6569 3.09093 11.5839 3.07606 11.5082C3.13395 11.5006 3.18665 11.4715 3.22338 11.427C3.20659 11.4036 3.18461 11.3842 3.15909 11.3704C3.13357 11.3566 3.10518 11.3486 3.07606 11.3471C3.10581 11.229 3.02507 11.1797 2.94574 11.1519C2.97053 11.2387 2.98682 11.3387 2.83667 11.3387C2.72689 11.3387 2.64048 11.3568 2.59019 11.4277C2.58665 11.3346 2.57744 10.965 2.57744 10.965C2.57178 10.8275 2.76655 10.831 2.8905 10.8719C2.84304 10.7129 2.74743 10.6267 2.52433 10.6483C2.55855 10.6352 2.58775 10.612 2.60783 10.5819C2.6279 10.5517 2.63783 10.5161 2.63623 10.4802C2.63623 10.3503 2.52857 10.2065 2.45846 10.1634L2.42304 11.5166ZM2.45846 1.69155C2.45846 1.69155 2.62631 1.55332 2.68298 1.62209C2.77434 1.73393 2.4018 2.28894 2.4018 2.48483C2.4018 2.80576 2.62065 2.89259 2.88979 2.93843C3.0711 2.96969 3.36574 2.92593 3.36574 2.92593C3.30908 2.85299 3.27367 2.83146 3.18018 2.8259C3.24459 2.79303 3.29835 2.74316 3.33539 2.68191C3.37243 2.62066 3.39129 2.55048 3.38982 2.47928C3.38982 2.20281 3.27367 2.08889 3.27367 1.77769C3.27367 1.60472 3.41815 1.38452 3.41815 1.38452C3.16318 1.41022 3.03569 1.64154 3.10793 1.82701C3.08852 1.83053 3.06854 1.8294 3.04967 1.82371C3.0308 1.81803 3.01362 1.80796 2.99957 1.79436C2.98115 1.84576 3.0109 1.9055 3.04986 1.95691C3.01798 1.97358 2.99461 1.96316 2.94432 1.95274C2.94928 2.00623 2.98115 2.0618 3.06048 2.11459C2.83029 2.05624 2.68935 2.21323 2.68935 2.37786C2.68935 2.5022 2.77788 2.59042 2.865 2.59042C2.89333 2.59042 2.93441 2.57931 2.95778 2.56194C2.97407 2.59598 2.96557 2.64182 2.94857 2.67586C3.01232 2.65988 3.05198 2.62237 3.02365 2.54527C3.06708 2.54353 3.10806 2.52506 3.13768 2.49386C3.12398 2.47714 3.10645 2.46384 3.08651 2.45503C3.06657 2.44621 3.04479 2.44215 3.02294 2.44316C3.05835 2.37091 3.01869 2.33062 2.96132 2.29867C2.96132 2.29867 2.99815 2.44316 2.90395 2.44316C2.86146 2.44316 2.82321 2.42926 2.82321 2.36883C2.82321 2.31604 2.87067 2.2424 2.97974 2.24727C3.08881 2.25143 3.17734 2.3209 3.17734 2.49247C3.17734 2.65016 3.04773 2.72796 2.87704 2.73352C2.72335 2.73768 2.60719 2.65572 2.60719 2.50012C2.60719 2.29242 2.91316 1.82006 2.91316 1.63459C2.91316 1.49566 2.78638 1.41786 2.66173 1.41786C2.50024 1.41786 2.36426 1.57485 2.36426 1.57485L2.45846 1.69155Z" fill="#FFCC4D"/>
<path d="M2.45845 1.69155C2.45845 1.69155 2.29059 1.55332 2.23393 1.62209C2.14186 1.73462 2.51511 2.28964 2.51511 2.48553C2.51511 2.80645 2.29626 2.89328 2.02712 2.93913C1.8458 2.96969 1.55187 2.92593 1.55187 2.92593C1.60712 2.85299 1.64324 2.83146 1.73673 2.8259C1.67214 2.79319 1.61818 2.74337 1.581 2.6821C1.54382 2.62083 1.52489 2.55056 1.52638 2.47928C1.52638 2.20281 1.64253 2.08889 1.64253 1.77769C1.64253 1.60472 1.49805 1.38452 1.49805 1.38452C1.75302 1.41022 1.88051 1.64154 1.80827 1.82701C1.82778 1.83041 1.84785 1.82923 1.86681 1.82355C1.88577 1.81788 1.90308 1.80787 1.91734 1.79436C1.93575 1.84576 1.90671 1.9055 1.86705 1.95691C1.89821 1.97358 1.92159 1.96316 1.97258 1.95274C1.96762 2.00623 1.93504 2.0618 1.85643 2.11459C2.0859 2.05624 2.22685 2.21323 2.22685 2.37786C2.22685 2.5022 2.13832 2.59042 2.0512 2.59042C2.01815 2.58971 1.98598 2.57984 1.95842 2.56194C1.94284 2.59667 1.95133 2.64182 1.96762 2.67586C1.90459 2.65988 1.86493 2.62237 1.89326 2.54596C1.87173 2.54521 1.85057 2.54029 1.83099 2.53146C1.81142 2.52264 1.79382 2.5101 1.77923 2.49456C1.79271 2.47772 1.81008 2.46428 1.82991 2.45534C1.84974 2.4464 1.87145 2.44223 1.89326 2.44316C1.85784 2.37091 1.89751 2.33062 1.95488 2.29867C1.95488 2.29867 1.91805 2.44316 2.01225 2.44316C2.05474 2.44316 2.09299 2.42926 2.09299 2.36883C2.09299 2.31604 2.04553 2.2424 1.93646 2.24727C1.82668 2.25143 1.73815 2.3209 1.73815 2.49178C1.73815 2.64946 1.86776 2.72726 2.03845 2.73282C2.19285 2.73699 2.30901 2.65572 2.30901 2.49942C2.30901 2.29172 2.00304 1.81937 2.00304 1.6339C2.00304 1.49497 2.12982 1.41717 2.25447 1.41717C2.41595 1.41717 2.55194 1.57416 2.55194 1.57416L2.45845 1.69155ZM2.42304 5.44262C2.42304 5.78924 2.74034 5.96777 2.98965 5.96777C3.32536 5.96777 3.50455 5.77049 3.50455 5.51208C3.50455 5.36621 3.47693 5.27451 3.40823 5.1342L2.63835 3.5657C2.61063 3.50024 2.59851 3.42944 2.60294 3.35869C2.60294 3.21838 2.74246 3.10306 2.88837 3.09959C3.02081 3.09681 3.166 3.22115 3.166 3.36356C3.166 3.53652 3.07535 3.61293 2.98115 3.61293C2.8657 3.61293 2.81966 3.56639 2.81966 3.48651C2.81966 3.43094 2.84729 3.40732 2.88624 3.40732C2.9854 3.40732 2.95778 3.53791 2.95778 3.53791C2.97088 3.53519 2.98323 3.5297 2.99395 3.52182C3.00467 3.51394 3.0135 3.50387 3.01984 3.49229C3.02618 3.48072 3.02987 3.46792 3.03065 3.45481C3.03143 3.44169 3.02928 3.42857 3.02435 3.41635C3.06138 3.40861 3.09475 3.38907 3.11926 3.36078C3.09322 3.33445 3.05962 3.31652 3.02294 3.30937C3.04631 3.23435 3.01514 3.19823 2.94857 3.18225C2.96202 3.21143 2.96202 3.23783 2.95778 3.26283C2.85224 3.23366 2.69076 3.2802 2.69076 3.45872C2.69076 3.63585 2.81612 3.7852 3.05197 3.74839C2.99531 3.77478 2.96769 3.82827 2.96202 3.88801C2.991 3.87789 3.02128 3.87181 3.05197 3.86995C3.02435 3.91718 2.98611 3.95817 2.98752 4.05195C3.03143 4.0325 3.07181 3.99637 3.12776 4.0193C3.03993 4.18879 3.14759 4.42149 3.42239 4.47707C3.32934 4.37718 3.27626 4.24765 3.27295 4.11238C3.27295 3.71088 3.38769 3.6428 3.38769 3.36356C3.38573 3.29846 3.36817 3.23472 3.33642 3.17752C3.30468 3.12032 3.25964 3.07125 3.20496 3.0343V3.03916C3.23827 3.03217 3.26974 3.0185 3.29741 2.99902C3.32507 2.97953 3.34834 2.95465 3.36573 2.92593C3.18159 2.87592 2.91457 2.87661 2.7715 2.93218C2.70702 2.94121 2.64542 2.96431 2.59124 2.99977C2.53707 3.03523 2.49169 3.08216 2.45845 3.1371C2.42378 3.21511 2.40589 3.2993 2.40589 3.38439C2.40589 3.46949 2.42378 3.55368 2.45845 3.63169C2.56752 3.85536 3.08172 4.92441 3.24179 5.26062C3.27662 5.33203 3.29523 5.41001 3.29632 5.48916C3.29632 5.69547 3.10439 5.76702 2.99531 5.76702C2.86428 5.76702 2.73113 5.66907 2.73113 5.54751C2.73113 5.4704 2.77434 5.42317 2.83525 5.42317C2.98327 5.42317 2.97407 5.54612 2.94432 5.62392C3.03568 5.58363 3.08951 5.51139 3.07464 5.43498C3.13249 5.42674 3.18507 5.39749 3.22196 5.35301C3.18584 5.30855 3.14192 5.27451 3.07464 5.27382C3.10439 5.15573 3.02364 5.10502 2.94432 5.07724C2.96911 5.16407 2.9854 5.26479 2.83525 5.26479C2.72547 5.26479 2.63906 5.28285 2.58877 5.35301C2.58523 5.25993 2.57602 4.89038 2.57602 4.89038C2.57036 4.75214 2.76513 4.75631 2.88907 4.7973C2.84304 4.63892 2.74742 4.55278 2.52432 4.57432C2.55855 4.56128 2.58775 4.53806 2.60782 4.5079C2.62789 4.47775 2.63783 4.44219 2.63622 4.40621C2.63622 4.27631 2.52857 4.13183 2.45845 4.08946L2.42304 5.44262Z" fill="#FFCC4D"/>
</svg>
