<svg width="32" height="32" viewBox="0 0 32 32" fill="none" xmlns="http://www.w3.org/2000/svg">
  <rect width="32" height="32" rx="8" fill="#00F4C2"/>
  <path d="M12.2354 15.6733C13.3967 15.6733 14.1778 16.4322 14.1778 17.8367V20.9987H12.8112V18.1171C12.8112 17.3681 12.493 16.9942 11.8868 16.9942C11.1166 16.9942 10.757 17.5452 10.757 18.5132V20.9987H9.40015V18.1171C9.40015 17.3681 9.07095 16.9942 8.46478 16.9942C7.70433 16.9942 7.35569 17.5452 7.35569 18.5132V20.9987H6V15.7976H7.3156V16.5982C7.62415 16.0472 8.12707 15.6721 8.91788 15.6721C9.64675 15.6721 10.2128 15.9845 10.5105 16.6401C10.8384 16.0485 11.4337 15.6733 12.2354 15.6733ZM19.1365 17.3583C19.1365 15.1838 20.6465 13.7178 22.5683 13.7178C24.49 13.7178 26 15.1851 26 17.3583C26 19.5315 24.49 20.9987 22.5683 20.9987C20.6465 20.9987 19.1365 19.5327 19.1365 17.3583ZM24.5617 17.3583C24.5617 16.0165 23.7187 15.174 22.5683 15.174C21.407 15.174 20.5748 16.0165 20.5748 17.3583C20.5748 18.7001 21.407 19.5426 22.5683 19.5426C23.7199 19.5426 24.5617 18.7001 24.5617 17.3583ZM12.691 13.4534C12.6545 13.8543 12.9461 14.2086 13.3421 14.2442L14.5131 14.3524C14.9091 14.3893 15.259 14.0942 15.2942 13.6932C15.3307 13.2923 15.0391 12.9381 14.6431 12.9024L13.472 12.7942C13.0772 12.7585 12.7274 13.0537 12.691 13.4534ZM14.4038 9.73423C14.077 9.96299 13.9968 10.4168 14.2228 10.7477L15.129 12.0698C15.355 12.4006 15.8032 12.4818 16.13 12.253C16.4567 12.0243 16.5369 11.5704 16.311 11.2396L15.4047 9.91749C15.1788 9.58665 14.7306 9.50547 14.4038 9.73423ZM18.579 9.02582C18.1951 8.92005 17.8003 9.14881 17.6958 9.53745L17.2792 11.0871C17.1747 11.4745 17.4006 11.8755 17.7845 11.9812C18.1684 12.087 18.5632 11.8582 18.6676 11.4696L19.0843 9.91994C19.1876 9.5313 18.9616 9.13159 18.579 9.02582ZM21.4155 12.0021C21.249 11.6369 20.8214 11.4782 20.4606 11.6467L19.3941 12.1448C19.0333 12.3133 18.8766 12.7462 19.043 13.1115C19.2094 13.4768 19.637 13.6354 19.9978 13.4669L21.0644 12.9688C21.4252 12.7991 21.5819 12.3662 21.4155 12.0021ZM17.3715 13.7178C17.1698 13.7178 16.9755 13.7891 16.8212 13.9208L14.6662 15.7521C14.3625 16.0103 14.3224 16.4703 14.5775 16.7778C14.8326 17.0853 15.2869 17.1259 15.5906 16.8676L16.7884 15.8504V21H18.2267V14.5849C18.2267 14.1053 17.844 13.7178 17.3715 13.7178Z" fill="#141414"/>
</svg>
