<svg width="23" height="18" viewBox="0 0 23 18" fill="none" xmlns="http://www.w3.org/2000/svg">
<path fill-rule="evenodd" clip-rule="evenodd" d="M6.49679 16.0478V16.9999V17.9521H6.08646V17.7209C5.95631 17.8924 5.75882 18 5.49039 18C4.9612 18 4.54635 17.5818 4.54635 16.9999C4.54635 16.4185 4.9612 15.9999 5.49039 15.9999C5.75882 15.9999 5.95631 16.1075 6.08646 16.279V16.0478H6.49679ZM5.54144 16.3902C5.18624 16.3902 4.96887 16.6652 4.96887 16.9999C4.96887 17.3347 5.18624 17.6096 5.54144 17.6096C5.88083 17.6096 6.10995 17.3465 6.10995 16.9999C6.10995 16.6533 5.88083 16.3902 5.54144 16.3902ZM20.3632 16.9999C20.3632 16.6652 20.5806 16.3902 20.9358 16.3902C21.2756 16.3902 21.5043 16.6533 21.5043 16.9999C21.5043 17.3465 21.2756 17.6096 20.9358 17.6096C20.5806 17.6096 20.3632 17.3347 20.3632 16.9999ZM21.8916 15.283V16.9999V17.9521H21.4808V17.7209C21.3507 17.8924 21.1532 18 20.8847 18C20.3555 18 19.9407 17.5818 19.9407 16.9999C19.9407 16.4185 20.3555 15.9999 20.8847 15.9999C21.1532 15.9999 21.3507 16.1075 21.4808 16.279V15.283H21.8916ZM11.5903 16.3706C11.8547 16.3706 12.0246 16.538 12.068 16.8326H11.0887C11.1325 16.5576 11.2979 16.3706 11.5903 16.3706ZM10.6584 16.9999C10.6584 16.4062 11.0453 15.9999 11.5984 15.9999C12.1271 15.9999 12.4905 16.4062 12.4945 16.9999C12.4945 17.0556 12.4905 17.1076 12.4864 17.1591H11.085C11.1442 17.502 11.3851 17.6256 11.6495 17.6256C11.8388 17.6256 12.0404 17.5536 12.1985 17.4263L12.3996 17.7332C12.1705 17.9284 11.9102 18 11.626 18C11.0611 18 10.6584 17.6055 10.6584 16.9999ZM16.5532 16.9999C16.5532 16.6652 16.7705 16.3902 17.1257 16.3902C17.4651 16.3902 17.6942 16.6533 17.6942 16.9999C17.6942 17.3465 17.4651 17.6096 17.1257 17.6096C16.7705 17.6096 16.5532 17.3347 16.5532 16.9999ZM18.0811 16.0478V16.9999V17.9521H17.6708V17.7209C17.5402 17.8924 17.3431 18 17.0747 18C16.5455 18 16.1306 17.5818 16.1306 16.9999C16.1306 16.4185 16.5455 15.9999 17.0747 15.9999C17.3431 15.9999 17.5402 16.1075 17.6708 16.279V16.0478H18.0811ZM14.2357 16.9999C14.2357 17.5777 14.6343 18 15.2426 18C15.5269 18 15.7162 17.9362 15.9214 17.7729L15.7243 17.4382C15.5702 17.5499 15.4085 17.6096 15.2304 17.6096C14.9028 17.6055 14.6619 17.3666 14.6619 16.9999C14.6619 16.6333 14.9028 16.3943 15.2304 16.3902C15.4085 16.3902 15.5702 16.45 15.7243 16.5617L15.9214 16.227C15.7162 16.0637 15.5269 15.9999 15.2426 15.9999C14.6343 15.9999 14.2357 16.4221 14.2357 16.9999ZM19.0287 16.279C19.1353 16.1116 19.2894 15.9999 19.5262 15.9999C19.6094 15.9999 19.7278 16.0158 19.8186 16.0519L19.6921 16.4422C19.6053 16.4062 19.5185 16.3943 19.4354 16.3943C19.167 16.3943 19.0327 16.5694 19.0327 16.8846V17.9521H18.622V16.0478H19.0287V16.279ZM8.52629 16.1992C8.32881 16.0678 8.05676 15.9999 7.75669 15.9999C7.27857 15.9999 6.97082 16.2311 6.97082 16.6096C6.97082 16.9201 7.19993 17.1117 7.62202 17.1714L7.81589 17.1992C8.04094 17.2311 8.14714 17.2909 8.14714 17.3985C8.14714 17.5458 7.9971 17.6297 7.71692 17.6297C7.43267 17.6297 7.2275 17.538 7.08922 17.4304L6.8958 17.7528C7.12085 17.9202 7.4051 18 7.71285 18C8.25786 18 8.57374 17.741 8.57374 17.3784C8.57374 17.0437 8.32519 16.8686 7.9144 16.8089L7.72099 16.7806C7.54339 16.7569 7.40103 16.7213 7.40103 16.5936C7.40103 16.4541 7.53525 16.3706 7.7603 16.3706C8.00117 16.3706 8.23436 16.4623 8.34869 16.5339L8.52629 16.1992ZM13.3238 16.279C13.43 16.1116 13.5841 15.9999 13.8209 15.9999C13.9041 15.9999 14.0225 16.0158 14.1133 16.0519L13.9868 16.4422C13.9 16.4062 13.8132 16.3943 13.7301 16.3943C13.4616 16.3943 13.3274 16.5694 13.3274 16.8846V17.9521H12.9171V16.0478H13.3238V16.279ZM10.319 16.0478H9.64789V15.47H9.23304V16.0478H8.85027V16.4263H9.23304V17.295C9.23304 17.7369 9.40296 18 9.88831 18C10.0664 18 10.2715 17.9444 10.4017 17.8527L10.2833 17.4979C10.1608 17.5695 10.0266 17.6055 9.91994 17.6055C9.71478 17.6055 9.64789 17.4778 9.64789 17.2868V16.4263H10.319V16.0478ZM4.18343 16.7569V17.9521H3.76858V16.8923C3.76858 16.5694 3.63436 16.3902 3.35418 16.3902C3.08168 16.3902 2.89232 16.5658 2.89232 16.8964V17.9521H2.47747V16.8923C2.47747 16.5694 2.33964 16.3902 2.06714 16.3902C1.7865 16.3902 1.60483 16.5658 1.60483 16.8964V17.9521H1.19043L1.19043 16.0478H1.60122V16.2826C1.75532 16.0596 1.95235 15.9999 2.1539 15.9999C2.44222 15.9999 2.64739 16.1276 2.77754 16.3387C2.95153 16.0715 3.20008 15.9958 3.44094 15.9999C3.89918 16.004 4.18343 16.3068 4.18343 16.7569Z" fill="#231F20"/>
<path d="M14.6098 12.8117H8.39062V1.5332H14.6098V12.8117Z" fill="#FF5F00"/>
<path d="M8.78514 7.17286C8.78514 4.88498 9.84668 2.847 11.4998 1.53364C10.2909 0.57325 8.76526 2.47955e-05 7.1072 2.47955e-05C3.1819 2.47955e-05 0 3.21136 0 7.17286C0 11.1344 3.1819 14.3457 7.1072 14.3457C8.76526 14.3457 10.2909 13.7725 11.4998 12.8121C9.84668 11.4987 8.78514 9.46075 8.78514 7.17286Z" fill="#EB001B"/>
<path d="M23.0002 7.17286C23.0002 11.1344 19.8183 14.3457 15.893 14.3457C14.235 14.3457 12.7093 13.7725 11.5 12.8121C13.1535 11.4987 14.2151 9.46075 14.2151 7.17286C14.2151 4.88498 13.1535 2.847 11.5 1.53364C12.7093 0.57325 14.235 2.47955e-05 15.893 2.47955e-05C19.8183 2.47955e-05 23.0002 3.21136 23.0002 7.17286Z" fill="#F79E1B"/>
</svg>
