<svg width="20" height="20" viewBox="0 0 20 20" fill="none" xmlns="http://www.w3.org/2000/svg">
  <path fill-rule="evenodd" clip-rule="evenodd" d="M7.994 2.66697C7.79106 2.83992 7.68958 2.9264 7.58121 2.99903C7.33279 3.16553 7.0538 3.28109 6.76041 3.33902C6.63242 3.36429 6.49952 3.37489 6.23373 3.3961C5.5659 3.44939 5.23199 3.47604 4.95341 3.57444C4.30908 3.80202 3.80227 4.30884 3.57468 4.95317C3.47628 5.23175 3.44964 5.56566 3.39635 6.23348C3.37514 6.49928 3.36453 6.63217 3.33926 6.76016C3.28134 7.05356 3.16578 7.33255 2.99927 7.58097C2.92664 7.68934 2.84017 7.79081 2.66722 7.99375C2.23269 8.50365 2.01541 8.75861 1.88801 9.02517C1.59332 9.64171 1.59332 10.3585 1.88801 10.975C2.01541 11.2416 2.23268 11.4965 2.66722 12.0064C2.84015 12.2093 2.92664 12.3108 2.99927 12.4192C3.16578 12.6676 3.28134 12.9466 3.33926 13.24C3.36453 13.368 3.37514 13.5009 3.39635 13.7667C3.44964 14.4345 3.47628 14.7684 3.57468 15.047C3.80227 15.6913 4.30908 16.1981 4.95341 16.4257C5.23199 16.5241 5.5659 16.5508 6.23373 16.6041C6.49952 16.6253 6.63242 16.6359 6.76041 16.6611C7.0538 16.7191 7.33279 16.8346 7.58121 17.0011C7.68958 17.0738 7.79105 17.1602 7.99399 17.3332C8.5039 17.7677 8.75885 17.985 9.02541 18.1124C9.64195 18.4071 10.3587 18.4071 10.9752 18.1124C11.2418 17.985 11.4968 17.7677 12.0067 17.3332C12.2096 17.1602 12.3111 17.0738 12.4194 17.0011C12.6679 16.8346 12.9468 16.7191 13.2402 16.6611C13.3682 16.6359 13.5011 16.6253 13.7669 16.6041C14.4347 16.5508 14.7687 16.5241 15.0472 16.4257C15.6916 16.1981 16.1984 15.6913 16.426 15.047C16.5244 14.7684 16.551 14.4345 16.6043 13.7667C16.6255 13.5009 16.6361 13.368 16.6614 13.24C16.7193 12.9466 16.8349 12.6676 17.0014 12.4192C17.074 12.3108 17.1605 12.2094 17.3334 12.0064C17.768 11.4965 17.9852 11.2416 18.1126 10.975C18.4073 10.3585 18.4073 9.64171 18.1126 9.02517C17.9852 8.75861 17.768 8.50365 17.3334 7.99375C17.1605 7.79081 17.074 7.68934 17.0014 7.58096C16.8349 7.33255 16.7193 7.05356 16.6614 6.76016C16.6361 6.63217 16.6255 6.49928 16.6043 6.23348C16.551 5.56566 16.5244 5.23175 16.426 4.95317C16.1984 4.30884 15.6916 3.80202 15.0472 3.57444C14.7687 3.47604 14.4347 3.44939 13.7669 3.3961C13.5011 3.37489 13.3682 3.36429 13.2402 3.33902C12.9468 3.28109 12.6679 3.16553 12.4194 2.99903C12.3111 2.92639 12.2096 2.83992 12.0067 2.66697C11.4968 2.23244 11.2418 2.01517 10.9752 1.88776C10.3587 1.59308 9.64195 1.59308 9.02541 1.88776C8.75885 2.01517 8.50389 2.23244 7.994 2.66697ZM13.1928 6.80807C13.4576 7.07293 13.4576 7.50236 13.1928 7.76722L7.76702 13.193C7.50216 13.4578 7.07274 13.4578 6.80788 13.193C6.54302 12.9281 6.54302 12.4987 6.80788 12.2338L12.2336 6.80807C12.4985 6.54321 12.9279 6.54321 13.1928 6.80807ZM13.1653 12.2612C13.1653 12.7607 12.7605 13.1655 12.261 13.1655C11.7616 13.1655 11.3567 12.7607 11.3567 12.2612C11.3567 11.7618 11.7616 11.3569 12.261 11.3569C12.7605 11.3569 13.1653 11.7618 13.1653 12.2612ZM7.73959 8.64408C8.23902 8.64408 8.64388 8.23921 8.64388 7.73979C8.64388 7.24036 8.23902 6.8355 7.73959 6.8355C7.24017 6.8355 6.8353 7.24036 6.8353 7.73979C6.8353 8.23921 7.24017 8.64408 7.73959 8.64408Z" fill="#FACC15"/>
</svg>
