<svg width="64" height="64" viewBox="0 0 64 64" fill="none" xmlns="http://www.w3.org/2000/svg">
<g filter="url(#filter0_i_4763_29286)">
<rect width="64" height="64" rx="12" fill="black"/>
<path d="M25.8301 29.8767H34.1287C34.4081 29.8767 34.6104 30.0795 34.5347 30.2834C34.483 30.4213 34.3174 30.5162 34.1287 30.5162H31.1657L30.854 31.3922H34.1772C34.9424 31.3922 35.6004 30.9826 35.7505 30.414C35.9495 29.6614 35.19 28.959 34.1772 28.959H26.1052L25.8301 29.8767Z" fill="#24B67C"/>
<path d="M49.0903 25.7144C51.4056 25.7144 53.0473 27.976 52.3331 30.1817L50.7893 34.9482C50.1484 36.9276 48.3068 38.2679 46.2292 38.2679H42.5616C40.2722 38.2679 38.6333 36.0529 39.3005 33.8594L40.5879 29.6261H38.599C38.599 29.6261 38.7587 30.4619 37.9776 31.4931C39.0075 33.0402 38.9012 34.6404 37.9597 36.1518C37.0186 37.6632 35.7049 38.2857 33.2543 38.2857H25.0337L26.2411 34.4093H34.4366C34.6368 34.4093 34.8088 34.2674 34.8466 34.0703C34.8577 34.0093 34.8555 33.9465 34.8399 33.8865C34.8244 33.8265 34.796 33.7708 34.7568 33.7233C34.7176 33.6759 34.6685 33.6379 34.6131 33.612C34.5578 33.5862 34.4975 33.5732 34.4366 33.5739H30.5556L30.964 32.5248H34.3976C35.396 32.5248 36.1289 33.4636 35.888 34.4336C35.7176 35.1194 35.103 35.6007 34.3976 35.6007H27.058L26.5962 37.1478H33.2901C35.9712 37.1478 37.3737 35.7784 37.5158 34.0893C37.6579 32.4003 36.3084 31.6712 36.3084 31.6712C36.3084 31.6712 37.8355 30.4262 37.5871 28.9326C37.3383 27.4391 36.3972 26.9768 34.8705 26.9768H25.2646L25.6547 25.7144H49.0903ZM51.2949 29.7494C51.7257 28.3754 50.7006 26.9768 49.2623 26.9768H38.0218C38.8474 27.9638 38.6348 28.4703 38.6348 28.4703H48.9697C49.4717 28.4703 49.8303 28.957 49.6823 29.4375L48.2913 33.9527C47.9812 34.9588 47.0525 35.6453 46.0007 35.6453H42.5907C42.0919 35.6453 41.7336 35.1644 41.8757 34.6855L43.3486 29.7242H41.724L40.3534 34.344C39.9474 35.7118 40.9708 37.0854 42.3956 37.0854H46.1795C47.855 37.0854 49.3363 35.9961 49.8383 34.3955L51.2949 29.7494ZM43.0736 34.4093L46.0158 34.4365C46.5779 34.4413 47.0775 34.0784 47.2467 33.5415L48.4533 29.7153H45.4709C44.9111 29.7153 44.4159 30.0803 44.2503 30.6156L43.0736 34.4093Z" fill="#24B67C"/>
<path d="M25.2681 28.9413H13.9733L14.3547 27.726C14.7302 26.5305 15.8444 25.7146 17.1055 25.7146H27.932C29.0532 25.7146 29.873 26.7682 29.5897 27.8476L28.6072 31.5998C28.2763 32.8618 27.1304 33.743 25.8181 33.743H16.5696L15.4013 38.286H11.4287L12.9954 32.7133C13.3433 31.4753 14.4781 30.6193 15.7709 30.6193H24.852L25.2681 28.9413Z" fill="white"/>
</g>
<defs>
<filter id="filter0_i_4763_29286" x="0" y="0" width="64" height="72" filterUnits="userSpaceOnUse" color-interpolation-filters="sRGB">
<feFlood flood-opacity="0" result="BackgroundImageFix"/>
<feBlend mode="normal" in="SourceGraphic" in2="BackgroundImageFix" result="shape"/>
<feColorMatrix in="SourceAlpha" type="matrix" values="0 0 0 0 0 0 0 0 0 0 0 0 0 0 0 0 0 0 127 0" result="hardAlpha"/>
<feOffset dy="8"/>
<feGaussianBlur stdDeviation="10"/>
<feComposite in2="hardAlpha" operator="arithmetic" k2="-1" k3="1"/>
<feColorMatrix type="matrix" values="0 0 0 0 1 0 0 0 0 1 0 0 0 0 1 0 0 0 0.4 0"/>
<feBlend mode="normal" in2="shape" result="effect1_innerShadow_4763_29286"/>
</filter>
</defs>
</svg>
