<svg width="42" height="16" viewBox="0 0 42 16" fill="none" xmlns="http://www.w3.org/2000/svg">
<path d="M24.0079 5.64898C24.1905 5.6891 24.1968 5.51923 24.2994 5.42779C25.1926 4.63195 26.3217 4.44431 27.4816 4.74875C28.2667 4.95484 28.7255 5.44931 29.1702 6.08619C30.5986 4.02467 33.8962 4.06567 34.8796 6.54088C34.9507 6.71976 35.1154 7.20945 35.1154 7.37733V13.2928H31.837V8.44845C31.837 8.40609 31.6928 8.10895 31.6532 8.04707C31.2263 7.38112 30.3459 7.39451 29.8799 8.01036C29.7487 8.18373 29.5372 8.68034 29.5372 8.88663V13.2928H26.3322C26.327 13.2928 26.2588 13.225 26.2588 13.2198V8.44845C26.2588 8.24907 25.9842 7.88226 25.8151 7.77009C25.1663 7.33955 24.4681 7.56531 24.1621 8.261C24.1215 8.35326 24.0079 8.66452 24.0079 8.74057V13.2198C24.0079 13.225 23.9397 13.2928 23.9345 13.2928H20.7295V4.86998H23.9345C23.9397 4.86998 24.0079 4.93785 24.0079 4.94301V5.64898Z" fill="#131311"/>
<path d="M24.0079 5.64898C24.1905 5.6891 24.1968 5.51923 24.2994 5.42779C25.1926 4.63195 26.3217 4.44431 27.4816 4.74875C28.2667 4.95484 28.7255 5.44931 29.1702 6.08619C30.5986 4.02467 33.8962 4.06567 34.8796 6.54088C34.9507 6.71976 35.1154 7.20945 35.1154 7.37733V13.2928H31.837V8.44845C31.837 8.40609 31.6928 8.10895 31.6532 8.04707C31.2263 7.38112 30.3459 7.39451 29.8799 8.01036C29.7487 8.18373 29.5372 8.68034 29.5372 8.88663V13.2928H26.3322C26.327 13.2928 26.2588 13.225 26.2588 13.2198V8.44845C26.2588 8.24907 25.9842 7.88226 25.8151 7.77009C25.1663 7.33955 24.4681 7.56531 24.1621 8.261C24.1215 8.35326 24.0079 8.66452 24.0079 8.74057V13.2198C24.0079 13.225 23.9397 13.2928 23.9345 13.2928H20.7295V4.86998H23.9345C23.9397 4.86998 24.0079 4.93785 24.0079 4.94301V5.64898Z" fill="#44504E"/>
<path d="M15.8012 4.86459C15.7894 4.9677 15.8475 5.5018 15.7273 5.49887C15.6992 5.49789 15.3782 5.19932 15.2954 5.14606C14.1238 4.39109 12.4805 4.45803 11.3055 5.16805C8.35708 6.9492 8.74071 12.4598 12.2343 13.4122C13.1793 13.6697 14.3592 13.6233 15.2058 13.094C15.3127 13.0271 15.7248 12.6054 15.8007 12.6831L15.8012 13.3183H19.1007V4.86459H15.8012ZM14.6222 10.7553C12.9208 11.116 12.1121 9.15157 13.0517 7.927C13.5999 7.21308 14.7394 7.21259 15.3407 7.8625C16.1139 8.6981 15.8317 10.4993 14.6222 10.7553Z" fill="#131311"/>
<path d="M15.8012 4.86459C15.7894 4.9677 15.8475 5.5018 15.7273 5.49887C15.6992 5.49789 15.3782 5.19932 15.2954 5.14606C14.1238 4.39109 12.4805 4.45803 11.3055 5.16805C8.35708 6.9492 8.74071 12.4598 12.2343 13.4122C13.1793 13.6697 14.3592 13.6233 15.2058 13.094C15.3127 13.0271 15.7248 12.6054 15.8007 12.6831L15.8012 13.3183H19.1007V4.86459H15.8012ZM14.6222 10.7553C12.9208 11.116 12.1121 9.15157 13.0517 7.927C13.5999 7.21308 14.7394 7.21259 15.3407 7.8625C16.1139 8.6981 15.8317 10.4993 14.6222 10.7553Z" fill="#44504E"/>
<path d="M6.52758 2.43555V4.76169C6.52758 4.76689 6.59694 4.83515 6.60221 4.83515H8.66699V7.35719C8.66699 7.36551 8.61654 7.41527 8.59455 7.41874L6.52758 7.43064V10.0016C6.52758 10.0915 6.66426 10.3105 6.72814 10.3919C7.1407 10.9178 7.96641 10.6861 8.51743 10.5156C8.51136 10.8813 9.16662 12.7662 9.04134 12.9648C9.00273 13.026 8.43181 13.2427 8.31668 13.2807C6.54007 13.8668 4.25668 13.6315 3.46947 11.7384C2.93159 10.4448 3.31255 8.81394 3.18717 7.4376C3.12399 7.33814 2.24976 7.37594 2.08095 7.42697C2.05727 7.42075 2 7.3684 2 7.35719V4.83515H3.11946C3.12473 4.83515 3.19409 4.76689 3.19409 4.76169V2.43555H6.52758Z" fill="#131311"/>
<path d="M6.52758 2.43555V4.76169C6.52758 4.76689 6.59694 4.83515 6.60221 4.83515H8.66699V7.35719C8.66699 7.36551 8.61654 7.41527 8.59455 7.41874L6.52758 7.43064V10.0016C6.52758 10.0915 6.66426 10.3105 6.72814 10.3919C7.1407 10.9178 7.96641 10.6861 8.51743 10.5156C8.51136 10.8813 9.16662 12.7662 9.04134 12.9648C9.00273 13.026 8.43181 13.2427 8.31668 13.2807C6.54007 13.8668 4.25668 13.6315 3.46947 11.7384C2.93159 10.4448 3.31255 8.81394 3.18717 7.4376C3.12399 7.33814 2.24976 7.37594 2.08095 7.42697C2.05727 7.42075 2 7.3684 2 7.35719V4.83515H3.11946C3.12473 4.83515 3.19409 4.76689 3.19409 4.76169V2.43555H6.52758Z" fill="#44504E"/>
<path d="M36.563 10.5438C37.2287 9.64528 38.448 9.50335 39.3075 10.2227C40.8962 11.5524 39.5273 14.091 37.4574 13.4671C36.2327 13.098 35.8364 11.5243 36.5629 10.5438L36.563 10.5438Z" fill="#01FF2D"/>
<path d="M36.563 10.5438C37.2287 9.64528 38.448 9.50335 39.3075 10.2227C40.8962 11.5524 39.5273 14.091 37.4574 13.4671C36.2327 13.098 35.8364 11.5243 36.5629 10.5438L36.563 10.5438Z" fill="#6AB031"/>
</svg>
