<svg width="70" height="16" viewBox="0 0 70 16" fill="none" xmlns="http://www.w3.org/2000/svg">
  <path d="M10.0502 7.14733C10.0502 6.13645 10.0437 5.12587 10.0529 4.115C10.0582 3.54241 10.2646 3.03638 10.6258 2.5925C10.9633 2.17779 11.3992 1.90209 11.9117 1.78575C12.3411 1.68825 12.7865 1.67382 13.2298 1.7345C13.3487 1.7507 13.471 1.74657 13.585 1.79017C13.8235 1.88147 13.9316 2.07646 13.962 2.31239C13.9805 2.45583 13.9991 2.60046 13.9985 2.74773C13.9947 4.42103 13.9932 6.09433 13.9997 7.76764C14.0006 7.97942 13.9546 8.16792 13.8651 8.35496C13.4071 9.31046 12.8301 10.1876 12.1129 10.9664C11.355 11.789 10.5129 12.5133 9.54009 13.0774C9.11625 13.323 8.68711 13.5616 8.22557 13.723C8.01468 13.7967 7.82353 13.9551 7.57847 13.9224C7.4477 14.0809 7.24447 13.9878 7.08188 14.0638C6.94846 14.1263 6.78146 14.123 6.61917 14.1186C6.4342 14.1136 6.24451 14.1507 6.05424 14.1427C5.62275 14.1251 5.1992 14.0632 4.79775 13.8997C4.34475 13.7151 3.91826 13.4868 3.54656 13.1581C2.87884 12.5681 2.46885 11.8291 2.24205 10.9779C2.15575 10.6536 2.08477 10.3255 2.04324 9.99292C1.99729 9.62621 1.98698 9.2542 2.01703 8.8872C2.04177 8.58529 2.18079 8.30665 2.28947 8.02448C2.7192 6.90904 3.34598 5.9129 4.11855 5.00423C4.3527 4.72883 4.59275 4.45991 4.85459 4.21102C5.17358 3.90735 5.5173 3.63254 5.85897 3.35537C5.91964 3.30618 5.93231 3.33034 5.93289 3.3916C5.93289 3.41605 5.93289 3.44079 5.93289 3.46524C5.93289 5.21218 5.9379 6.95912 5.92965 8.70606C5.92759 9.16113 5.97678 9.59558 6.21447 9.99292C6.37146 10.2554 6.59973 10.4365 6.87041 10.572C7.24977 10.7623 7.65211 10.8103 8.07182 10.8132C8.60258 10.8168 9.12685 10.7717 9.64936 10.6904C9.971 10.6403 10.0555 10.5411 10.0555 10.2085C10.0555 9.18793 10.0555 8.16704 10.0555 7.14645H10.0496L10.0502 7.14733Z" fill="#FF6400"/>
  <path d="M2.00875 6.35981C2.00875 6.30532 2.00875 6.26379 2.00875 6.22226C2.00875 5.52129 2.01228 4.82003 2.00786 4.11906C2.00345 3.42486 2.2809 2.85584 2.76865 2.38047C3.19868 1.96107 3.71883 1.76079 4.3191 1.7334C4.54265 1.72338 4.76591 1.71367 4.98946 1.71013C5.15499 1.70748 5.31758 1.73605 5.47692 1.77375C5.66042 1.81704 5.76881 1.95253 5.85069 2.11422C5.8828 2.17754 5.85923 2.20965 5.8068 2.24558C4.91347 2.85436 4.12176 3.57772 3.4134 4.39238C2.91651 4.96376 2.48325 5.58049 2.10359 6.23552C2.08062 6.27498 2.06913 6.32388 2.00875 6.35981Z" fill="#FF6400"/>
  <path d="M9.31445 14.2751C11.2331 13.2802 12.7797 11.8847 13.9681 10.0896C14.0167 10.1076 13.9938 10.1479 13.9938 10.1759C13.9952 10.8088 14.0047 11.4424 13.9917 12.075C13.9826 12.5121 13.9022 12.9291 13.4854 13.1889C13.2863 13.3132 13.0727 13.4051 12.8554 13.4908C12.2115 13.745 11.5494 13.9399 10.8711 14.0728C10.3713 14.1708 9.86936 14.2633 9.35981 14.301C9.34862 14.3019 9.33625 14.2881 9.31445 14.2751Z" fill="#FF6400"/>
  <path d="M23.164 12.442C22.492 12.442 21.904 12.314 21.4 12.058C20.904 11.794 20.52 11.422 20.248 10.942C19.984 10.462 19.852 9.894 19.852 9.238V3.718H21.148V9.238C21.148 9.886 21.324 10.386 21.676 10.738C22.028 11.082 22.524 11.254 23.164 11.254C23.804 11.254 24.3 11.082 24.652 10.738C25.004 10.386 25.18 9.886 25.18 9.238V3.718H26.476V9.238C26.476 9.894 26.34 10.462 26.068 10.942C25.804 11.422 25.424 11.794 24.928 12.058C24.432 12.314 23.844 12.442 23.164 12.442ZM28.112 12.25V5.866H29.276L29.324 7.57L29.168 7.486C29.24 7.07 29.376 6.734 29.576 6.478C29.776 6.222 30.02 6.034 30.308 5.914C30.596 5.786 30.908 5.722 31.244 5.722C31.724 5.722 32.12 5.83 32.432 6.046C32.752 6.254 32.992 6.542 33.152 6.91C33.32 7.27 33.404 7.682 33.404 8.146V12.25H32.132V8.53C32.132 8.154 32.092 7.838 32.012 7.582C31.932 7.326 31.8 7.13 31.616 6.994C31.432 6.858 31.192 6.79 30.896 6.79C30.448 6.79 30.084 6.938 29.804 7.234C29.524 7.53 29.384 7.962 29.384 8.53V12.25H28.112ZM35.0116 12.25V5.866H36.2836V12.25H35.0116ZM34.9876 4.942V3.67H36.3076V4.942H34.9876ZM40.9309 12.394C40.4909 12.394 40.0989 12.298 39.7549 12.106C39.4189 11.906 39.1589 11.634 38.9749 11.29L38.9389 12.25H37.7509V3.73H39.0229V6.766C39.1909 6.486 39.4389 6.242 39.7669 6.034C40.1029 5.826 40.4909 5.722 40.9309 5.722C41.4829 5.722 41.9629 5.858 42.3709 6.13C42.7789 6.402 43.0909 6.79 43.3069 7.294C43.5309 7.79 43.6429 8.378 43.6429 9.058C43.6429 9.738 43.5309 10.33 43.3069 10.834C43.0909 11.33 42.7789 11.714 42.3709 11.986C41.9629 12.258 41.4829 12.394 40.9309 12.394ZM40.7269 11.29C41.2149 11.29 41.6029 11.094 41.8909 10.702C42.1789 10.302 42.3229 9.754 42.3229 9.058C42.3229 8.362 42.1789 7.818 41.8909 7.426C41.6029 7.026 41.2189 6.826 40.7389 6.826C40.3789 6.826 40.0709 6.914 39.8149 7.09C39.5589 7.266 39.3629 7.522 39.2269 7.858C39.0909 8.186 39.0229 8.586 39.0229 9.058C39.0229 9.514 39.0909 9.91 39.2269 10.246C39.3629 10.582 39.5589 10.842 39.8149 11.026C40.0709 11.202 40.3749 11.29 40.7269 11.29ZM46.7314 12.394C46.0674 12.394 45.5354 12.242 45.1354 11.938C44.7434 11.634 44.5474 11.206 44.5474 10.654C44.5474 10.102 44.7114 9.674 45.0394 9.37C45.3754 9.058 45.8914 8.834 46.5874 8.698L48.7834 8.278C48.7834 7.782 48.6674 7.414 48.4354 7.174C48.2034 6.926 47.8594 6.802 47.4034 6.802C46.9954 6.802 46.6754 6.894 46.4434 7.078C46.2114 7.254 46.0514 7.518 45.9634 7.87L44.6554 7.786C44.7754 7.146 45.0714 6.642 45.5434 6.274C46.0234 5.906 46.6434 5.722 47.4034 5.722C48.2674 5.722 48.9234 5.954 49.3714 6.418C49.8274 6.874 50.0554 7.518 50.0554 8.35V10.834C50.0554 10.986 50.0794 11.094 50.1274 11.158C50.1834 11.214 50.2714 11.242 50.3914 11.242H50.6194V12.25C50.5794 12.258 50.5154 12.266 50.4274 12.274C50.3394 12.282 50.2474 12.286 50.1514 12.286C49.8794 12.286 49.6434 12.242 49.4434 12.154C49.2514 12.066 49.1074 11.922 49.0114 11.722C48.9154 11.514 48.8674 11.238 48.8674 10.894L48.9994 10.954C48.9354 11.234 48.7954 11.482 48.5794 11.698C48.3714 11.914 48.1034 12.086 47.7754 12.214C47.4554 12.334 47.1074 12.394 46.7314 12.394ZM46.9354 11.386C47.3194 11.386 47.6474 11.314 47.9194 11.17C48.1914 11.018 48.4034 10.81 48.5554 10.546C48.7074 10.282 48.7834 9.982 48.7834 9.646V9.238L46.9114 9.598C46.5274 9.67 46.2554 9.786 46.0954 9.946C45.9434 10.098 45.8674 10.294 45.8674 10.534C45.8674 10.806 45.9594 11.018 46.1434 11.17C46.3354 11.314 46.5994 11.386 46.9354 11.386ZM51.5734 12.25V5.866H52.7374L52.7854 7.57L52.6294 7.486C52.7014 7.07 52.8374 6.734 53.0374 6.478C53.2374 6.222 53.4814 6.034 53.7694 5.914C54.0574 5.786 54.3694 5.722 54.7054 5.722C55.1854 5.722 55.5814 5.83 55.8934 6.046C56.2134 6.254 56.4534 6.542 56.6134 6.91C56.7814 7.27 56.8654 7.682 56.8654 8.146V12.25H55.5934V8.53C55.5934 8.154 55.5534 7.838 55.4734 7.582C55.3934 7.326 55.2614 7.13 55.0774 6.994C54.8934 6.858 54.6534 6.79 54.3574 6.79C53.9094 6.79 53.5454 6.938 53.2654 7.234C52.9854 7.53 52.8454 7.962 52.8454 8.53V12.25H51.5734ZM58.473 12.25V3.73H59.745V9.022L62.613 5.866H64.221L61.725 8.554L64.317 12.25H62.853L60.873 9.346L59.745 10.546V12.25H58.473Z" fill="#1E1E1E"/>
</svg>
