<svg width="28" height="18" viewBox="0 0 28 18" fill="none" xmlns="http://www.w3.org/2000/svg">
<path d="M5.48346 0.000976562H12.4722C13.4478 0.000976562 14.0546 0.818125 13.827 1.82398L10.5732 16.1798C10.3436 17.1821 9.36682 18 8.39057 18H1.4025C0.428292 18 -0.179841 17.1821 0.0477404 16.1798L3.30287 1.82398C3.53045 0.818125 4.5067 0.000976562 5.48346 0.000976562Z" fill="#E21836"/>
<path d="M11.8902 0H19.9271C20.9025 0 20.4627 0.817149 20.2332 1.823L16.98 16.1788C16.7517 17.1811 16.8229 17.999 15.8455 17.999H7.8086C6.83116 17.999 6.22627 17.1811 6.45589 16.1788L9.70898 1.823C9.93996 0.817149 10.9142 0 11.8902 0Z" fill="#00447C"/>
<path d="M19.6087 0H26.5974C27.5744 0 28.1811 0.817149 27.9517 1.823L24.6984 16.1788C24.4688 17.1811 23.4914 17.999 22.5146 17.999H15.5291C14.5516 17.999 13.9454 17.1811 14.1743 16.1788L17.4281 1.823C17.6557 0.817149 18.6312 0 19.6087 0Z" fill="#007B84"/>
<path d="M7.30824 4.60054C6.58955 4.60807 6.3773 4.60054 6.3095 4.58409C6.28344 4.71135 5.79847 7.01033 5.7971 7.01225C5.69268 7.47737 5.61671 7.80892 5.35863 8.02301C5.21214 8.14747 5.04111 8.20751 4.84283 8.20751C4.52411 8.20751 4.33844 8.04489 4.30726 7.73645L4.3013 7.63054C4.3013 7.63054 4.3984 7.00752 4.3984 7.00402C4.3984 7.00402 4.90739 4.90899 4.99852 4.63205C5.00329 4.6163 5.00466 4.60807 5.00585 4.60054C4.01512 4.60947 3.83949 4.60054 3.8274 4.58409C3.82076 4.60667 3.79623 4.73656 3.79623 4.73656L3.2765 7.09785L3.23187 7.29811L3.14551 7.95316C3.14551 8.14747 3.18264 8.30607 3.25657 8.44016C3.49335 8.86537 4.16877 8.92908 4.55086 8.92908C5.04315 8.92908 5.50496 8.8216 5.81703 8.62537C6.35873 8.29644 6.50046 7.78231 6.62685 7.32542L6.68545 7.09103C6.68545 7.09103 7.20978 4.91511 7.29887 4.63205C7.30227 4.6163 7.30364 4.60807 7.30824 4.60054ZM9.09221 6.35587C8.96581 6.35587 8.73483 6.38738 8.52735 6.49189C8.45205 6.53163 8.38085 6.57749 8.30573 6.62318L8.37352 6.37163L8.33639 6.32926C7.89639 6.42082 7.79793 6.43307 7.39148 6.49189L7.35741 6.51517C7.31023 6.91727 7.26832 7.21958 7.09338 8.00995C7.02677 8.30124 6.95761 8.59533 6.88828 8.88592L6.90702 8.92285C7.32352 8.90027 7.44991 8.90027 7.8119 8.9064L7.8412 8.87366C7.88719 8.63156 7.89315 8.57485 7.99502 8.08452C8.04288 7.85205 8.14271 7.34125 8.19194 7.15937C8.28239 7.1163 8.37165 7.07394 8.45682 7.07394C8.6597 7.07394 8.635 7.25582 8.62717 7.32829C8.61848 7.44995 8.54455 7.84733 8.46875 8.1885L8.41815 8.40872C8.38289 8.57135 8.34422 8.72942 8.30896 8.89064L8.32429 8.92285C8.73483 8.90027 8.86003 8.90027 9.2106 8.9064L9.25182 8.87366C9.31519 8.49555 9.33376 8.39437 9.44619 7.84382L9.50274 7.59087C9.61262 7.09582 9.66781 6.8448 9.58468 6.64033C9.49678 6.41119 9.28589 6.35587 9.09221 6.35587ZM11.0851 6.87419C10.8669 6.91725 10.7277 6.94596 10.5894 6.96451C10.4523 6.9871 10.3186 7.00758 10.1077 7.03769L10.091 7.05327L10.0756 7.0657C10.0537 7.22709 10.0383 7.36661 10.0092 7.53064C9.98451 7.70026 9.94653 7.893 9.88469 8.16993C9.83682 8.38192 9.81212 8.45579 9.78487 8.53037C9.75829 8.60494 9.729 8.67741 9.67517 8.8859L9.68777 8.90515L9.69833 8.92283C9.89542 8.91321 10.0244 8.90638 10.1569 8.90515C10.2893 8.90025 10.4264 8.90515 10.6386 8.90638L10.6572 8.8908L10.6771 8.87364C10.7078 8.68564 10.7124 8.63505 10.7311 8.54332C10.7497 8.44494 10.7817 8.30875 10.8603 7.94499C10.8974 7.77414 10.9388 7.60381 10.9773 7.42946C11.0173 7.2558 11.0592 7.08478 11.0991 6.91392L11.0931 6.89327L11.0851 6.87419ZM11.0898 6.17534C10.8915 6.05508 10.5435 6.09324 10.3092 6.25936C10.0757 6.42216 10.0491 6.65323 10.2467 6.77507C10.4416 6.89201 10.791 6.85717 11.0232 6.68965C11.2562 6.52334 11.2853 6.29438 11.0898 6.17534ZM12.2889 8.96052C12.6901 8.96052 13.1013 8.84691 13.4108 8.50976C13.6489 8.23633 13.7581 7.8295 13.796 7.66198C13.9191 7.10671 13.8232 6.84746 13.7028 6.68956C13.5198 6.44886 13.1965 6.37166 12.8611 6.37166C12.6594 6.37166 12.179 6.39214 11.8038 6.74768C11.5343 7.00413 11.4098 7.35213 11.3346 7.68579C11.2588 8.02574 11.1716 8.63773 11.7193 8.86547C11.8883 8.94004 12.1319 8.96052 12.2889 8.96052ZM12.2576 7.71117C12.3501 7.29069 12.4593 6.93778 12.7379 6.93778C12.9563 6.93778 12.9722 7.20036 12.8751 7.62224C12.8577 7.7159 12.778 8.06408 12.6701 8.21235C12.5949 8.32175 12.5058 8.3881 12.4073 8.3881C12.378 8.3881 12.2037 8.3881 12.201 8.12219C12.1996 7.9909 12.2257 7.85681 12.2576 7.71117ZM14.7988 8.90645L14.8301 8.87372C14.8746 8.63162 14.8819 8.57472 14.9804 8.08457C15.0296 7.8521 15.1315 7.3413 15.1793 7.15942C15.27 7.11618 15.3577 7.07382 15.4456 7.07382C15.6471 7.07382 15.6226 7.2557 15.6146 7.32817C15.6072 7.45001 15.5333 7.8472 15.4561 8.18838L15.4083 8.4086C15.3716 8.5714 15.3318 8.7293 15.2965 8.8907L15.3119 8.9229C15.7238 8.90032 15.8442 8.90032 16.1968 8.90645L16.2394 8.87372C16.3012 8.49543 16.3179 8.39424 16.4338 7.84388L16.4889 7.59075C16.5993 7.0957 16.6552 6.84485 16.5734 6.64039C16.483 6.41124 16.2707 6.35592 16.0798 6.35592C15.9532 6.35592 15.721 6.38726 15.5147 6.49194C15.441 6.53168 15.3671 6.57737 15.2945 6.62323L15.3577 6.37168L15.3238 6.32914C14.884 6.42087 14.7834 6.43312 14.3775 6.49194L14.3463 6.51522C14.2971 6.91732 14.2571 7.21946 14.0821 8.01C14.0155 8.30129 13.9464 8.59538 13.8772 8.88597L13.8958 8.9229C14.313 8.90032 14.4375 8.90032 14.7988 8.90645ZM17.825 8.92282C17.8509 8.79293 18.0048 8.02304 18.0061 8.02304C18.0061 8.02304 18.1371 7.45815 18.1451 7.43767C18.1451 7.43767 18.1864 7.37885 18.2276 7.35557H18.2882C18.8604 7.35557 19.5065 7.35557 20.013 6.97272C20.3576 6.71014 20.5932 6.3224 20.6983 5.85116C20.7255 5.73562 20.7456 5.59821 20.7456 5.46079C20.7456 5.28031 20.7104 5.10176 20.6085 4.96224C20.3502 4.59095 19.836 4.58412 19.2423 4.58132C19.2404 4.58132 18.9497 4.58412 18.9497 4.58412C18.1898 4.59375 17.885 4.59095 17.7598 4.5752C17.7492 4.63209 17.7293 4.73327 17.7293 4.73327C17.7293 4.73327 17.4571 6.02971 17.4571 6.03181C17.4571 6.03181 16.8057 8.7882 16.775 8.91809C17.4385 8.90986 17.7106 8.90986 17.825 8.92282ZM18.3294 6.61982C18.3294 6.61982 18.6189 5.326 18.6175 5.3309L18.6269 5.26455L18.631 5.21396L18.7466 5.22622C18.7466 5.22622 19.3435 5.27891 19.3575 5.28031C19.5931 5.37396 19.6902 5.61536 19.6224 5.93046C19.5605 6.21842 19.3788 6.46052 19.1452 6.57745C18.9529 6.67653 18.7173 6.68476 18.4746 6.68476H18.3175L18.3294 6.61982ZM20.1314 7.73513C20.0549 8.07019 19.967 8.68217 20.512 8.90029C20.6857 8.97626 20.8414 8.99884 20.9997 8.99062C21.1668 8.98134 21.3216 8.89521 21.4651 8.77127C21.4521 8.82221 21.4392 8.87315 21.4262 8.92427L21.4509 8.95701C21.8429 8.94003 21.9645 8.94003 22.3892 8.94335L22.4277 8.91324C22.4897 8.53863 22.5481 8.17487 22.7093 7.4582C22.7878 7.11492 22.8661 6.77497 22.9467 6.43309L22.9341 6.39545C22.4956 6.47895 22.3784 6.49681 21.9567 6.55825L21.9246 6.58503C21.9204 6.61987 21.916 6.6533 21.9119 6.68674C21.8463 6.57786 21.7512 6.4849 21.6046 6.42696C21.417 6.35116 20.9765 6.44884 20.5978 6.80315C20.3317 7.0561 20.204 7.40271 20.1314 7.73513ZM21.0523 7.75562C21.1462 7.34266 21.254 6.99326 21.5334 6.99326C21.71 6.99326 21.803 7.16078 21.7841 7.44647C21.7691 7.51772 21.7529 7.59282 21.7337 7.67772C21.7058 7.80043 21.6754 7.92209 21.646 8.04393C21.616 8.12725 21.5811 8.20585 21.5427 8.25819C21.4708 8.36287 21.2998 8.42782 21.2014 8.42782C21.1734 8.42782 21.001 8.42782 20.9951 8.16664C20.9937 8.03658 21.0198 7.90266 21.0523 7.75562ZM25.8612 6.39211L25.8273 6.35237C25.3935 6.4427 25.3149 6.45705 24.9163 6.51237L24.887 6.54248C24.8857 6.54738 24.8845 6.55491 24.8824 6.56173L24.8811 6.55491C24.5843 7.25845 24.593 7.10668 24.3515 7.66054C24.3501 7.63534 24.3501 7.61958 24.3487 7.5928L24.2883 6.39211L24.2503 6.35237C23.7958 6.4427 23.7851 6.45705 23.3653 6.51237L23.3326 6.54248C23.328 6.55683 23.328 6.57259 23.3253 6.58974L23.328 6.59587C23.3805 6.8714 23.3679 6.80996 23.4205 7.24479C23.4451 7.45818 23.4778 7.6728 23.5023 7.88356C23.5437 8.23629 23.5669 8.40995 23.6175 8.94824C23.334 9.42893 23.2669 9.61081 22.994 10.0327L22.9959 10.0369L22.8037 10.3492C22.7817 10.3821 22.7618 10.4047 22.7339 10.4143C22.7032 10.4299 22.6633 10.4327 22.608 10.4327H22.5015L22.3433 10.9736L22.8862 10.9832C23.2049 10.9818 23.4052 10.8287 23.513 10.6228L23.8544 10.0217H23.849L23.8849 9.9793C24.1145 9.47129 25.8612 6.39211 25.8612 6.39211ZM20.1314 13.4962H19.9011L20.7535 10.5989H21.0363L21.1261 10.3004L21.1347 10.6323C21.1242 10.8375 21.2812 11.0194 21.6938 10.9893H22.1709L22.3352 10.4314H22.1556C22.0524 10.4314 22.0045 10.4046 22.0105 10.3472L22.0018 10.0095H21.1182V10.0112C20.8325 10.0174 19.9795 10.0394 19.8067 10.0867C19.5977 10.142 19.3775 10.3048 19.3775 10.3048L19.464 10.006H18.6375L18.4653 10.5989L17.6014 13.5405H17.4338L17.2694 14.0944H18.9156L18.8605 14.279H19.6716L19.7255 14.0944H19.9531L20.1314 13.4962ZM19.456 11.1876C19.3236 11.2252 19.0773 11.3394 19.0773 11.3394L19.2964 10.5989H19.9531L19.7946 11.1384C19.7946 11.1384 19.5917 11.1507 19.456 11.1876ZM19.4686 12.2455C19.4686 12.2455 19.2623 12.2721 19.1265 12.3036C18.9928 12.3452 18.7421 12.4765 18.7421 12.4765L18.9683 11.7059H19.6284L19.4686 12.2455ZM19.1006 13.503H18.4419L18.6329 12.8527H19.2896L19.1006 13.503ZM20.687 11.7059H21.6365L21.5001 12.16H20.5379L20.3935 12.6565H21.2353L20.5979 13.5788C20.5533 13.6466 20.5132 13.6706 20.4688 13.6896C20.4242 13.7129 20.3656 13.7402 20.2978 13.7402H20.0642L19.9038 14.2839H20.5146C20.8321 14.2839 21.0197 14.1355 21.1582 13.9407L21.5953 13.3259L21.6891 13.9501C21.7091 14.0671 21.7908 14.1355 21.8462 14.1621C21.9074 14.1936 21.9706 14.2477 22.0598 14.2558C22.1555 14.26 22.2247 14.2633 22.2707 14.2633H22.5709L22.7511 13.6548H22.6327C22.5647 13.6548 22.4477 13.6431 22.4278 13.6212C22.4078 13.5946 22.4078 13.5536 22.3971 13.4913L22.3019 12.8657H21.912L22.083 12.6565H23.0432L23.1909 12.16H22.3019L22.4404 11.7059H23.3267L23.4911 11.1459H20.8487L20.687 11.7059ZM12.6675 13.6295L12.8891 12.8718H13.7999L13.9663 12.3083H13.0546L13.1938 11.842H14.0847L14.2498 11.2964H12.0207L11.859 11.842H12.3654L12.2303 12.3083H11.7225L11.5542 12.8815H12.0605L11.7651 13.8838C11.7253 14.0165 11.7839 14.0671 11.821 14.1287C11.859 14.1888 11.8975 14.2285 11.984 14.2511C12.0733 14.2716 12.1344 14.2838 12.2176 14.2838H13.2444L13.4274 13.6596L12.9722 13.7238C12.8843 13.7238 12.6409 13.713 12.6675 13.6295ZM12.7719 10.0026L12.5411 10.4313C12.4917 10.5249 12.4472 10.5831 12.4072 10.6098C12.372 10.6324 12.3021 10.6419 12.2009 10.6419H12.0805L11.9195 11.1903H12.3195C12.5118 11.1903 12.6595 11.1178 12.73 11.0816C12.8058 11.0399 12.8258 11.0638 12.8844 11.0056L13.0194 10.8854H14.2684L14.4342 10.3144H13.5199L13.6795 10.0026H12.7719ZM14.6158 13.6405C14.5945 13.609 14.6098 13.5535 14.6424 13.4379L14.9838 12.2768H16.1981C16.3751 12.2742 16.5029 12.2721 16.586 12.266C16.6753 12.2563 16.7724 12.2236 16.8782 12.1648C16.9874 12.1032 17.0432 12.0382 17.0904 11.9636C17.1431 11.8893 17.2275 11.7265 17.3001 11.4754L17.7292 10.006L16.469 10.0136C16.469 10.0136 16.0809 10.0724 15.9101 10.1373C15.7377 10.2098 15.4914 10.4122 15.4914 10.4122L15.6052 10.0094H14.8267L13.7368 13.7238C13.6982 13.8681 13.6723 13.9727 13.6663 14.0356C13.6643 14.1033 13.7494 14.1704 13.8046 14.221C13.8699 14.2716 13.9663 14.2633 14.0588 14.2716C14.156 14.2791 14.2944 14.2838 14.4853 14.2838H15.0836L15.2672 13.6466L14.7316 13.6986C14.6744 13.6986 14.633 13.6671 14.6158 13.6405ZM15.204 11.4926H16.4796L16.3985 11.7538C16.3871 11.7599 16.3598 11.7408 16.23 11.7566H15.1255L15.204 11.4926ZM15.4595 10.6166H16.7458L16.6533 10.9312C16.6533 10.9312 16.0471 10.9251 15.95 10.9434C15.5227 11.0194 15.2732 11.254 15.2732 11.254L15.4595 10.6166ZM16.427 12.6284C16.4165 12.6674 16.3998 12.6912 16.3764 12.7091C16.3505 12.7262 16.3086 12.7324 16.2461 12.7324H16.0644L16.0751 12.4143H15.3191L15.2884 13.9693C15.2872 14.0815 15.2978 14.1464 15.3777 14.1984C15.4576 14.2634 15.7037 14.2716 16.0351 14.2716H16.5088L16.6798 13.6896L16.2674 13.7128L16.1303 13.7211C16.1115 13.7128 16.0937 13.7053 16.0737 13.6848C16.0564 13.6671 16.0271 13.678 16.0318 13.5658L16.0351 13.1672L16.4676 13.1488C16.7011 13.1488 16.8009 13.0707 16.8861 12.9963C16.9674 12.9251 16.9939 12.8432 17.0246 12.7324L17.0972 12.3795H16.5028L16.427 12.6284Z" fill="#FEFEFE"/>
</svg>
