<svg width="24" height="18" viewBox="0 0 24 18" fill="none" xmlns="http://www.w3.org/2000/svg">
<g clip-path="url(#clip0_4763_29340)">
<rect width="24" height="6.23077" fill="#008BAF"/>
<rect y="11.7693" width="24" height="6.23077" fill="#54BD06"/>
<path d="M24 6.23071H0V11.7692H24V6.23071Z" fill="white"/>
<path d="M0 6.47731V6.57687H24V6.47731V6.23071H0V6.47731Z" fill="#DD2A1B"/>
<path d="M0 11.3993V11.7692H24V11.3993V11.25H0V11.3993Z" fill="#DD2A1B"/>
<path d="M3.72754 0.865234C3.85243 0.865255 3.97453 0.877851 4.09375 0.897461C3.05256 1.06919 2.25879 1.9554 2.25879 3.02539C2.25879 4.09532 3.05264 4.98055 4.09375 5.15234C3.97448 5.17197 3.85249 5.18553 3.72754 5.18555C2.51122 5.18555 1.52442 4.21832 1.52441 3.02539C1.52441 1.83246 2.51121 0.865234 3.72754 0.865234Z" fill="white"/>
<path d="M8.57227 4.32153L8.43615 4.73239L8.64561 4.79914" fill="white"/>
<path d="M8.57227 4.32153L8.70838 4.73239L8.49892 4.79914" fill="white"/>
<path d="M8.98877 4.62158L8.54934 4.61966L8.55038 4.83374" fill="white"/>
<path d="M8.98975 4.62061L8.63434 4.87354L8.50395 4.69781" fill="white"/>
<path d="M8.15283 4.62085L8.50824 4.87379L8.63863 4.69806" fill="white"/>
<path d="M8.15381 4.62183L8.59324 4.6199L8.59219 4.83398" fill="white"/>
<path d="M8.83105 5.10278L8.69411 4.69134L8.48549 4.7575" fill="white"/>
<path d="M8.83154 5.10229L8.47459 4.84772L8.60345 4.67362" fill="white"/>
<path d="M8.31348 5.10156L8.66933 4.84817L8.53939 4.67289" fill="white"/>
<path d="M8.31299 5.10107L8.44841 4.69069L8.65856 4.75791" fill="white"/>
<path d="M8.57227 2.59351L8.43615 3.00436L8.64561 3.07111" fill="white"/>
<path d="M8.57227 2.59351L8.70838 3.00436L8.49892 3.07111" fill="white"/>
<path d="M8.98877 2.89355L8.54934 2.89163L8.55038 3.10571" fill="white"/>
<path d="M8.98975 2.89258L8.63434 3.14552L8.50395 2.96978" fill="white"/>
<path d="M8.15283 2.89282L8.50824 3.14576L8.63863 2.97003" fill="white"/>
<path d="M8.15381 2.8938L8.59324 2.89188L8.59219 3.10595" fill="white"/>
<path d="M8.83105 3.37476L8.69411 2.96331L8.48549 3.02948" fill="white"/>
<path d="M8.83154 3.37427L8.47459 3.1197L8.60345 2.9456" fill="white"/>
<path d="M8.31348 3.37354L8.66933 3.12014L8.53939 2.94486" fill="white"/>
<path d="M8.31299 3.37305L8.44841 2.96266L8.65856 3.02988" fill="white"/>
<path d="M8.57178 0.865479L8.43566 1.27633L8.64512 1.34308" fill="white"/>
<path d="M8.57178 0.865479L8.70789 1.27633L8.49843 1.34308" fill="white"/>
<path d="M8.98828 1.16553L8.54885 1.16361L8.54989 1.37768" fill="white"/>
<path d="M8.98926 1.16455L8.63385 1.41749L8.50346 1.24176" fill="white"/>
<path d="M8.15283 1.16479L8.50824 1.41773L8.63863 1.242" fill="white"/>
<path d="M8.15381 1.16577L8.59324 1.16385L8.59219 1.37793" fill="white"/>
<path d="M8.83105 1.64673L8.69411 1.23529L8.48549 1.30145" fill="white"/>
<path d="M8.83154 1.64624L8.47459 1.39167L8.60345 1.21757" fill="white"/>
<path d="M8.31348 1.64551L8.66933 1.39212L8.53939 1.21684" fill="white"/>
<path d="M8.31299 1.64502L8.44841 1.23464L8.65856 1.30186" fill="white"/>
<path d="M10.334 4.32153L10.1979 4.73239L10.4073 4.79914" fill="white"/>
<path d="M10.334 4.32153L10.4701 4.73239L10.2606 4.79914" fill="white"/>
<path d="M10.7505 4.62158L10.3111 4.61966L10.3121 4.83374" fill="white"/>
<path d="M10.7515 4.62061L10.3961 4.87354L10.2657 4.69781" fill="white"/>
<path d="M9.91455 4.62085L10.27 4.87379L10.4004 4.69806" fill="white"/>
<path d="M9.91553 4.62183L10.355 4.6199L10.3539 4.83398" fill="white"/>
<path d="M10.5928 5.10278L10.4558 4.69134L10.2472 4.7575" fill="white"/>
<path d="M10.5933 5.10229L10.2363 4.84772L10.3652 4.67362" fill="white"/>
<path d="M10.0752 5.10156L10.4311 4.84817L10.3011 4.67289" fill="white"/>
<path d="M10.0747 5.10107L10.2101 4.69069L10.4203 4.75791" fill="white"/>
<path d="M10.334 2.59351L10.1979 3.00436L10.4073 3.07111" fill="white"/>
<path d="M10.334 2.59351L10.4701 3.00436L10.2606 3.07111" fill="white"/>
<path d="M10.7505 2.89355L10.3111 2.89163L10.3121 3.10571" fill="white"/>
<path d="M10.7515 2.89258L10.3961 3.14552L10.2657 2.96978" fill="white"/>
<path d="M9.91455 2.89282L10.27 3.14576L10.4004 2.97003" fill="white"/>
<path d="M9.91553 2.8938L10.355 2.89188L10.3539 3.10595" fill="white"/>
<path d="M10.5928 3.37476L10.4558 2.96331L10.2472 3.02948" fill="white"/>
<path d="M10.5933 3.37427L10.2363 3.1197L10.3652 2.9456" fill="white"/>
<path d="M10.0752 3.37354L10.4311 3.12014L10.3011 2.94486" fill="white"/>
<path d="M10.0747 3.37305L10.2101 2.96266L10.4203 3.02988" fill="white"/>
<path d="M10.3335 0.865479L10.1974 1.27633L10.4068 1.34308" fill="white"/>
<path d="M10.3335 0.865479L10.4696 1.27633L10.2602 1.34308" fill="white"/>
<path d="M10.75 1.16553L10.3106 1.16361L10.3116 1.37768" fill="white"/>
<path d="M10.751 1.16455L10.3956 1.41749L10.2652 1.24176" fill="white"/>
<path d="M9.91455 1.16479L10.27 1.41773L10.4004 1.242" fill="white"/>
<path d="M9.91553 1.16577L10.355 1.16385L10.3539 1.37793" fill="white"/>
<path d="M10.5928 1.64673L10.4558 1.23529L10.2472 1.30145" fill="white"/>
<path d="M10.5933 1.64624L10.2363 1.39167L10.3652 1.21757" fill="white"/>
<path d="M10.0752 1.64551L10.4311 1.39212L10.3011 1.21684" fill="white"/>
<path d="M10.0747 1.64502L10.2101 1.23464L10.4203 1.30186" fill="white"/>
<path d="M12.0962 4.32153L11.9601 4.73239L12.1695 4.79914" fill="white"/>
<path d="M12.0962 4.32153L12.2323 4.73239L12.0228 4.79914" fill="white"/>
<path d="M12.5127 4.62158L12.0733 4.61966L12.0743 4.83374" fill="white"/>
<path d="M12.5137 4.62061L12.1583 4.87354L12.0279 4.69781" fill="white"/>
<path d="M11.6768 4.62085L12.0322 4.87379L12.1626 4.69806" fill="white"/>
<path d="M11.6777 4.62183L12.1172 4.6199L12.1161 4.83398" fill="white"/>
<path d="M12.355 5.10278L12.218 4.69134L12.0094 4.7575" fill="white"/>
<path d="M12.3555 5.10229L11.9985 4.84772L12.1274 4.67362" fill="white"/>
<path d="M11.8374 5.10156L12.1933 4.84817L12.0633 4.67289" fill="white"/>
<path d="M11.8369 5.10107L11.9723 4.69069L12.1825 4.75791" fill="white"/>
<path d="M12.0962 2.59351L11.9601 3.00436L12.1695 3.07111" fill="white"/>
<path d="M12.0962 2.59351L12.2323 3.00436L12.0228 3.07111" fill="white"/>
<path d="M12.5127 2.89355L12.0733 2.89163L12.0743 3.10571" fill="white"/>
<path d="M12.5137 2.89258L12.1583 3.14552L12.0279 2.96978" fill="white"/>
<path d="M11.6768 2.89282L12.0322 3.14576L12.1626 2.97003" fill="white"/>
<path d="M11.6777 2.8938L12.1172 2.89188L12.1161 3.10595" fill="white"/>
<path d="M12.355 3.37476L12.218 2.96331L12.0094 3.02948" fill="white"/>
<path d="M12.3555 3.37427L11.9985 3.1197L12.1274 2.9456" fill="white"/>
<path d="M11.8374 3.37354L12.1933 3.12014L12.0633 2.94486" fill="white"/>
<path d="M11.8369 3.37305L11.9723 2.96266L12.1825 3.02988" fill="white"/>
<path d="M12.0962 0.865479L11.9601 1.27633L12.1695 1.34308" fill="white"/>
<path d="M12.0962 0.865479L12.2323 1.27633L12.0228 1.34308" fill="white"/>
<path d="M12.5127 1.16553L12.0733 1.16361L12.0743 1.37768" fill="white"/>
<path d="M12.5137 1.16455L12.1583 1.41749L12.0279 1.24176" fill="white"/>
<path d="M11.6768 1.16479L12.0322 1.41773L12.1626 1.242" fill="white"/>
<path d="M11.6777 1.16577L12.1172 1.16385L12.1161 1.37793" fill="white"/>
<path d="M12.355 1.64673L12.218 1.23529L12.0094 1.30145" fill="white"/>
<path d="M12.3555 1.64624L11.9985 1.39167L12.1274 1.21757" fill="white"/>
<path d="M11.8374 1.64551L12.1933 1.39212L12.0633 1.21684" fill="white"/>
<path d="M11.8369 1.64502L11.9723 1.23464L12.1825 1.30186" fill="white"/>
<path d="M5.04883 4.32153L4.91272 4.73239L5.12217 4.79914" fill="white"/>
<path d="M5.04883 4.32153L5.18494 4.73239L4.97548 4.79914" fill="white"/>
<path d="M5.46533 4.62158L5.0259 4.61966L5.02695 4.83374" fill="white"/>
<path d="M5.46631 4.62061L5.1109 4.87354L4.98051 4.69781" fill="white"/>
<path d="M4.62939 4.62085L4.9848 4.87379L5.11519 4.69806" fill="white"/>
<path d="M4.63037 4.62183L5.0698 4.6199L5.06876 4.83398" fill="white"/>
<path d="M5.30762 5.10278L5.17067 4.69134L4.96205 4.7575" fill="white"/>
<path d="M5.30811 5.10229L4.95116 4.84772L5.08001 4.67362" fill="white"/>
<path d="M4.79004 5.10156L5.1459 4.84817L5.01595 4.67289" fill="white"/>
<path d="M4.78955 5.10107L4.92497 4.69069L5.13512 4.75791" fill="white"/>
<path d="M6.81055 4.32153L6.67443 4.73239L6.88389 4.79914" fill="white"/>
<path d="M6.81055 4.32153L6.94666 4.73239L6.7372 4.79914" fill="white"/>
<path d="M7.22705 4.62158L6.78762 4.61966L6.78866 4.83374" fill="white"/>
<path d="M7.22803 4.62061L6.87262 4.87354L6.74223 4.69781" fill="white"/>
<path d="M6.39111 4.62085L6.74652 4.87379L6.87691 4.69806" fill="white"/>
<path d="M6.39209 4.62183L6.83152 4.6199L6.83048 4.83398" fill="white"/>
<path d="M7.06934 5.10278L6.93239 4.69134L6.72377 4.7575" fill="white"/>
<path d="M7.06982 5.10229L6.71288 4.84772L6.84173 4.67362" fill="white"/>
<path d="M6.55176 5.10156L6.90762 4.84817L6.77767 4.67289" fill="white"/>
<path d="M6.55127 5.10107L6.68669 4.69069L6.89684 4.75791" fill="white"/>
<path d="M6.81055 2.59351L6.67443 3.00436L6.88389 3.07111" fill="white"/>
<path d="M6.81055 2.59351L6.94666 3.00436L6.7372 3.07111" fill="white"/>
<path d="M7.22705 2.89355L6.78762 2.89163L6.78866 3.10571" fill="white"/>
<path d="M7.22803 2.89258L6.87262 3.14552L6.74223 2.96978" fill="white"/>
<path d="M6.39111 2.89282L6.74652 3.14576L6.87691 2.97003" fill="white"/>
<path d="M6.39209 2.8938L6.83152 2.89188L6.83048 3.10595" fill="white"/>
<path d="M7.06934 3.37476L6.93239 2.96331L6.72377 3.02948" fill="white"/>
<path d="M7.06982 3.37427L6.71288 3.1197L6.84173 2.9456" fill="white"/>
<path d="M6.55176 3.37354L6.90762 3.12014L6.77767 2.94486" fill="white"/>
<path d="M6.55127 3.37305L6.68669 2.96266L6.89684 3.02988" fill="white"/>
</g>
<defs>
<clipPath id="clip0_4763_29340">
<rect width="24" height="18" rx="4" fill="white"/>
</clipPath>
</defs>
</svg>
