<svg width="31" height="10" viewBox="0 0 31 10" fill="none" xmlns="http://www.w3.org/2000/svg">
<path d="M20.2695 0C21.0138 0 21.8345 0.149575 22.5801 0.448242L22.1328 2.53711C21.3873 2.1648 20.4939 2.01493 19.6738 2.08984C19.152 2.08984 18.7046 2.388 18.6299 2.91016C18.6299 4.0285 22.1324 4.17751 22.1328 6.71387C22.1328 8.72829 20.4185 10.0708 17.6611 9.99707C16.7666 9.99702 15.7989 9.8469 14.9043 9.47461L15.3516 7.38574C16.1704 7.75936 17.0653 7.98242 17.96 7.98242C18.7042 7.98239 19.4502 7.6837 19.4502 7.0127C19.5245 6.56553 19.1513 6.26658 18.1836 5.81934C17.2889 5.3707 16.0216 4.62624 16.0215 3.20801C16.0215 1.34366 17.8105 0.000127109 20.2695 0ZM4.32227 0.223633C4.91854 0.223832 5.36588 0.672426 5.44043 1.19336L6.48438 6.78906L9.16602 0.223633H11.7744L7.75 9.92188H5.06738L3.05566 2.16406C2.96014 1.80734 2.75713 1.49239 2.45898 1.34375C1.7147 0.970091 0.894712 0.672444 0 0.522461V0.223633H4.32227ZM13.2656 9.92188H10.7314L12.8174 0.223633H15.3516L13.2656 9.92188ZM31 9.92188H28.6904L28.3916 8.50488H25.1875L24.666 9.92188H22.0586L25.7832 0.969727C25.9323 0.522435 26.3799 0.223726 26.8271 0.223633H28.9883L31 9.92188ZM25.8584 6.49023H27.9443L27.2002 2.83496L25.8584 6.49023Z" fill="#172B85"/>
</svg>
