<svg width="65" height="22" viewBox="0 0 65 22" fill="none" xmlns="http://www.w3.org/2000/svg">
<g clip-path="url(#clip0_4736_28679)">
<path d="M34.9199 6.42553C34.8175 6.30411 34.5689 6.23612 34.1692 6.23612H33.789C33.5029 6.2125 33.2165 6.27874 32.9701 6.42553C32.7729 6.64281 32.6441 6.913 32.5996 7.20256L31.4395 12.4719C31.4013 12.6807 31.3163 12.8782 31.1909 13.0498C31.1398 13.1036 31.0776 13.1458 31.0087 13.1734C30.9397 13.2011 30.8655 13.2136 30.7912 13.2101C30.5971 13.2243 30.4037 13.1748 30.2404 13.0692C30.0983 12.898 30.0056 12.6916 29.9723 12.4719L28.8122 7.20256C28.7694 6.91054 28.6366 6.63899 28.432 6.42553C28.1888 6.27981 27.9058 6.21358 27.6229 6.23612H27.2183C26.8186 6.23612 26.5797 6.30411 26.4774 6.42553C26.3676 6.67113 26.3571 6.94946 26.4481 7.20256L27.7252 12.7293C27.8219 13.1854 27.9674 13.6298 28.1591 14.0551C28.2512 14.2679 28.3744 14.4659 28.5246 14.6427C28.7213 14.8348 28.9572 14.9824 29.2163 15.0755C29.4754 15.1685 29.7515 15.2048 30.026 15.1818C30.2688 15.1947 30.5121 15.1701 30.7474 15.109C30.6489 15.5696 30.4126 15.9896 30.0698 16.3139C29.727 16.6381 29.2937 16.8513 28.8269 16.9253C28.572 16.9493 28.3345 17.0649 28.1591 17.2507C28.0577 17.4999 28.0577 17.7786 28.1591 18.0277V18.1103C28.1798 18.3921 28.2948 18.6589 28.4856 18.8679C28.7553 18.969 29.0494 18.986 29.3289 18.9165C30.2475 18.8043 31.1037 18.3948 31.7661 17.7509C32.4641 16.9675 32.9284 16.0053 33.1066 14.973L33.3162 14.0551L34.8955 7.20256C35.0063 6.95692 35.015 6.67759 34.9199 6.42553Z" fill="#1E1E1E"/>
<path d="M35.9046 13.9915V7.21663C35.869 6.93933 35.9385 6.65876 36.0996 6.42988C36.3288 6.27222 36.6078 6.20316 36.8844 6.23562H37.2012C37.3366 6.1958 37.4802 6.19308 37.617 6.22776C37.7537 6.26243 37.8786 6.3332 37.9784 6.43262C38.0782 6.53205 38.1492 6.65644 38.184 6.79271C38.2188 6.92897 38.2161 7.07207 38.1761 7.20692V13.9818C38.2178 14.1168 38.2218 14.2605 38.1877 14.3977C38.1535 14.5348 38.0825 14.66 37.9822 14.7599C37.882 14.8598 37.7563 14.9305 37.6187 14.9646C37.4811 14.9986 37.3367 14.9946 37.2012 14.9531H36.8844C36.6084 14.9865 36.3296 14.9192 36.0996 14.7637C35.9429 14.5383 35.8736 14.2639 35.9046 13.9915Z" fill="#1E1E1E"/>
<path d="M48.6224 13.9918V7.21696C48.5886 6.94045 48.6561 6.66107 48.8125 6.43021C49.044 6.27343 49.3241 6.20452 49.6022 6.23595H49.919C50.1971 6.20452 50.4773 6.27343 50.7087 6.43021C50.8651 6.66107 50.9326 6.94045 50.8988 7.21696V13.9918C50.9405 14.1268 50.9445 14.2706 50.9104 14.4077C50.8762 14.5448 50.8052 14.67 50.7049 14.7699C50.6046 14.8698 50.4789 14.9406 50.3413 14.9746C50.2037 15.0086 50.0594 15.0047 49.9239 14.9631H49.6071C49.4716 15.0047 49.3272 15.0086 49.1896 14.9746C49.052 14.9406 48.9263 14.8698 48.8261 14.7699C48.7258 14.67 48.6548 14.5448 48.6206 14.4077C48.5865 14.2706 48.5905 14.1268 48.6322 13.9918H48.6224Z" fill="#1E1E1E"/>
<path d="M54.515 9.55738V13.9914C54.5497 14.2686 54.4802 14.5489 54.32 14.7781C54.09 14.9337 53.8112 15.001 53.5352 14.9675H53.1989C53.0634 15.0091 52.919 15.0131 52.7814 14.9791C52.6438 14.945 52.5181 14.8742 52.4179 14.7744C52.3176 14.6745 52.2466 14.5492 52.2124 14.4121C52.1783 14.275 52.1823 14.1312 52.224 13.9962V9.55738C52.1922 9.07896 52.2597 8.59914 52.4224 8.14791C52.5851 7.69668 52.8395 7.28374 53.1696 6.93487C53.9512 6.28305 54.9555 5.95762 55.9724 6.02669C57.2008 6.02669 58.0635 6.40065 58.5705 7.14369C59.1067 6.40227 59.9646 6.02993 61.1442 6.02669C62.405 6.02669 63.3409 6.31809 63.9518 6.90087C64.5627 7.48365 64.865 8.36915 64.8585 9.55738V13.9914C64.9002 14.1264 64.9042 14.2702 64.87 14.4073C64.8359 14.5444 64.7648 14.6696 64.6646 14.7695C64.5643 14.8694 64.4386 14.9402 64.301 14.9742C64.1634 15.0082 64.0191 15.0043 63.8836 14.9627H63.5521C63.4166 15.0043 63.2723 15.0082 63.1347 14.9742C62.9971 14.9402 62.8714 14.8694 62.7711 14.7695C62.6709 14.6696 62.5998 14.5444 62.5657 14.4073C62.5315 14.2702 62.5355 14.1264 62.5772 13.9914V9.55738C62.621 9.17176 62.5145 8.78413 62.2799 8.47438C61.9572 8.23798 61.5566 8.13213 61.1588 8.17813C60.7409 8.12972 60.3197 8.23507 59.9743 8.47438C59.7356 8.78227 59.6271 9.17092 59.6721 9.55738V13.9914C59.7138 14.1264 59.7178 14.2702 59.6836 14.4073C59.6495 14.5444 59.5785 14.6696 59.4782 14.7695C59.3779 14.8694 59.2522 14.9402 59.1146 14.9742C58.977 15.0082 58.8327 15.0043 58.6972 14.9627H58.434C58.2985 15.0043 58.1542 15.0082 58.0166 14.9742C57.8789 14.9402 57.7533 14.8694 57.653 14.7695C57.5527 14.6696 57.4817 14.5444 57.4476 14.4073C57.4134 14.2702 57.4174 14.1264 57.4591 13.9914V9.55738C57.5032 9.17023 57.3929 8.78131 57.152 8.47438C56.8185 8.23737 56.4087 8.13183 56.0017 8.17813C55.598 8.13502 55.1928 8.24418 54.8659 8.48409C54.7387 8.63073 54.6421 8.8012 54.5819 8.98549C54.5216 9.16979 54.4989 9.36422 54.515 9.55738Z" fill="#1E1E1E"/>
<path d="M47.3206 9.20792C47.3265 8.74669 47.2176 8.29119 47.0037 7.8821C46.3165 6.63397 44.7761 6.03662 43.3821 6.03177C41.988 6.02691 40.4915 6.63397 39.8043 7.8821C39.5889 8.29082 39.4783 8.7463 39.4825 9.20792V12.0344C39.4825 14.1859 40.7791 15.2737 43.4211 15.2786C43.8496 15.2781 44.2772 15.2375 44.6982 15.1572C44.5681 15.7268 44.2178 16.2224 43.7233 16.5364C43.6156 16.6179 43.4976 16.6849 43.3723 16.7355C43.1826 16.8182 42.985 16.8816 42.7825 16.9249C42.5269 16.9502 42.2894 17.0676 42.1147 17.2552C42.0134 17.5043 42.0134 17.783 42.1147 18.0322V18.1099C42.1343 18.392 42.2494 18.6591 42.4413 18.8675C42.7098 18.9738 43.0056 18.9909 43.2846 18.9161C43.8689 18.8419 44.4324 18.652 44.9419 18.3576C45.2326 18.1936 45.4985 17.9892 45.7315 17.7505C46.8868 16.5655 47.2475 14.8998 47.267 13.302C47.267 12.8795 47.267 12.4569 47.267 12.0344L47.3206 9.20792ZM41.7735 12.0344V9.20792C41.7592 9.03584 41.7863 8.86285 41.8524 8.70324C41.9185 8.54363 42.0218 8.402 42.1537 8.29004C42.5289 8.06548 42.9653 7.96358 43.4016 7.99865C43.8393 7.96451 44.277 8.06631 44.6543 8.29004C44.7862 8.402 44.8895 8.54363 44.9556 8.70324C45.0217 8.86285 45.0488 9.03584 45.0345 9.20792V12.0344C45.0509 12.2137 45.026 12.3944 44.9618 12.5627C44.8976 12.731 44.7958 12.8825 44.664 13.0057C44.2861 13.2372 43.8434 13.3411 43.4016 13.302C42.9612 13.3418 42.5198 13.2378 42.144 13.0057C42.0113 12.8832 41.9089 12.7317 41.8446 12.5633C41.7804 12.3948 41.756 12.2138 41.7735 12.0344Z" fill="#1E1E1E"/>
<path d="M45.4048 3.5595L45.3658 3.50608C45.2098 3.22925 45.0587 3.08842 44.9271 3.05442C44.7199 3.05005 44.5179 3.11886 44.3568 3.24868C44.0818 3.43568 43.7626 3.54785 43.4307 3.57407C43.0796 3.56934 42.7388 3.45559 42.4558 3.24868C42.293 3.11852 42.0893 3.04974 41.8806 3.05442C41.749 3.08842 41.5979 3.22925 41.4468 3.50608L41.4029 3.5595C41.2548 3.73367 41.1705 3.95291 41.1641 4.18113C41.2584 4.38611 41.4153 4.5561 41.6125 4.66678C41.9902 4.95552 42.4206 5.16831 42.8799 5.29328C43.225 5.38318 43.5876 5.38318 43.9327 5.29328C44.392 5.16831 44.8224 4.95552 45.2001 4.66678C45.3982 4.55585 45.5567 4.38608 45.6534 4.18113C45.6431 3.95196 45.5555 3.73296 45.4048 3.5595Z" fill="#1E1E1E"/>
<path d="M21.8562 8.78549C21.3536 6.35934 20.0441 4.1731 18.1396 2.58052C16.2351 0.987934 13.8469 0.0821663 11.3616 0.00976562C11.1715 0.00976562 10.9814 0.00976562 10.7864 0.00976562C10.684 0.00976562 10.5719 0.00976562 10.4647 0.00976562C8.78727 0.0974846 7.15212 0.565717 5.68394 1.37875C4.21577 2.19178 2.95334 3.32814 1.99295 4.70116C1.94934 4.74529 1.91313 4.79612 1.88571 4.85171C0.900559 6.31323 0.281721 7.9889 0.0811522 9.73805C-0.119416 11.4872 0.104141 13.2588 0.73305 14.904C1.36196 16.5492 2.37786 18.0201 3.69547 19.1932C5.01308 20.3662 6.59393 21.2072 8.30531 21.6455H8.38818C8.5929 21.699 8.8025 21.7427 9.0121 21.7815C9.63716 21.9013 10.2718 21.9646 10.9082 21.9709H11.0399C11.3372 21.9709 11.6345 21.9709 11.9367 21.9369C14.3283 21.7361 16.5894 20.7657 18.3787 19.1721C20.1681 17.5786 21.3887 15.4483 21.8562 13.1029C21.9937 12.4104 22.0623 11.706 22.0609 11.0001C22.0652 10.257 21.9966 9.51528 21.8562 8.78549ZM13.4771 19.1833L13.1602 19.2707C13.5205 18.58 13.7829 17.8429 13.9401 17.0804L14.1887 15.9877L16.0702 7.81904C16.181 7.51729 16.1688 7.1843 16.0361 6.89144C15.922 6.78564 15.7767 6.71924 15.6218 6.70204C15.153 6.6635 14.6819 6.6635 14.2131 6.70204C14.0373 6.72671 13.8701 6.79336 13.7257 6.8963L13.6769 6.94973L13.6087 7.02743C13.4586 7.26739 13.353 7.53221 13.2967 7.80932L11.9124 14.1228C11.8689 14.3727 11.7671 14.609 11.615 14.8124C11.5446 14.8876 11.4555 14.9429 11.3567 14.9727H11.2153H11.1325C10.9011 14.9887 10.6706 14.9308 10.4744 14.8076C10.3068 14.602 10.1975 14.3555 10.1576 14.0937L8.76838 7.78019C8.71993 7.43088 8.56116 7.106 8.31506 6.85259C8.02107 6.67956 7.6805 6.60152 7.34018 6.6292H6.85274C6.54064 6.58575 6.22388 6.66595 5.97047 6.85259C5.9264 6.9141 5.89948 6.98617 5.89248 7.06142C5.88744 7.08872 5.88744 7.11669 5.89248 7.14398C5.88514 7.21827 5.88514 7.2931 5.89248 7.36739C5.88814 7.43369 5.88814 7.5002 5.89248 7.5665C5.89248 7.63449 5.91685 7.70734 5.93147 7.78019L7.49128 14.4142C7.60683 14.9586 7.78003 15.4894 8.00797 15.9974C8.04209 16.08 8.08109 16.1577 8.12008 16.2305L8.15908 16.3034L8.21757 16.3908C8.28521 16.499 8.36184 16.6013 8.44667 16.6967C8.50554 16.7644 8.57083 16.8262 8.64164 16.8813C8.7129 16.9402 8.78961 16.9922 8.87074 17.0367C9.11578 17.1751 9.38574 17.2642 9.66527 17.299H9.79688C9.94421 17.3147 10.0923 17.3228 10.2405 17.3232C10.4013 17.3232 10.5427 17.3232 10.6596 17.3232H10.7766C10.8792 17.3147 10.9805 17.2951 11.0788 17.265C10.9773 17.7561 10.7415 18.2097 10.3974 18.5757C10.0533 18.9417 9.61438 19.2057 9.12909 19.3387C7.10283 18.8717 5.31653 17.6857 4.10396 16.0022C2.89139 14.3187 2.3355 12.2529 2.54015 10.1909C2.74481 8.12879 3.696 6.21151 5.21602 4.79723C6.73604 3.38295 8.72088 2.56844 10.7997 2.50589C12.8785 2.44333 14.9091 3.13702 16.512 4.45733C18.1149 5.77763 19.1805 7.63424 19.5096 9.68024C19.8388 11.7262 19.4091 13.8217 18.3007 15.575C17.1923 17.3283 15.4811 18.6196 13.4868 19.2076L13.4771 19.1833Z" fill="#FFC404"/>
</g>
<defs>
<clipPath id="clip0_4736_28679">
<rect width="65" height="22" fill="white"/>
</clipPath>
</defs>
</svg>
